G04 #@! TF.GenerationSoftware,KiCad,Pcbnew,5.1.5+dfsg1-2~bpo10+1*
G04 #@! TF.CreationDate,2020-05-02T00:01:12+02:00*
G04 #@! TF.ProjectId,reflow-controller,7265666c-6f77-42d6-936f-6e74726f6c6c,rev?*
G04 #@! TF.SameCoordinates,Original*
G04 #@! TF.FileFunction,Soldermask,Bot*
G04 #@! TF.FilePolarity,Negative*
%FSLAX46Y46*%
G04 Gerber Fmt 4.6, Leading zero omitted, Abs format (unit mm)*
G04 Created by KiCad (PCBNEW 5.1.5+dfsg1-2~bpo10+1) date 2020-05-02 00:01:12*
%MOMM*%
%LPD*%
G04 APERTURE LIST*
%ADD10C,0.100000*%
G04 APERTURE END LIST*
D10*
G36*
X204000000Y-155500000D02*
G01*
X185000000Y-155500000D01*
X185000000Y-108000000D01*
X204000000Y-108000000D01*
X204000000Y-155500000D01*
G37*
G36*
X146389943Y-149066248D02*
G01*
X146945189Y-149296238D01*
X147193347Y-149462052D01*
X147444899Y-149630134D01*
X147869866Y-150055101D01*
X148018440Y-150277458D01*
X148203762Y-150554811D01*
X148433752Y-151110057D01*
X148551000Y-151699501D01*
X148551000Y-152300499D01*
X148433752Y-152889943D01*
X148203762Y-153445189D01*
X148194241Y-153459438D01*
X147869866Y-153944899D01*
X147444899Y-154369866D01*
X147304573Y-154463629D01*
X146945189Y-154703762D01*
X146389943Y-154933752D01*
X145800499Y-155051000D01*
X145199501Y-155051000D01*
X144610057Y-154933752D01*
X144054811Y-154703762D01*
X143695427Y-154463629D01*
X143555101Y-154369866D01*
X143130134Y-153944899D01*
X142805759Y-153459438D01*
X142796238Y-153445189D01*
X142566248Y-152889943D01*
X142449000Y-152300499D01*
X142449000Y-151699501D01*
X142566248Y-151110057D01*
X142796238Y-150554811D01*
X142981560Y-150277458D01*
X143130134Y-150055101D01*
X143555101Y-149630134D01*
X143806653Y-149462052D01*
X144054811Y-149296238D01*
X144610057Y-149066248D01*
X145199501Y-148949000D01*
X145800499Y-148949000D01*
X146389943Y-149066248D01*
G37*
G36*
X121282516Y-150554810D02*
G01*
X121452410Y-150588604D01*
X121734674Y-150705521D01*
X121988705Y-150875259D01*
X122204741Y-151091295D01*
X122374479Y-151345326D01*
X122491396Y-151627590D01*
X122551000Y-151927240D01*
X122551000Y-152232760D01*
X122491396Y-152532410D01*
X122374479Y-152814674D01*
X122204741Y-153068705D01*
X121988705Y-153284741D01*
X121734674Y-153454479D01*
X121452410Y-153571396D01*
X121302585Y-153601198D01*
X121152761Y-153631000D01*
X120847239Y-153631000D01*
X120697415Y-153601198D01*
X120547590Y-153571396D01*
X120265326Y-153454479D01*
X120011295Y-153284741D01*
X119795259Y-153068705D01*
X119625521Y-152814674D01*
X119508604Y-152532410D01*
X119449000Y-152232760D01*
X119449000Y-151927240D01*
X119508604Y-151627590D01*
X119625521Y-151345326D01*
X119795259Y-151091295D01*
X120011295Y-150875259D01*
X120265326Y-150705521D01*
X120547590Y-150588604D01*
X120717484Y-150554810D01*
X120847239Y-150529000D01*
X121152761Y-150529000D01*
X121282516Y-150554810D01*
G37*
G36*
X210051000Y-152051000D02*
G01*
X206949000Y-152051000D01*
X206949000Y-148949000D01*
X210051000Y-148949000D01*
X210051000Y-152051000D01*
G37*
G36*
X122551000Y-148551000D02*
G01*
X119449000Y-148551000D01*
X119449000Y-145449000D01*
X122551000Y-145449000D01*
X122551000Y-148551000D01*
G37*
G36*
X208802585Y-143898802D02*
G01*
X208952410Y-143928604D01*
X209234674Y-144045521D01*
X209488705Y-144215259D01*
X209704741Y-144431295D01*
X209874479Y-144685326D01*
X209991396Y-144967590D01*
X210051000Y-145267240D01*
X210051000Y-145572760D01*
X209991396Y-145872410D01*
X209874479Y-146154674D01*
X209704741Y-146408705D01*
X209488705Y-146624741D01*
X209234674Y-146794479D01*
X208952410Y-146911396D01*
X208802585Y-146941198D01*
X208652761Y-146971000D01*
X208347239Y-146971000D01*
X208197415Y-146941198D01*
X208047590Y-146911396D01*
X207765326Y-146794479D01*
X207511295Y-146624741D01*
X207295259Y-146408705D01*
X207125521Y-146154674D01*
X207008604Y-145872410D01*
X206949000Y-145572760D01*
X206949000Y-145267240D01*
X207008604Y-144967590D01*
X207125521Y-144685326D01*
X207295259Y-144431295D01*
X207511295Y-144215259D01*
X207765326Y-144045521D01*
X208047590Y-143928604D01*
X208197415Y-143898802D01*
X208347239Y-143869000D01*
X208652761Y-143869000D01*
X208802585Y-143898802D01*
G37*
G36*
X125389943Y-135566248D02*
G01*
X125945189Y-135796238D01*
X126180443Y-135953430D01*
X126444899Y-136130134D01*
X126869866Y-136555101D01*
X127018440Y-136777458D01*
X127203762Y-137054811D01*
X127433752Y-137610057D01*
X127551000Y-138199501D01*
X127551000Y-138800499D01*
X127433752Y-139389943D01*
X127203762Y-139945189D01*
X127076660Y-140135410D01*
X126869866Y-140444899D01*
X126444899Y-140869866D01*
X126304573Y-140963629D01*
X125945189Y-141203762D01*
X125389943Y-141433752D01*
X124800499Y-141551000D01*
X124199501Y-141551000D01*
X123610057Y-141433752D01*
X123054811Y-141203762D01*
X122695427Y-140963629D01*
X122555101Y-140869866D01*
X122130134Y-140444899D01*
X121923340Y-140135410D01*
X121796238Y-139945189D01*
X121566248Y-139389943D01*
X121449000Y-138800499D01*
X121449000Y-138199501D01*
X121566248Y-137610057D01*
X121796238Y-137054811D01*
X121981560Y-136777458D01*
X122130134Y-136555101D01*
X122555101Y-136130134D01*
X122819557Y-135953430D01*
X123054811Y-135796238D01*
X123610057Y-135566248D01*
X124199501Y-135449000D01*
X124800499Y-135449000D01*
X125389943Y-135566248D01*
G37*
G36*
X209389943Y-134566248D02*
G01*
X209945189Y-134796238D01*
X210193347Y-134962052D01*
X210444899Y-135130134D01*
X210869866Y-135555101D01*
X211018440Y-135777458D01*
X211203762Y-136054811D01*
X211433752Y-136610057D01*
X211551000Y-137199501D01*
X211551000Y-137800499D01*
X211433752Y-138389943D01*
X211203762Y-138945189D01*
X211203761Y-138945190D01*
X210869866Y-139444899D01*
X210444899Y-139869866D01*
X210310845Y-139959438D01*
X209945189Y-140203762D01*
X209389943Y-140433752D01*
X208800499Y-140551000D01*
X208199501Y-140551000D01*
X207610057Y-140433752D01*
X207054811Y-140203762D01*
X206689155Y-139959438D01*
X206555101Y-139869866D01*
X206130134Y-139444899D01*
X205796239Y-138945190D01*
X205796238Y-138945189D01*
X205566248Y-138389943D01*
X205449000Y-137800499D01*
X205449000Y-137199501D01*
X205566248Y-136610057D01*
X205796238Y-136054811D01*
X205981560Y-135777458D01*
X206130134Y-135555101D01*
X206555101Y-135130134D01*
X206806653Y-134962052D01*
X207054811Y-134796238D01*
X207610057Y-134566248D01*
X208199501Y-134449000D01*
X208800499Y-134449000D01*
X209389943Y-134566248D01*
G37*
G36*
X124775331Y-129798211D02*
G01*
X125103092Y-129933974D01*
X125398070Y-130131072D01*
X125648928Y-130381930D01*
X125846026Y-130676908D01*
X125981789Y-131004669D01*
X126051000Y-131352616D01*
X126051000Y-131707384D01*
X125981789Y-132055331D01*
X125846026Y-132383092D01*
X125648928Y-132678070D01*
X125398070Y-132928928D01*
X125103092Y-133126026D01*
X124775331Y-133261789D01*
X124427384Y-133331000D01*
X124072616Y-133331000D01*
X123724669Y-133261789D01*
X123396908Y-133126026D01*
X123101930Y-132928928D01*
X122851072Y-132678070D01*
X122653974Y-132383092D01*
X122518211Y-132055331D01*
X122449000Y-131707384D01*
X122449000Y-131352616D01*
X122518211Y-131004669D01*
X122653974Y-130676908D01*
X122851072Y-130381930D01*
X123101930Y-130131072D01*
X123396908Y-129933974D01*
X123724669Y-129798211D01*
X124072616Y-129729000D01*
X124427384Y-129729000D01*
X124775331Y-129798211D01*
G37*
G36*
X210051000Y-132051000D02*
G01*
X206949000Y-132051000D01*
X206949000Y-128949000D01*
X210051000Y-128949000D01*
X210051000Y-132051000D01*
G37*
G36*
X167941000Y-130401000D02*
G01*
X166139000Y-130401000D01*
X166139000Y-128599000D01*
X167941000Y-128599000D01*
X167941000Y-130401000D01*
G37*
G36*
X164613512Y-128603927D02*
G01*
X164762812Y-128633624D01*
X164926784Y-128701544D01*
X165074354Y-128800147D01*
X165199853Y-128925646D01*
X165298456Y-129073216D01*
X165366376Y-129237188D01*
X165401000Y-129411259D01*
X165401000Y-129588741D01*
X165366376Y-129762812D01*
X165298456Y-129926784D01*
X165199853Y-130074354D01*
X165074354Y-130199853D01*
X164926784Y-130298456D01*
X164762812Y-130366376D01*
X164613512Y-130396073D01*
X164588742Y-130401000D01*
X164411258Y-130401000D01*
X164386488Y-130396073D01*
X164237188Y-130366376D01*
X164073216Y-130298456D01*
X163925646Y-130199853D01*
X163800147Y-130074354D01*
X163701544Y-129926784D01*
X163633624Y-129762812D01*
X163599000Y-129588741D01*
X163599000Y-129411259D01*
X163633624Y-129237188D01*
X163701544Y-129073216D01*
X163800147Y-128925646D01*
X163925646Y-128800147D01*
X164073216Y-128701544D01*
X164237188Y-128633624D01*
X164386488Y-128603927D01*
X164411258Y-128599000D01*
X164588742Y-128599000D01*
X164613512Y-128603927D01*
G37*
G36*
X162073512Y-128603927D02*
G01*
X162222812Y-128633624D01*
X162386784Y-128701544D01*
X162534354Y-128800147D01*
X162659853Y-128925646D01*
X162758456Y-129073216D01*
X162826376Y-129237188D01*
X162861000Y-129411259D01*
X162861000Y-129588741D01*
X162826376Y-129762812D01*
X162758456Y-129926784D01*
X162659853Y-130074354D01*
X162534354Y-130199853D01*
X162386784Y-130298456D01*
X162222812Y-130366376D01*
X162073512Y-130396073D01*
X162048742Y-130401000D01*
X161871258Y-130401000D01*
X161846488Y-130396073D01*
X161697188Y-130366376D01*
X161533216Y-130298456D01*
X161385646Y-130199853D01*
X161260147Y-130074354D01*
X161161544Y-129926784D01*
X161093624Y-129762812D01*
X161059000Y-129588741D01*
X161059000Y-129411259D01*
X161093624Y-129237188D01*
X161161544Y-129073216D01*
X161260147Y-128925646D01*
X161385646Y-128800147D01*
X161533216Y-128701544D01*
X161697188Y-128633624D01*
X161846488Y-128603927D01*
X161871258Y-128599000D01*
X162048742Y-128599000D01*
X162073512Y-128603927D01*
G37*
G36*
X162054508Y-126060147D02*
G01*
X162222812Y-126093624D01*
X162386784Y-126161544D01*
X162534354Y-126260147D01*
X162659853Y-126385646D01*
X162758456Y-126533216D01*
X162826376Y-126697188D01*
X162861000Y-126871259D01*
X162861000Y-127048741D01*
X162826376Y-127222812D01*
X162758456Y-127386784D01*
X162659853Y-127534354D01*
X162534354Y-127659853D01*
X162386784Y-127758456D01*
X162222812Y-127826376D01*
X162073512Y-127856073D01*
X162048742Y-127861000D01*
X161871258Y-127861000D01*
X161846488Y-127856073D01*
X161697188Y-127826376D01*
X161533216Y-127758456D01*
X161385646Y-127659853D01*
X161260147Y-127534354D01*
X161161544Y-127386784D01*
X161093624Y-127222812D01*
X161059000Y-127048741D01*
X161059000Y-126871259D01*
X161093624Y-126697188D01*
X161161544Y-126533216D01*
X161260147Y-126385646D01*
X161385646Y-126260147D01*
X161533216Y-126161544D01*
X161697188Y-126093624D01*
X161865492Y-126060147D01*
X161871258Y-126059000D01*
X162048742Y-126059000D01*
X162054508Y-126060147D01*
G37*
G36*
X167134508Y-126060147D02*
G01*
X167302812Y-126093624D01*
X167466784Y-126161544D01*
X167614354Y-126260147D01*
X167739853Y-126385646D01*
X167838456Y-126533216D01*
X167906376Y-126697188D01*
X167941000Y-126871259D01*
X167941000Y-127048741D01*
X167906376Y-127222812D01*
X167838456Y-127386784D01*
X167739853Y-127534354D01*
X167614354Y-127659853D01*
X167466784Y-127758456D01*
X167302812Y-127826376D01*
X167153512Y-127856073D01*
X167128742Y-127861000D01*
X166951258Y-127861000D01*
X166926488Y-127856073D01*
X166777188Y-127826376D01*
X166613216Y-127758456D01*
X166465646Y-127659853D01*
X166340147Y-127534354D01*
X166241544Y-127386784D01*
X166173624Y-127222812D01*
X166139000Y-127048741D01*
X166139000Y-126871259D01*
X166173624Y-126697188D01*
X166241544Y-126533216D01*
X166340147Y-126385646D01*
X166465646Y-126260147D01*
X166613216Y-126161544D01*
X166777188Y-126093624D01*
X166945492Y-126060147D01*
X166951258Y-126059000D01*
X167128742Y-126059000D01*
X167134508Y-126060147D01*
G37*
G36*
X164594508Y-126060147D02*
G01*
X164762812Y-126093624D01*
X164926784Y-126161544D01*
X165074354Y-126260147D01*
X165199853Y-126385646D01*
X165298456Y-126533216D01*
X165366376Y-126697188D01*
X165401000Y-126871259D01*
X165401000Y-127048741D01*
X165366376Y-127222812D01*
X165298456Y-127386784D01*
X165199853Y-127534354D01*
X165074354Y-127659853D01*
X164926784Y-127758456D01*
X164762812Y-127826376D01*
X164613512Y-127856073D01*
X164588742Y-127861000D01*
X164411258Y-127861000D01*
X164386488Y-127856073D01*
X164237188Y-127826376D01*
X164073216Y-127758456D01*
X163925646Y-127659853D01*
X163800147Y-127534354D01*
X163701544Y-127386784D01*
X163633624Y-127222812D01*
X163599000Y-127048741D01*
X163599000Y-126871259D01*
X163633624Y-126697188D01*
X163701544Y-126533216D01*
X163800147Y-126385646D01*
X163925646Y-126260147D01*
X164073216Y-126161544D01*
X164237188Y-126093624D01*
X164405492Y-126060147D01*
X164411258Y-126059000D01*
X164588742Y-126059000D01*
X164594508Y-126060147D01*
G37*
G36*
X127073512Y-125863927D02*
G01*
X127222812Y-125893624D01*
X127386784Y-125961544D01*
X127534354Y-126060147D01*
X127659853Y-126185646D01*
X127758456Y-126333216D01*
X127818523Y-126478229D01*
X127830068Y-126499829D01*
X127845613Y-126518771D01*
X127864555Y-126534316D01*
X127886166Y-126545867D01*
X127909615Y-126552980D01*
X127934001Y-126555382D01*
X127958387Y-126552980D01*
X127981836Y-126545867D01*
X128003447Y-126534316D01*
X128022389Y-126518771D01*
X128037934Y-126499829D01*
X128049485Y-126478218D01*
X128056598Y-126454769D01*
X128059000Y-126430383D01*
X128059000Y-125859000D01*
X129861000Y-125859000D01*
X129861000Y-127661000D01*
X128059000Y-127661000D01*
X128059000Y-127089617D01*
X128056598Y-127065231D01*
X128049485Y-127041782D01*
X128037934Y-127020171D01*
X128022389Y-127001229D01*
X128003447Y-126985684D01*
X127981836Y-126974133D01*
X127958387Y-126967020D01*
X127934001Y-126964618D01*
X127909615Y-126967020D01*
X127886166Y-126974133D01*
X127864555Y-126985684D01*
X127845613Y-127001229D01*
X127830068Y-127020171D01*
X127818523Y-127041771D01*
X127758456Y-127186784D01*
X127659853Y-127334354D01*
X127534354Y-127459853D01*
X127386784Y-127558456D01*
X127222812Y-127626376D01*
X127073512Y-127656073D01*
X127048742Y-127661000D01*
X126871258Y-127661000D01*
X126846488Y-127656073D01*
X126697188Y-127626376D01*
X126533216Y-127558456D01*
X126385646Y-127459853D01*
X126260147Y-127334354D01*
X126161544Y-127186784D01*
X126093624Y-127022812D01*
X126059000Y-126848741D01*
X126059000Y-126671259D01*
X126093624Y-126497188D01*
X126161544Y-126333216D01*
X126260147Y-126185646D01*
X126385646Y-126060147D01*
X126533216Y-125961544D01*
X126697188Y-125893624D01*
X126846488Y-125863927D01*
X126871258Y-125859000D01*
X127048742Y-125859000D01*
X127073512Y-125863927D01*
G37*
G36*
X208802585Y-123898802D02*
G01*
X208952410Y-123928604D01*
X209234674Y-124045521D01*
X209488705Y-124215259D01*
X209704741Y-124431295D01*
X209874479Y-124685326D01*
X209991396Y-124967590D01*
X210051000Y-125267240D01*
X210051000Y-125572760D01*
X209991396Y-125872410D01*
X209874479Y-126154674D01*
X209704741Y-126408705D01*
X209488705Y-126624741D01*
X209234674Y-126794479D01*
X208952410Y-126911396D01*
X208802585Y-126941198D01*
X208652761Y-126971000D01*
X208347239Y-126971000D01*
X208197415Y-126941198D01*
X208047590Y-126911396D01*
X207765326Y-126794479D01*
X207511295Y-126624741D01*
X207295259Y-126408705D01*
X207125521Y-126154674D01*
X207008604Y-125872410D01*
X206949000Y-125572760D01*
X206949000Y-125267240D01*
X207008604Y-124967590D01*
X207125521Y-124685326D01*
X207295259Y-124431295D01*
X207511295Y-124215259D01*
X207765326Y-124045521D01*
X208047590Y-123928604D01*
X208197415Y-123898802D01*
X208347239Y-123869000D01*
X208652761Y-123869000D01*
X208802585Y-123898802D01*
G37*
G36*
X127073512Y-123363927D02*
G01*
X127222812Y-123393624D01*
X127386784Y-123461544D01*
X127534354Y-123560147D01*
X127659853Y-123685646D01*
X127758456Y-123833216D01*
X127826376Y-123997188D01*
X127837405Y-124052638D01*
X127844516Y-124076078D01*
X127856067Y-124097689D01*
X127871613Y-124116631D01*
X127890555Y-124132176D01*
X127912165Y-124143727D01*
X127935614Y-124150840D01*
X127960000Y-124153242D01*
X127984387Y-124150840D01*
X128007835Y-124143727D01*
X128029446Y-124132176D01*
X128048388Y-124116630D01*
X128063933Y-124097688D01*
X128075484Y-124076078D01*
X128082595Y-124052638D01*
X128093624Y-123997188D01*
X128161544Y-123833216D01*
X128260147Y-123685646D01*
X128385646Y-123560147D01*
X128533216Y-123461544D01*
X128697188Y-123393624D01*
X128846488Y-123363927D01*
X128871258Y-123359000D01*
X129048742Y-123359000D01*
X129073512Y-123363927D01*
X129222812Y-123393624D01*
X129386784Y-123461544D01*
X129534354Y-123560147D01*
X129659853Y-123685646D01*
X129758456Y-123833216D01*
X129826376Y-123997188D01*
X129861000Y-124171259D01*
X129861000Y-124348741D01*
X129826376Y-124522812D01*
X129758456Y-124686784D01*
X129659853Y-124834354D01*
X129534354Y-124959853D01*
X129386784Y-125058456D01*
X129222812Y-125126376D01*
X129073512Y-125156073D01*
X129048742Y-125161000D01*
X128871258Y-125161000D01*
X128846488Y-125156073D01*
X128697188Y-125126376D01*
X128533216Y-125058456D01*
X128385646Y-124959853D01*
X128260147Y-124834354D01*
X128161544Y-124686784D01*
X128093624Y-124522812D01*
X128082595Y-124467362D01*
X128075484Y-124443922D01*
X128063933Y-124422311D01*
X128048387Y-124403369D01*
X128029445Y-124387824D01*
X128007835Y-124376273D01*
X127984386Y-124369160D01*
X127960000Y-124366758D01*
X127935613Y-124369160D01*
X127912165Y-124376273D01*
X127890554Y-124387824D01*
X127871612Y-124403370D01*
X127856067Y-124422312D01*
X127844516Y-124443922D01*
X127837405Y-124467362D01*
X127826376Y-124522812D01*
X127758456Y-124686784D01*
X127659853Y-124834354D01*
X127534354Y-124959853D01*
X127386784Y-125058456D01*
X127222812Y-125126376D01*
X127073512Y-125156073D01*
X127048742Y-125161000D01*
X126871258Y-125161000D01*
X126846488Y-125156073D01*
X126697188Y-125126376D01*
X126533216Y-125058456D01*
X126385646Y-124959853D01*
X126260147Y-124834354D01*
X126161544Y-124686784D01*
X126093624Y-124522812D01*
X126059000Y-124348741D01*
X126059000Y-124171259D01*
X126093624Y-123997188D01*
X126161544Y-123833216D01*
X126260147Y-123685646D01*
X126385646Y-123560147D01*
X126533216Y-123461544D01*
X126697188Y-123393624D01*
X126846488Y-123363927D01*
X126871258Y-123359000D01*
X127048742Y-123359000D01*
X127073512Y-123363927D01*
G37*
G36*
X124775331Y-117758211D02*
G01*
X125103092Y-117893974D01*
X125398070Y-118091072D01*
X125648928Y-118341930D01*
X125846026Y-118636908D01*
X125981789Y-118964669D01*
X126051000Y-119312616D01*
X126051000Y-119667384D01*
X125981789Y-120015331D01*
X125846026Y-120343092D01*
X125648928Y-120638070D01*
X125398070Y-120888928D01*
X125103092Y-121086026D01*
X124775331Y-121221789D01*
X124427384Y-121291000D01*
X124072616Y-121291000D01*
X123724669Y-121221789D01*
X123396908Y-121086026D01*
X123101930Y-120888928D01*
X122851072Y-120638070D01*
X122653974Y-120343092D01*
X122518211Y-120015331D01*
X122449000Y-119667384D01*
X122449000Y-119312616D01*
X122518211Y-118964669D01*
X122653974Y-118636908D01*
X122851072Y-118341930D01*
X123101930Y-118091072D01*
X123396908Y-117893974D01*
X123724669Y-117758211D01*
X124072616Y-117689000D01*
X124427384Y-117689000D01*
X124775331Y-117758211D01*
G37*
G36*
X209389943Y-110566248D02*
G01*
X209945189Y-110796238D01*
X210140561Y-110926782D01*
X210444899Y-111130134D01*
X210869866Y-111555101D01*
X211018440Y-111777458D01*
X211203762Y-112054811D01*
X211433752Y-112610057D01*
X211551000Y-113199501D01*
X211551000Y-113800499D01*
X211433752Y-114389943D01*
X211203762Y-114945189D01*
X211203761Y-114945190D01*
X210869866Y-115444899D01*
X210444899Y-115869866D01*
X210304573Y-115963629D01*
X209945189Y-116203762D01*
X209389943Y-116433752D01*
X208800499Y-116551000D01*
X208199501Y-116551000D01*
X207610057Y-116433752D01*
X207054811Y-116203762D01*
X206695427Y-115963629D01*
X206555101Y-115869866D01*
X206130134Y-115444899D01*
X205796239Y-114945190D01*
X205796238Y-114945189D01*
X205566248Y-114389943D01*
X205449000Y-113800499D01*
X205449000Y-113199501D01*
X205566248Y-112610057D01*
X205796238Y-112054811D01*
X205981560Y-111777458D01*
X206130134Y-111555101D01*
X206555101Y-111130134D01*
X206859439Y-110926782D01*
X207054811Y-110796238D01*
X207610057Y-110566248D01*
X208199501Y-110449000D01*
X208800499Y-110449000D01*
X209389943Y-110566248D01*
G37*
G36*
X125993512Y-109603927D02*
G01*
X126142812Y-109633624D01*
X126306784Y-109701544D01*
X126454354Y-109800147D01*
X126579853Y-109925646D01*
X126678456Y-110073216D01*
X126746376Y-110237188D01*
X126781000Y-110411259D01*
X126781000Y-110588741D01*
X126746376Y-110762812D01*
X126678456Y-110926784D01*
X126579853Y-111074354D01*
X126454354Y-111199853D01*
X126306784Y-111298456D01*
X126142812Y-111366376D01*
X125993512Y-111396073D01*
X125968742Y-111401000D01*
X125791258Y-111401000D01*
X125766488Y-111396073D01*
X125617188Y-111366376D01*
X125453216Y-111298456D01*
X125305646Y-111199853D01*
X125180147Y-111074354D01*
X125081544Y-110926784D01*
X125013624Y-110762812D01*
X124979000Y-110588741D01*
X124979000Y-110411259D01*
X125013624Y-110237188D01*
X125081544Y-110073216D01*
X125180147Y-109925646D01*
X125305646Y-109800147D01*
X125453216Y-109701544D01*
X125617188Y-109633624D01*
X125766488Y-109603927D01*
X125791258Y-109599000D01*
X125968742Y-109599000D01*
X125993512Y-109603927D01*
G37*
G36*
X153361000Y-111401000D02*
G01*
X151559000Y-111401000D01*
X151559000Y-109599000D01*
X153361000Y-109599000D01*
X153361000Y-111401000D01*
G37*
G36*
X155113512Y-109603927D02*
G01*
X155262812Y-109633624D01*
X155426784Y-109701544D01*
X155574354Y-109800147D01*
X155699853Y-109925646D01*
X155798456Y-110073216D01*
X155866376Y-110237188D01*
X155901000Y-110411259D01*
X155901000Y-110588741D01*
X155866376Y-110762812D01*
X155798456Y-110926784D01*
X155699853Y-111074354D01*
X155574354Y-111199853D01*
X155426784Y-111298456D01*
X155262812Y-111366376D01*
X155113512Y-111396073D01*
X155088742Y-111401000D01*
X154911258Y-111401000D01*
X154886488Y-111396073D01*
X154737188Y-111366376D01*
X154573216Y-111298456D01*
X154425646Y-111199853D01*
X154300147Y-111074354D01*
X154201544Y-110926784D01*
X154133624Y-110762812D01*
X154099000Y-110588741D01*
X154099000Y-110411259D01*
X154133624Y-110237188D01*
X154201544Y-110073216D01*
X154300147Y-109925646D01*
X154425646Y-109800147D01*
X154573216Y-109701544D01*
X154737188Y-109633624D01*
X154886488Y-109603927D01*
X154911258Y-109599000D01*
X155088742Y-109599000D01*
X155113512Y-109603927D01*
G37*
G36*
X157653512Y-109603927D02*
G01*
X157802812Y-109633624D01*
X157966784Y-109701544D01*
X158114354Y-109800147D01*
X158239853Y-109925646D01*
X158338456Y-110073216D01*
X158406376Y-110237188D01*
X158441000Y-110411259D01*
X158441000Y-110588741D01*
X158406376Y-110762812D01*
X158338456Y-110926784D01*
X158239853Y-111074354D01*
X158114354Y-111199853D01*
X157966784Y-111298456D01*
X157802812Y-111366376D01*
X157653512Y-111396073D01*
X157628742Y-111401000D01*
X157451258Y-111401000D01*
X157426488Y-111396073D01*
X157277188Y-111366376D01*
X157113216Y-111298456D01*
X156965646Y-111199853D01*
X156840147Y-111074354D01*
X156741544Y-110926784D01*
X156673624Y-110762812D01*
X156639000Y-110588741D01*
X156639000Y-110411259D01*
X156673624Y-110237188D01*
X156741544Y-110073216D01*
X156840147Y-109925646D01*
X156965646Y-109800147D01*
X157113216Y-109701544D01*
X157277188Y-109633624D01*
X157426488Y-109603927D01*
X157451258Y-109599000D01*
X157628742Y-109599000D01*
X157653512Y-109603927D01*
G37*
G36*
X160193512Y-109603927D02*
G01*
X160342812Y-109633624D01*
X160506784Y-109701544D01*
X160654354Y-109800147D01*
X160779853Y-109925646D01*
X160878456Y-110073216D01*
X160946376Y-110237188D01*
X160981000Y-110411259D01*
X160981000Y-110588741D01*
X160946376Y-110762812D01*
X160878456Y-110926784D01*
X160779853Y-111074354D01*
X160654354Y-111199853D01*
X160506784Y-111298456D01*
X160342812Y-111366376D01*
X160193512Y-111396073D01*
X160168742Y-111401000D01*
X159991258Y-111401000D01*
X159966488Y-111396073D01*
X159817188Y-111366376D01*
X159653216Y-111298456D01*
X159505646Y-111199853D01*
X159380147Y-111074354D01*
X159281544Y-110926784D01*
X159213624Y-110762812D01*
X159179000Y-110588741D01*
X159179000Y-110411259D01*
X159213624Y-110237188D01*
X159281544Y-110073216D01*
X159380147Y-109925646D01*
X159505646Y-109800147D01*
X159653216Y-109701544D01*
X159817188Y-109633624D01*
X159966488Y-109603927D01*
X159991258Y-109599000D01*
X160168742Y-109599000D01*
X160193512Y-109603927D01*
G37*
G36*
X141321000Y-111401000D02*
G01*
X139519000Y-111401000D01*
X139519000Y-109599000D01*
X141321000Y-109599000D01*
X141321000Y-111401000D01*
G37*
G36*
X143073512Y-109603927D02*
G01*
X143222812Y-109633624D01*
X143386784Y-109701544D01*
X143534354Y-109800147D01*
X143659853Y-109925646D01*
X143758456Y-110073216D01*
X143826376Y-110237188D01*
X143861000Y-110411259D01*
X143861000Y-110588741D01*
X143826376Y-110762812D01*
X143758456Y-110926784D01*
X143659853Y-111074354D01*
X143534354Y-111199853D01*
X143386784Y-111298456D01*
X143222812Y-111366376D01*
X143073512Y-111396073D01*
X143048742Y-111401000D01*
X142871258Y-111401000D01*
X142846488Y-111396073D01*
X142697188Y-111366376D01*
X142533216Y-111298456D01*
X142385646Y-111199853D01*
X142260147Y-111074354D01*
X142161544Y-110926784D01*
X142093624Y-110762812D01*
X142059000Y-110588741D01*
X142059000Y-110411259D01*
X142093624Y-110237188D01*
X142161544Y-110073216D01*
X142260147Y-109925646D01*
X142385646Y-109800147D01*
X142533216Y-109701544D01*
X142697188Y-109633624D01*
X142846488Y-109603927D01*
X142871258Y-109599000D01*
X143048742Y-109599000D01*
X143073512Y-109603927D01*
G37*
G36*
X145613512Y-109603927D02*
G01*
X145762812Y-109633624D01*
X145926784Y-109701544D01*
X146074354Y-109800147D01*
X146199853Y-109925646D01*
X146298456Y-110073216D01*
X146366376Y-110237188D01*
X146401000Y-110411259D01*
X146401000Y-110588741D01*
X146366376Y-110762812D01*
X146298456Y-110926784D01*
X146199853Y-111074354D01*
X146074354Y-111199853D01*
X145926784Y-111298456D01*
X145762812Y-111366376D01*
X145613512Y-111396073D01*
X145588742Y-111401000D01*
X145411258Y-111401000D01*
X145386488Y-111396073D01*
X145237188Y-111366376D01*
X145073216Y-111298456D01*
X144925646Y-111199853D01*
X144800147Y-111074354D01*
X144701544Y-110926784D01*
X144633624Y-110762812D01*
X144599000Y-110588741D01*
X144599000Y-110411259D01*
X144633624Y-110237188D01*
X144701544Y-110073216D01*
X144800147Y-109925646D01*
X144925646Y-109800147D01*
X145073216Y-109701544D01*
X145237188Y-109633624D01*
X145386488Y-109603927D01*
X145411258Y-109599000D01*
X145588742Y-109599000D01*
X145613512Y-109603927D01*
G37*
G36*
X148153512Y-109603927D02*
G01*
X148302812Y-109633624D01*
X148466784Y-109701544D01*
X148614354Y-109800147D01*
X148739853Y-109925646D01*
X148838456Y-110073216D01*
X148906376Y-110237188D01*
X148941000Y-110411259D01*
X148941000Y-110588741D01*
X148906376Y-110762812D01*
X148838456Y-110926784D01*
X148739853Y-111074354D01*
X148614354Y-111199853D01*
X148466784Y-111298456D01*
X148302812Y-111366376D01*
X148153512Y-111396073D01*
X148128742Y-111401000D01*
X147951258Y-111401000D01*
X147926488Y-111396073D01*
X147777188Y-111366376D01*
X147613216Y-111298456D01*
X147465646Y-111199853D01*
X147340147Y-111074354D01*
X147241544Y-110926784D01*
X147173624Y-110762812D01*
X147139000Y-110588741D01*
X147139000Y-110411259D01*
X147173624Y-110237188D01*
X147241544Y-110073216D01*
X147340147Y-109925646D01*
X147465646Y-109800147D01*
X147613216Y-109701544D01*
X147777188Y-109633624D01*
X147926488Y-109603927D01*
X147951258Y-109599000D01*
X148128742Y-109599000D01*
X148153512Y-109603927D01*
G37*
G36*
X119161000Y-111401000D02*
G01*
X117359000Y-111401000D01*
X117359000Y-109599000D01*
X119161000Y-109599000D01*
X119161000Y-111401000D01*
G37*
G36*
X120913512Y-109603927D02*
G01*
X121062812Y-109633624D01*
X121226784Y-109701544D01*
X121374354Y-109800147D01*
X121499853Y-109925646D01*
X121598456Y-110073216D01*
X121666376Y-110237188D01*
X121701000Y-110411259D01*
X121701000Y-110588741D01*
X121666376Y-110762812D01*
X121598456Y-110926784D01*
X121499853Y-111074354D01*
X121374354Y-111199853D01*
X121226784Y-111298456D01*
X121062812Y-111366376D01*
X120913512Y-111396073D01*
X120888742Y-111401000D01*
X120711258Y-111401000D01*
X120686488Y-111396073D01*
X120537188Y-111366376D01*
X120373216Y-111298456D01*
X120225646Y-111199853D01*
X120100147Y-111074354D01*
X120001544Y-110926784D01*
X119933624Y-110762812D01*
X119899000Y-110588741D01*
X119899000Y-110411259D01*
X119933624Y-110237188D01*
X120001544Y-110073216D01*
X120100147Y-109925646D01*
X120225646Y-109800147D01*
X120373216Y-109701544D01*
X120537188Y-109633624D01*
X120686488Y-109603927D01*
X120711258Y-109599000D01*
X120888742Y-109599000D01*
X120913512Y-109603927D01*
G37*
G36*
X123453512Y-109603927D02*
G01*
X123602812Y-109633624D01*
X123766784Y-109701544D01*
X123914354Y-109800147D01*
X124039853Y-109925646D01*
X124138456Y-110073216D01*
X124206376Y-110237188D01*
X124241000Y-110411259D01*
X124241000Y-110588741D01*
X124206376Y-110762812D01*
X124138456Y-110926784D01*
X124039853Y-111074354D01*
X123914354Y-111199853D01*
X123766784Y-111298456D01*
X123602812Y-111366376D01*
X123453512Y-111396073D01*
X123428742Y-111401000D01*
X123251258Y-111401000D01*
X123226488Y-111396073D01*
X123077188Y-111366376D01*
X122913216Y-111298456D01*
X122765646Y-111199853D01*
X122640147Y-111074354D01*
X122541544Y-110926784D01*
X122473624Y-110762812D01*
X122439000Y-110588741D01*
X122439000Y-110411259D01*
X122473624Y-110237188D01*
X122541544Y-110073216D01*
X122640147Y-109925646D01*
X122765646Y-109800147D01*
X122913216Y-109701544D01*
X123077188Y-109633624D01*
X123226488Y-109603927D01*
X123251258Y-109599000D01*
X123428742Y-109599000D01*
X123453512Y-109603927D01*
G37*
G36*
X128533512Y-109603927D02*
G01*
X128682812Y-109633624D01*
X128846784Y-109701544D01*
X128994354Y-109800147D01*
X129119853Y-109925646D01*
X129218456Y-110073216D01*
X129286376Y-110237188D01*
X129321000Y-110411259D01*
X129321000Y-110588741D01*
X129286376Y-110762812D01*
X129218456Y-110926784D01*
X129119853Y-111074354D01*
X128994354Y-111199853D01*
X128846784Y-111298456D01*
X128682812Y-111366376D01*
X128533512Y-111396073D01*
X128508742Y-111401000D01*
X128331258Y-111401000D01*
X128306488Y-111396073D01*
X128157188Y-111366376D01*
X127993216Y-111298456D01*
X127845646Y-111199853D01*
X127720147Y-111074354D01*
X127621544Y-110926784D01*
X127553624Y-110762812D01*
X127519000Y-110588741D01*
X127519000Y-110411259D01*
X127553624Y-110237188D01*
X127621544Y-110073216D01*
X127720147Y-109925646D01*
X127845646Y-109800147D01*
X127993216Y-109701544D01*
X128157188Y-109633624D01*
X128306488Y-109603927D01*
X128331258Y-109599000D01*
X128508742Y-109599000D01*
X128533512Y-109603927D01*
G37*
G36*
X131073512Y-109603927D02*
G01*
X131222812Y-109633624D01*
X131386784Y-109701544D01*
X131534354Y-109800147D01*
X131659853Y-109925646D01*
X131758456Y-110073216D01*
X131826376Y-110237188D01*
X131861000Y-110411259D01*
X131861000Y-110588741D01*
X131826376Y-110762812D01*
X131758456Y-110926784D01*
X131659853Y-111074354D01*
X131534354Y-111199853D01*
X131386784Y-111298456D01*
X131222812Y-111366376D01*
X131073512Y-111396073D01*
X131048742Y-111401000D01*
X130871258Y-111401000D01*
X130846488Y-111396073D01*
X130697188Y-111366376D01*
X130533216Y-111298456D01*
X130385646Y-111199853D01*
X130260147Y-111074354D01*
X130161544Y-110926784D01*
X130093624Y-110762812D01*
X130059000Y-110588741D01*
X130059000Y-110411259D01*
X130093624Y-110237188D01*
X130161544Y-110073216D01*
X130260147Y-109925646D01*
X130385646Y-109800147D01*
X130533216Y-109701544D01*
X130697188Y-109633624D01*
X130846488Y-109603927D01*
X130871258Y-109599000D01*
X131048742Y-109599000D01*
X131073512Y-109603927D01*
G37*
G36*
X133613512Y-109603927D02*
G01*
X133762812Y-109633624D01*
X133926784Y-109701544D01*
X134074354Y-109800147D01*
X134199853Y-109925646D01*
X134298456Y-110073216D01*
X134366376Y-110237188D01*
X134401000Y-110411259D01*
X134401000Y-110588741D01*
X134366376Y-110762812D01*
X134298456Y-110926784D01*
X134199853Y-111074354D01*
X134074354Y-111199853D01*
X133926784Y-111298456D01*
X133762812Y-111366376D01*
X133613512Y-111396073D01*
X133588742Y-111401000D01*
X133411258Y-111401000D01*
X133386488Y-111396073D01*
X133237188Y-111366376D01*
X133073216Y-111298456D01*
X132925646Y-111199853D01*
X132800147Y-111074354D01*
X132701544Y-110926784D01*
X132633624Y-110762812D01*
X132599000Y-110588741D01*
X132599000Y-110411259D01*
X132633624Y-110237188D01*
X132701544Y-110073216D01*
X132800147Y-109925646D01*
X132925646Y-109800147D01*
X133073216Y-109701544D01*
X133237188Y-109633624D01*
X133386488Y-109603927D01*
X133411258Y-109599000D01*
X133588742Y-109599000D01*
X133613512Y-109603927D01*
G37*
G36*
X136153512Y-109603927D02*
G01*
X136302812Y-109633624D01*
X136466784Y-109701544D01*
X136614354Y-109800147D01*
X136739853Y-109925646D01*
X136838456Y-110073216D01*
X136906376Y-110237188D01*
X136941000Y-110411259D01*
X136941000Y-110588741D01*
X136906376Y-110762812D01*
X136838456Y-110926784D01*
X136739853Y-111074354D01*
X136614354Y-111199853D01*
X136466784Y-111298456D01*
X136302812Y-111366376D01*
X136153512Y-111396073D01*
X136128742Y-111401000D01*
X135951258Y-111401000D01*
X135926488Y-111396073D01*
X135777188Y-111366376D01*
X135613216Y-111298456D01*
X135465646Y-111199853D01*
X135340147Y-111074354D01*
X135241544Y-110926784D01*
X135173624Y-110762812D01*
X135139000Y-110588741D01*
X135139000Y-110411259D01*
X135173624Y-110237188D01*
X135241544Y-110073216D01*
X135340147Y-109925646D01*
X135465646Y-109800147D01*
X135613216Y-109701544D01*
X135777188Y-109633624D01*
X135926488Y-109603927D01*
X135951258Y-109599000D01*
X136128742Y-109599000D01*
X136153512Y-109603927D01*
G37*
G36*
X165361000Y-111401000D02*
G01*
X163559000Y-111401000D01*
X163559000Y-109599000D01*
X165361000Y-109599000D01*
X165361000Y-111401000D01*
G37*
G36*
X167113512Y-109603927D02*
G01*
X167262812Y-109633624D01*
X167426784Y-109701544D01*
X167574354Y-109800147D01*
X167699853Y-109925646D01*
X167798456Y-110073216D01*
X167866376Y-110237188D01*
X167901000Y-110411259D01*
X167901000Y-110588741D01*
X167866376Y-110762812D01*
X167798456Y-110926784D01*
X167699853Y-111074354D01*
X167574354Y-111199853D01*
X167426784Y-111298456D01*
X167262812Y-111366376D01*
X167113512Y-111396073D01*
X167088742Y-111401000D01*
X166911258Y-111401000D01*
X166886488Y-111396073D01*
X166737188Y-111366376D01*
X166573216Y-111298456D01*
X166425646Y-111199853D01*
X166300147Y-111074354D01*
X166201544Y-110926784D01*
X166133624Y-110762812D01*
X166099000Y-110588741D01*
X166099000Y-110411259D01*
X166133624Y-110237188D01*
X166201544Y-110073216D01*
X166300147Y-109925646D01*
X166425646Y-109800147D01*
X166573216Y-109701544D01*
X166737188Y-109633624D01*
X166886488Y-109603927D01*
X166911258Y-109599000D01*
X167088742Y-109599000D01*
X167113512Y-109603927D01*
G37*
G36*
X169653512Y-109603927D02*
G01*
X169802812Y-109633624D01*
X169966784Y-109701544D01*
X170114354Y-109800147D01*
X170239853Y-109925646D01*
X170338456Y-110073216D01*
X170406376Y-110237188D01*
X170441000Y-110411259D01*
X170441000Y-110588741D01*
X170406376Y-110762812D01*
X170338456Y-110926784D01*
X170239853Y-111074354D01*
X170114354Y-111199853D01*
X169966784Y-111298456D01*
X169802812Y-111366376D01*
X169653512Y-111396073D01*
X169628742Y-111401000D01*
X169451258Y-111401000D01*
X169426488Y-111396073D01*
X169277188Y-111366376D01*
X169113216Y-111298456D01*
X168965646Y-111199853D01*
X168840147Y-111074354D01*
X168741544Y-110926784D01*
X168673624Y-110762812D01*
X168639000Y-110588741D01*
X168639000Y-110411259D01*
X168673624Y-110237188D01*
X168741544Y-110073216D01*
X168840147Y-109925646D01*
X168965646Y-109800147D01*
X169113216Y-109701544D01*
X169277188Y-109633624D01*
X169426488Y-109603927D01*
X169451258Y-109599000D01*
X169628742Y-109599000D01*
X169653512Y-109603927D01*
G37*
G36*
X172193512Y-109603927D02*
G01*
X172342812Y-109633624D01*
X172506784Y-109701544D01*
X172654354Y-109800147D01*
X172779853Y-109925646D01*
X172878456Y-110073216D01*
X172946376Y-110237188D01*
X172981000Y-110411259D01*
X172981000Y-110588741D01*
X172946376Y-110762812D01*
X172878456Y-110926784D01*
X172779853Y-111074354D01*
X172654354Y-111199853D01*
X172506784Y-111298456D01*
X172342812Y-111366376D01*
X172193512Y-111396073D01*
X172168742Y-111401000D01*
X171991258Y-111401000D01*
X171966488Y-111396073D01*
X171817188Y-111366376D01*
X171653216Y-111298456D01*
X171505646Y-111199853D01*
X171380147Y-111074354D01*
X171281544Y-110926784D01*
X171213624Y-110762812D01*
X171179000Y-110588741D01*
X171179000Y-110411259D01*
X171213624Y-110237188D01*
X171281544Y-110073216D01*
X171380147Y-109925646D01*
X171505646Y-109800147D01*
X171653216Y-109701544D01*
X171817188Y-109633624D01*
X171966488Y-109603927D01*
X171991258Y-109599000D01*
X172168742Y-109599000D01*
X172193512Y-109603927D01*
G37*
G36*
X177273512Y-109603927D02*
G01*
X177422812Y-109633624D01*
X177586784Y-109701544D01*
X177734354Y-109800147D01*
X177859853Y-109925646D01*
X177958456Y-110073216D01*
X178026376Y-110237188D01*
X178061000Y-110411259D01*
X178061000Y-110588741D01*
X178026376Y-110762812D01*
X177958456Y-110926784D01*
X177859853Y-111074354D01*
X177734354Y-111199853D01*
X177586784Y-111298456D01*
X177422812Y-111366376D01*
X177273512Y-111396073D01*
X177248742Y-111401000D01*
X177071258Y-111401000D01*
X177046488Y-111396073D01*
X176897188Y-111366376D01*
X176733216Y-111298456D01*
X176585646Y-111199853D01*
X176460147Y-111074354D01*
X176361544Y-110926784D01*
X176293624Y-110762812D01*
X176259000Y-110588741D01*
X176259000Y-110411259D01*
X176293624Y-110237188D01*
X176361544Y-110073216D01*
X176460147Y-109925646D01*
X176585646Y-109800147D01*
X176733216Y-109701544D01*
X176897188Y-109633624D01*
X177046488Y-109603927D01*
X177071258Y-109599000D01*
X177248742Y-109599000D01*
X177273512Y-109603927D01*
G37*
G36*
X174733512Y-109603927D02*
G01*
X174882812Y-109633624D01*
X175046784Y-109701544D01*
X175194354Y-109800147D01*
X175319853Y-109925646D01*
X175418456Y-110073216D01*
X175486376Y-110237188D01*
X175521000Y-110411259D01*
X175521000Y-110588741D01*
X175486376Y-110762812D01*
X175418456Y-110926784D01*
X175319853Y-111074354D01*
X175194354Y-111199853D01*
X175046784Y-111298456D01*
X174882812Y-111366376D01*
X174733512Y-111396073D01*
X174708742Y-111401000D01*
X174531258Y-111401000D01*
X174506488Y-111396073D01*
X174357188Y-111366376D01*
X174193216Y-111298456D01*
X174045646Y-111199853D01*
X173920147Y-111074354D01*
X173821544Y-110926784D01*
X173753624Y-110762812D01*
X173719000Y-110588741D01*
X173719000Y-110411259D01*
X173753624Y-110237188D01*
X173821544Y-110073216D01*
X173920147Y-109925646D01*
X174045646Y-109800147D01*
X174193216Y-109701544D01*
X174357188Y-109633624D01*
X174506488Y-109603927D01*
X174531258Y-109599000D01*
X174708742Y-109599000D01*
X174733512Y-109603927D01*
G37*
M02*
