M48
; DRILL file {KiCad 5.1.5+dfsg1-2~bpo10+1} date Sat 02 May 2020 00:01:34 CEST
; FORMAT={-:-/ absolute / metric / decimal}
; #@! TF.CreationDate,2020-05-02T00:01:34+02:00
; #@! TF.GenerationSoftware,Kicad,Pcbnew,5.1.5+dfsg1-2~bpo10+1
; #@! TF.FileFunction,Plated,1,2,PTH
FMAT,2
METRIC
T1C0.400
T2C0.500
T3C0.920
T4C1.000
T5C1.520
T6C2.330
T7C3.000
%
G90
G05
T1
X117.5Y-154.2
X117.8Y-127.4
X119.5Y-113.5
X119.5Y-142.5
X123.2Y-125.6
X126.8Y-116.0
X127.5Y-151.5
X128.5Y-149.0
X128.7Y-141.6
X129.7Y-132.1
X130.0Y-122.0
X131.0Y-121.0
X133.5Y-146.0
X133.5Y-147.5
X133.5Y-149.0
X134.0Y-117.0
X135.3Y-114.1
X136.7Y-141.2
X136.814Y-131.087
X138.5Y-124.0
X138.6Y-118.7
X139.1Y-127.0
X140.0Y-135.0
X142.0Y-115.0
X142.0Y-135.0
X142.5Y-123.3
X142.5Y-124.5
X143.4Y-144.0
X145.0Y-135.5
X146.0Y-138.5
X146.5Y-116.0
X146.809Y-119.807
X148.0Y-131.0
X148.0Y-134.5
X149.249Y-117.269
X149.9Y-111.1
X150.5Y-144.2
X151.0Y-114.0
X151.1Y-129.4
X151.5Y-119.5
X151.5Y-121.0
X151.5Y-136.4
X152.0Y-113.675
X152.4Y-151.6
X152.44Y-118.775
X152.5Y-122.5
X153.0Y-113.675
X153.0Y-120.5
X153.0Y-128.0
X154.5Y-128.0
X156.5Y-127.0
X157.0Y-113.0
X157.5Y-124.5
X157.5Y-130.0
X160.288Y-151.0
X160.5Y-130.5
X160.5Y-134.5
X160.5Y-142.0
X161.5Y-114.0
X164.5Y-142.5
X165.0Y-121.5
X166.275Y-146.925
X167.4Y-123.1
X167.5Y-141.5
X168.0Y-132.0
X168.5Y-117.5
X168.9Y-151.4
X172.5Y-143.5
X173.0Y-136.0
X173.5Y-115.5
X175.0Y-150.0
X176.7Y-143.0
X179.5Y-127.5
X180.0Y-110.0
X180.8Y-154.0
X180.9Y-133.1
T2
X143.25Y-152.0
X143.909Y-150.409
X143.909Y-153.591
X145.5Y-149.75
X145.5Y-154.25
X147.091Y-150.409
X147.091Y-153.591
X147.75Y-152.0
X206.25Y-137.5
X206.909Y-135.909
X206.909Y-139.091
X208.5Y-135.25
X208.5Y-139.75
X210.091Y-135.909
X210.091Y-139.091
X210.75Y-137.5
X206.25Y-113.5
X206.909Y-111.909
X206.909Y-115.091
X208.5Y-111.25
X208.5Y-115.75
X210.091Y-111.909
X210.091Y-115.091
X210.75Y-113.5
X122.25Y-138.5
X122.909Y-136.909
X122.909Y-140.091
X124.5Y-136.25
X124.5Y-140.75
X126.091Y-136.909
X126.091Y-140.091
X126.75Y-138.5
T3
X126.96Y-124.26
X126.96Y-126.76
X128.96Y-124.26
X128.96Y-126.76
T4
X164.46Y-110.5
X167.0Y-110.5
X169.54Y-110.5
X172.08Y-110.5
X174.62Y-110.5
X177.16Y-110.5
X152.46Y-110.5
X155.0Y-110.5
X157.54Y-110.5
X160.08Y-110.5
X140.42Y-110.5
X142.96Y-110.5
X145.5Y-110.5
X148.04Y-110.5
X118.26Y-110.5
X120.8Y-110.5
X123.34Y-110.5
X125.88Y-110.5
X128.42Y-110.5
X130.96Y-110.5
X133.5Y-110.5
X136.04Y-110.5
X161.96Y-126.96
X161.96Y-129.5
X164.5Y-126.96
X164.5Y-129.5
X167.04Y-126.96
X167.04Y-129.5
T5
X208.5Y-125.42
X208.5Y-130.5
X121.0Y-147.0
X121.0Y-152.08
X208.5Y-145.42
X208.5Y-150.5
T6
X124.25Y-119.49
X124.25Y-131.53
T7
X145.5Y-152.0
X208.5Y-137.5
X208.5Y-113.5
X124.5Y-138.5
T0
M30
