G04 #@! TF.GenerationSoftware,KiCad,Pcbnew,5.1.5+dfsg1-2~bpo10+1*
G04 #@! TF.CreationDate,2020-05-02T00:01:12+02:00*
G04 #@! TF.ProjectId,reflow-controller,7265666c-6f77-42d6-936f-6e74726f6c6c,rev?*
G04 #@! TF.SameCoordinates,Original*
G04 #@! TF.FileFunction,Soldermask,Top*
G04 #@! TF.FilePolarity,Negative*
%FSLAX46Y46*%
G04 Gerber Fmt 4.6, Leading zero omitted, Abs format (unit mm)*
G04 Created by KiCad (PCBNEW 5.1.5+dfsg1-2~bpo10+1) date 2020-05-02 00:01:12*
%MOMM*%
%LPD*%
G04 APERTURE LIST*
%ADD10C,0.100000*%
G04 APERTURE END LIST*
D10*
G36*
X146389943Y-149066248D02*
G01*
X146945189Y-149296238D01*
X147176806Y-149451000D01*
X147444899Y-149630134D01*
X147869866Y-150055101D01*
X147972265Y-150208352D01*
X148203762Y-150554811D01*
X148433752Y-151110057D01*
X148551000Y-151699501D01*
X148551000Y-152300499D01*
X148433752Y-152889943D01*
X148203762Y-153445189D01*
X148163708Y-153505134D01*
X147869866Y-153944899D01*
X147444899Y-154369866D01*
X147304573Y-154463629D01*
X146945189Y-154703762D01*
X146389943Y-154933752D01*
X145800499Y-155051000D01*
X145199501Y-155051000D01*
X144610057Y-154933752D01*
X144054811Y-154703762D01*
X143695427Y-154463629D01*
X143555101Y-154369866D01*
X143130134Y-153944899D01*
X142836292Y-153505134D01*
X142796238Y-153445189D01*
X142566248Y-152889943D01*
X142449000Y-152300499D01*
X142449000Y-151699501D01*
X142566248Y-151110057D01*
X142796238Y-150554811D01*
X143027735Y-150208352D01*
X143130134Y-150055101D01*
X143555101Y-149630134D01*
X143823194Y-149451000D01*
X144054811Y-149296238D01*
X144610057Y-149066248D01*
X145199501Y-148949000D01*
X145800499Y-148949000D01*
X146389943Y-149066248D01*
G37*
G36*
X164129591Y-153478085D02*
G01*
X164163569Y-153488393D01*
X164194890Y-153505134D01*
X164222339Y-153527661D01*
X164244866Y-153555110D01*
X164261607Y-153586431D01*
X164271915Y-153620409D01*
X164276000Y-153661890D01*
X164276000Y-154338110D01*
X164271915Y-154379591D01*
X164261607Y-154413569D01*
X164244866Y-154444890D01*
X164222339Y-154472339D01*
X164194890Y-154494866D01*
X164163569Y-154511607D01*
X164129591Y-154521915D01*
X164088110Y-154526000D01*
X163486890Y-154526000D01*
X163445409Y-154521915D01*
X163411431Y-154511607D01*
X163380110Y-154494866D01*
X163352661Y-154472339D01*
X163330134Y-154444890D01*
X163313393Y-154413569D01*
X163303085Y-154379591D01*
X163299000Y-154338110D01*
X163299000Y-153661890D01*
X163303085Y-153620409D01*
X163313393Y-153586431D01*
X163330134Y-153555110D01*
X163352661Y-153527661D01*
X163380110Y-153505134D01*
X163411431Y-153488393D01*
X163445409Y-153478085D01*
X163486890Y-153474000D01*
X164088110Y-153474000D01*
X164129591Y-153478085D01*
G37*
G36*
X159054591Y-153478085D02*
G01*
X159088569Y-153488393D01*
X159119890Y-153505134D01*
X159147339Y-153527661D01*
X159169866Y-153555110D01*
X159186607Y-153586431D01*
X159196915Y-153620409D01*
X159201000Y-153661890D01*
X159201000Y-154338110D01*
X159196915Y-154379591D01*
X159186607Y-154413569D01*
X159169866Y-154444890D01*
X159147339Y-154472339D01*
X159119890Y-154494866D01*
X159088569Y-154511607D01*
X159054591Y-154521915D01*
X159013110Y-154526000D01*
X158411890Y-154526000D01*
X158370409Y-154521915D01*
X158336431Y-154511607D01*
X158305110Y-154494866D01*
X158277661Y-154472339D01*
X158255134Y-154444890D01*
X158238393Y-154413569D01*
X158228085Y-154379591D01*
X158224000Y-154338110D01*
X158224000Y-153661890D01*
X158228085Y-153620409D01*
X158238393Y-153586431D01*
X158255134Y-153555110D01*
X158277661Y-153527661D01*
X158305110Y-153505134D01*
X158336431Y-153488393D01*
X158370409Y-153478085D01*
X158411890Y-153474000D01*
X159013110Y-153474000D01*
X159054591Y-153478085D01*
G37*
G36*
X162554591Y-153478085D02*
G01*
X162588569Y-153488393D01*
X162619890Y-153505134D01*
X162647339Y-153527661D01*
X162669866Y-153555110D01*
X162686607Y-153586431D01*
X162696915Y-153620409D01*
X162701000Y-153661890D01*
X162701000Y-154338110D01*
X162696915Y-154379591D01*
X162686607Y-154413569D01*
X162669866Y-154444890D01*
X162647339Y-154472339D01*
X162619890Y-154494866D01*
X162588569Y-154511607D01*
X162554591Y-154521915D01*
X162513110Y-154526000D01*
X161911890Y-154526000D01*
X161870409Y-154521915D01*
X161836431Y-154511607D01*
X161805110Y-154494866D01*
X161777661Y-154472339D01*
X161755134Y-154444890D01*
X161738393Y-154413569D01*
X161728085Y-154379591D01*
X161724000Y-154338110D01*
X161724000Y-153661890D01*
X161728085Y-153620409D01*
X161738393Y-153586431D01*
X161755134Y-153555110D01*
X161777661Y-153527661D01*
X161805110Y-153505134D01*
X161836431Y-153488393D01*
X161870409Y-153478085D01*
X161911890Y-153474000D01*
X162513110Y-153474000D01*
X162554591Y-153478085D01*
G37*
G36*
X160629591Y-153478085D02*
G01*
X160663569Y-153488393D01*
X160694890Y-153505134D01*
X160722339Y-153527661D01*
X160744866Y-153555110D01*
X160761607Y-153586431D01*
X160771915Y-153620409D01*
X160776000Y-153661890D01*
X160776000Y-154338110D01*
X160771915Y-154379591D01*
X160761607Y-154413569D01*
X160744866Y-154444890D01*
X160722339Y-154472339D01*
X160694890Y-154494866D01*
X160663569Y-154511607D01*
X160629591Y-154521915D01*
X160588110Y-154526000D01*
X159986890Y-154526000D01*
X159945409Y-154521915D01*
X159911431Y-154511607D01*
X159880110Y-154494866D01*
X159852661Y-154472339D01*
X159830134Y-154444890D01*
X159813393Y-154413569D01*
X159803085Y-154379591D01*
X159799000Y-154338110D01*
X159799000Y-153661890D01*
X159803085Y-153620409D01*
X159813393Y-153586431D01*
X159830134Y-153555110D01*
X159852661Y-153527661D01*
X159880110Y-153505134D01*
X159911431Y-153488393D01*
X159945409Y-153478085D01*
X159986890Y-153474000D01*
X160588110Y-153474000D01*
X160629591Y-153478085D01*
G37*
G36*
X155501000Y-154401000D02*
G01*
X154499000Y-154401000D01*
X154499000Y-153499000D01*
X155501000Y-153499000D01*
X155501000Y-154401000D01*
G37*
G36*
X168001000Y-154401000D02*
G01*
X166999000Y-154401000D01*
X166999000Y-153499000D01*
X168001000Y-153499000D01*
X168001000Y-154401000D01*
G37*
G36*
X191951000Y-154351000D02*
G01*
X186049000Y-154351000D01*
X186049000Y-147849000D01*
X191951000Y-147849000D01*
X191951000Y-154351000D01*
G37*
G36*
X121282516Y-150554810D02*
G01*
X121452410Y-150588604D01*
X121734674Y-150705521D01*
X121988705Y-150875259D01*
X122204741Y-151091295D01*
X122374479Y-151345326D01*
X122491396Y-151627590D01*
X122551000Y-151927240D01*
X122551000Y-152232760D01*
X122491396Y-152532410D01*
X122374479Y-152814674D01*
X122204741Y-153068705D01*
X121988705Y-153284741D01*
X121734674Y-153454479D01*
X121452410Y-153571396D01*
X121302585Y-153601198D01*
X121152761Y-153631000D01*
X120847239Y-153631000D01*
X120697415Y-153601198D01*
X120547590Y-153571396D01*
X120265326Y-153454479D01*
X120011295Y-153284741D01*
X119795259Y-153068705D01*
X119625521Y-152814674D01*
X119508604Y-152532410D01*
X119449000Y-152232760D01*
X119449000Y-151927240D01*
X119508604Y-151627590D01*
X119625521Y-151345326D01*
X119795259Y-151091295D01*
X120011295Y-150875259D01*
X120265326Y-150705521D01*
X120547590Y-150588604D01*
X120717484Y-150554810D01*
X120847239Y-150529000D01*
X121152761Y-150529000D01*
X121282516Y-150554810D01*
G37*
G36*
X157501000Y-153451000D02*
G01*
X156499000Y-153451000D01*
X156499000Y-152549000D01*
X157501000Y-152549000D01*
X157501000Y-153451000D01*
G37*
G36*
X166001000Y-153451000D02*
G01*
X164999000Y-153451000D01*
X164999000Y-152549000D01*
X166001000Y-152549000D01*
X166001000Y-153451000D01*
G37*
G36*
X203418604Y-151078347D02*
G01*
X203455144Y-151089432D01*
X203488821Y-151107433D01*
X203518341Y-151131659D01*
X203542567Y-151161179D01*
X203560568Y-151194856D01*
X203571653Y-151231396D01*
X203576000Y-151275538D01*
X203576000Y-152724462D01*
X203571653Y-152768604D01*
X203560568Y-152805144D01*
X203542567Y-152838821D01*
X203518341Y-152868341D01*
X203488821Y-152892567D01*
X203455144Y-152910568D01*
X203418604Y-152921653D01*
X203374462Y-152926000D01*
X202425538Y-152926000D01*
X202381396Y-152921653D01*
X202344856Y-152910568D01*
X202311179Y-152892567D01*
X202281659Y-152868341D01*
X202257433Y-152838821D01*
X202239432Y-152805144D01*
X202228347Y-152768604D01*
X202224000Y-152724462D01*
X202224000Y-151275538D01*
X202228347Y-151231396D01*
X202239432Y-151194856D01*
X202257433Y-151161179D01*
X202281659Y-151131659D01*
X202311179Y-151107433D01*
X202344856Y-151089432D01*
X202381396Y-151078347D01*
X202425538Y-151074000D01*
X203374462Y-151074000D01*
X203418604Y-151078347D01*
G37*
G36*
X195618604Y-151078347D02*
G01*
X195655144Y-151089432D01*
X195688821Y-151107433D01*
X195718341Y-151131659D01*
X195742567Y-151161179D01*
X195760568Y-151194856D01*
X195771653Y-151231396D01*
X195776000Y-151275538D01*
X195776000Y-152724462D01*
X195771653Y-152768604D01*
X195760568Y-152805144D01*
X195742567Y-152838821D01*
X195718341Y-152868341D01*
X195688821Y-152892567D01*
X195655144Y-152910568D01*
X195618604Y-152921653D01*
X195574462Y-152926000D01*
X194625538Y-152926000D01*
X194581396Y-152921653D01*
X194544856Y-152910568D01*
X194511179Y-152892567D01*
X194481659Y-152868341D01*
X194457433Y-152838821D01*
X194439432Y-152805144D01*
X194428347Y-152768604D01*
X194424000Y-152724462D01*
X194424000Y-151275538D01*
X194428347Y-151231396D01*
X194439432Y-151194856D01*
X194457433Y-151161179D01*
X194481659Y-151131659D01*
X194511179Y-151107433D01*
X194544856Y-151089432D01*
X194581396Y-151078347D01*
X194625538Y-151074000D01*
X195574462Y-151074000D01*
X195618604Y-151078347D01*
G37*
G36*
X200618604Y-151078347D02*
G01*
X200655144Y-151089432D01*
X200688821Y-151107433D01*
X200718341Y-151131659D01*
X200742567Y-151161179D01*
X200760568Y-151194856D01*
X200771653Y-151231396D01*
X200776000Y-151275538D01*
X200776000Y-152724462D01*
X200771653Y-152768604D01*
X200760568Y-152805144D01*
X200742567Y-152838821D01*
X200718341Y-152868341D01*
X200688821Y-152892567D01*
X200655144Y-152910568D01*
X200618604Y-152921653D01*
X200574462Y-152926000D01*
X199625538Y-152926000D01*
X199581396Y-152921653D01*
X199544856Y-152910568D01*
X199511179Y-152892567D01*
X199481659Y-152868341D01*
X199457433Y-152838821D01*
X199439432Y-152805144D01*
X199428347Y-152768604D01*
X199424000Y-152724462D01*
X199424000Y-151275538D01*
X199428347Y-151231396D01*
X199439432Y-151194856D01*
X199457433Y-151161179D01*
X199481659Y-151131659D01*
X199511179Y-151107433D01*
X199544856Y-151089432D01*
X199581396Y-151078347D01*
X199625538Y-151074000D01*
X200574462Y-151074000D01*
X200618604Y-151078347D01*
G37*
G36*
X198418604Y-151078347D02*
G01*
X198455144Y-151089432D01*
X198488821Y-151107433D01*
X198518341Y-151131659D01*
X198542567Y-151161179D01*
X198560568Y-151194856D01*
X198571653Y-151231396D01*
X198576000Y-151275538D01*
X198576000Y-152724462D01*
X198571653Y-152768604D01*
X198560568Y-152805144D01*
X198542567Y-152838821D01*
X198518341Y-152868341D01*
X198488821Y-152892567D01*
X198455144Y-152910568D01*
X198418604Y-152921653D01*
X198374462Y-152926000D01*
X197425538Y-152926000D01*
X197381396Y-152921653D01*
X197344856Y-152910568D01*
X197311179Y-152892567D01*
X197281659Y-152868341D01*
X197257433Y-152838821D01*
X197239432Y-152805144D01*
X197228347Y-152768604D01*
X197224000Y-152724462D01*
X197224000Y-151275538D01*
X197228347Y-151231396D01*
X197239432Y-151194856D01*
X197257433Y-151161179D01*
X197281659Y-151131659D01*
X197311179Y-151107433D01*
X197344856Y-151089432D01*
X197381396Y-151078347D01*
X197425538Y-151074000D01*
X198374462Y-151074000D01*
X198418604Y-151078347D01*
G37*
G36*
X160629591Y-151478085D02*
G01*
X160663569Y-151488393D01*
X160694890Y-151505134D01*
X160722339Y-151527661D01*
X160744866Y-151555110D01*
X160761607Y-151586431D01*
X160771915Y-151620409D01*
X160776000Y-151661890D01*
X160776000Y-152338110D01*
X160771915Y-152379591D01*
X160761607Y-152413569D01*
X160744866Y-152444890D01*
X160722339Y-152472339D01*
X160694890Y-152494866D01*
X160663569Y-152511607D01*
X160629591Y-152521915D01*
X160588110Y-152526000D01*
X159986890Y-152526000D01*
X159945409Y-152521915D01*
X159911431Y-152511607D01*
X159880110Y-152494866D01*
X159852661Y-152472339D01*
X159830134Y-152444890D01*
X159813393Y-152413569D01*
X159803085Y-152379591D01*
X159799000Y-152338110D01*
X159799000Y-151661890D01*
X159803085Y-151620409D01*
X159813393Y-151586431D01*
X159830134Y-151555110D01*
X159852661Y-151527661D01*
X159880110Y-151505134D01*
X159911431Y-151488393D01*
X159945409Y-151478085D01*
X159986890Y-151474000D01*
X160588110Y-151474000D01*
X160629591Y-151478085D01*
G37*
G36*
X164129591Y-151478085D02*
G01*
X164163569Y-151488393D01*
X164194890Y-151505134D01*
X164222339Y-151527661D01*
X164244866Y-151555110D01*
X164261607Y-151586431D01*
X164271915Y-151620409D01*
X164276000Y-151661890D01*
X164276000Y-152338110D01*
X164271915Y-152379591D01*
X164261607Y-152413569D01*
X164244866Y-152444890D01*
X164222339Y-152472339D01*
X164194890Y-152494866D01*
X164163569Y-152511607D01*
X164129591Y-152521915D01*
X164088110Y-152526000D01*
X163486890Y-152526000D01*
X163445409Y-152521915D01*
X163411431Y-152511607D01*
X163380110Y-152494866D01*
X163352661Y-152472339D01*
X163330134Y-152444890D01*
X163313393Y-152413569D01*
X163303085Y-152379591D01*
X163299000Y-152338110D01*
X163299000Y-151661890D01*
X163303085Y-151620409D01*
X163313393Y-151586431D01*
X163330134Y-151555110D01*
X163352661Y-151527661D01*
X163380110Y-151505134D01*
X163411431Y-151488393D01*
X163445409Y-151478085D01*
X163486890Y-151474000D01*
X164088110Y-151474000D01*
X164129591Y-151478085D01*
G37*
G36*
X162554591Y-151478085D02*
G01*
X162588569Y-151488393D01*
X162619890Y-151505134D01*
X162647339Y-151527661D01*
X162669866Y-151555110D01*
X162686607Y-151586431D01*
X162696915Y-151620409D01*
X162701000Y-151661890D01*
X162701000Y-152338110D01*
X162696915Y-152379591D01*
X162686607Y-152413569D01*
X162669866Y-152444890D01*
X162647339Y-152472339D01*
X162619890Y-152494866D01*
X162588569Y-152511607D01*
X162554591Y-152521915D01*
X162513110Y-152526000D01*
X161911890Y-152526000D01*
X161870409Y-152521915D01*
X161836431Y-152511607D01*
X161805110Y-152494866D01*
X161777661Y-152472339D01*
X161755134Y-152444890D01*
X161738393Y-152413569D01*
X161728085Y-152379591D01*
X161724000Y-152338110D01*
X161724000Y-151661890D01*
X161728085Y-151620409D01*
X161738393Y-151586431D01*
X161755134Y-151555110D01*
X161777661Y-151527661D01*
X161805110Y-151505134D01*
X161836431Y-151488393D01*
X161870409Y-151478085D01*
X161911890Y-151474000D01*
X162513110Y-151474000D01*
X162554591Y-151478085D01*
G37*
G36*
X159054591Y-151478085D02*
G01*
X159088569Y-151488393D01*
X159119890Y-151505134D01*
X159147339Y-151527661D01*
X159169866Y-151555110D01*
X159186607Y-151586431D01*
X159196915Y-151620409D01*
X159201000Y-151661890D01*
X159201000Y-152338110D01*
X159196915Y-152379591D01*
X159186607Y-152413569D01*
X159169866Y-152444890D01*
X159147339Y-152472339D01*
X159119890Y-152494866D01*
X159088569Y-152511607D01*
X159054591Y-152521915D01*
X159013110Y-152526000D01*
X158411890Y-152526000D01*
X158370409Y-152521915D01*
X158336431Y-152511607D01*
X158305110Y-152494866D01*
X158277661Y-152472339D01*
X158255134Y-152444890D01*
X158238393Y-152413569D01*
X158228085Y-152379591D01*
X158224000Y-152338110D01*
X158224000Y-151661890D01*
X158228085Y-151620409D01*
X158238393Y-151586431D01*
X158255134Y-151555110D01*
X158277661Y-151527661D01*
X158305110Y-151505134D01*
X158336431Y-151488393D01*
X158370409Y-151478085D01*
X158411890Y-151474000D01*
X159013110Y-151474000D01*
X159054591Y-151478085D01*
G37*
G36*
X168001000Y-152501000D02*
G01*
X166999000Y-152501000D01*
X166999000Y-151599000D01*
X168001000Y-151599000D01*
X168001000Y-152501000D01*
G37*
G36*
X155501000Y-152501000D02*
G01*
X154499000Y-152501000D01*
X154499000Y-151599000D01*
X155501000Y-151599000D01*
X155501000Y-152501000D01*
G37*
G36*
X210051000Y-152051000D02*
G01*
X206949000Y-152051000D01*
X206949000Y-148949000D01*
X210051000Y-148949000D01*
X210051000Y-152051000D01*
G37*
G36*
X129129591Y-149978085D02*
G01*
X129163569Y-149988393D01*
X129194890Y-150005134D01*
X129222339Y-150027661D01*
X129244866Y-150055110D01*
X129261607Y-150086431D01*
X129271915Y-150120409D01*
X129276000Y-150161890D01*
X129276000Y-150838110D01*
X129271915Y-150879591D01*
X129261607Y-150913569D01*
X129244866Y-150944890D01*
X129222339Y-150972339D01*
X129194890Y-150994866D01*
X129163569Y-151011607D01*
X129129591Y-151021915D01*
X129088110Y-151026000D01*
X128486890Y-151026000D01*
X128445409Y-151021915D01*
X128411431Y-151011607D01*
X128380110Y-150994866D01*
X128352661Y-150972339D01*
X128330134Y-150944890D01*
X128313393Y-150913569D01*
X128303085Y-150879591D01*
X128299000Y-150838110D01*
X128299000Y-150161890D01*
X128303085Y-150120409D01*
X128313393Y-150086431D01*
X128330134Y-150055110D01*
X128352661Y-150027661D01*
X128380110Y-150005134D01*
X128411431Y-149988393D01*
X128445409Y-149978085D01*
X128486890Y-149974000D01*
X129088110Y-149974000D01*
X129129591Y-149978085D01*
G37*
G36*
X127554591Y-149978085D02*
G01*
X127588569Y-149988393D01*
X127619890Y-150005134D01*
X127647339Y-150027661D01*
X127669866Y-150055110D01*
X127686607Y-150086431D01*
X127696915Y-150120409D01*
X127701000Y-150161890D01*
X127701000Y-150838110D01*
X127696915Y-150879591D01*
X127686607Y-150913569D01*
X127669866Y-150944890D01*
X127647339Y-150972339D01*
X127619890Y-150994866D01*
X127588569Y-151011607D01*
X127554591Y-151021915D01*
X127513110Y-151026000D01*
X126911890Y-151026000D01*
X126870409Y-151021915D01*
X126836431Y-151011607D01*
X126805110Y-150994866D01*
X126777661Y-150972339D01*
X126755134Y-150944890D01*
X126738393Y-150913569D01*
X126728085Y-150879591D01*
X126724000Y-150838110D01*
X126724000Y-150161890D01*
X126728085Y-150120409D01*
X126738393Y-150086431D01*
X126755134Y-150055110D01*
X126777661Y-150027661D01*
X126805110Y-150005134D01*
X126836431Y-149988393D01*
X126870409Y-149978085D01*
X126911890Y-149974000D01*
X127513110Y-149974000D01*
X127554591Y-149978085D01*
G37*
G36*
X164129591Y-149478085D02*
G01*
X164163569Y-149488393D01*
X164194890Y-149505134D01*
X164222339Y-149527661D01*
X164244866Y-149555110D01*
X164261607Y-149586431D01*
X164271915Y-149620409D01*
X164276000Y-149661890D01*
X164276000Y-150338110D01*
X164271915Y-150379591D01*
X164261607Y-150413569D01*
X164244866Y-150444890D01*
X164222339Y-150472339D01*
X164194890Y-150494866D01*
X164163569Y-150511607D01*
X164129591Y-150521915D01*
X164088110Y-150526000D01*
X163486890Y-150526000D01*
X163445409Y-150521915D01*
X163411431Y-150511607D01*
X163380110Y-150494866D01*
X163352661Y-150472339D01*
X163330134Y-150444890D01*
X163313393Y-150413569D01*
X163303085Y-150379591D01*
X163299000Y-150338110D01*
X163299000Y-149661890D01*
X163303085Y-149620409D01*
X163313393Y-149586431D01*
X163330134Y-149555110D01*
X163352661Y-149527661D01*
X163380110Y-149505134D01*
X163411431Y-149488393D01*
X163445409Y-149478085D01*
X163486890Y-149474000D01*
X164088110Y-149474000D01*
X164129591Y-149478085D01*
G37*
G36*
X162554591Y-149478085D02*
G01*
X162588569Y-149488393D01*
X162619890Y-149505134D01*
X162647339Y-149527661D01*
X162669866Y-149555110D01*
X162686607Y-149586431D01*
X162696915Y-149620409D01*
X162701000Y-149661890D01*
X162701000Y-150338110D01*
X162696915Y-150379591D01*
X162686607Y-150413569D01*
X162669866Y-150444890D01*
X162647339Y-150472339D01*
X162619890Y-150494866D01*
X162588569Y-150511607D01*
X162554591Y-150521915D01*
X162513110Y-150526000D01*
X161911890Y-150526000D01*
X161870409Y-150521915D01*
X161836431Y-150511607D01*
X161805110Y-150494866D01*
X161777661Y-150472339D01*
X161755134Y-150444890D01*
X161738393Y-150413569D01*
X161728085Y-150379591D01*
X161724000Y-150338110D01*
X161724000Y-149661890D01*
X161728085Y-149620409D01*
X161738393Y-149586431D01*
X161755134Y-149555110D01*
X161777661Y-149527661D01*
X161805110Y-149505134D01*
X161836431Y-149488393D01*
X161870409Y-149478085D01*
X161911890Y-149474000D01*
X162513110Y-149474000D01*
X162554591Y-149478085D01*
G37*
G36*
X160629591Y-149478085D02*
G01*
X160663569Y-149488393D01*
X160694890Y-149505134D01*
X160722339Y-149527661D01*
X160744866Y-149555110D01*
X160761607Y-149586431D01*
X160771915Y-149620409D01*
X160776000Y-149661890D01*
X160776000Y-150338110D01*
X160771915Y-150379591D01*
X160761607Y-150413569D01*
X160744866Y-150444890D01*
X160722339Y-150472339D01*
X160694890Y-150494866D01*
X160663569Y-150511607D01*
X160629591Y-150521915D01*
X160588110Y-150526000D01*
X159986890Y-150526000D01*
X159945409Y-150521915D01*
X159911431Y-150511607D01*
X159880110Y-150494866D01*
X159852661Y-150472339D01*
X159830134Y-150444890D01*
X159813393Y-150413569D01*
X159803085Y-150379591D01*
X159799000Y-150338110D01*
X159799000Y-149661890D01*
X159803085Y-149620409D01*
X159813393Y-149586431D01*
X159830134Y-149555110D01*
X159852661Y-149527661D01*
X159880110Y-149505134D01*
X159911431Y-149488393D01*
X159945409Y-149478085D01*
X159986890Y-149474000D01*
X160588110Y-149474000D01*
X160629591Y-149478085D01*
G37*
G36*
X159054591Y-149478085D02*
G01*
X159088569Y-149488393D01*
X159119890Y-149505134D01*
X159147339Y-149527661D01*
X159169866Y-149555110D01*
X159186607Y-149586431D01*
X159196915Y-149620409D01*
X159201000Y-149661890D01*
X159201000Y-150338110D01*
X159196915Y-150379591D01*
X159186607Y-150413569D01*
X159169866Y-150444890D01*
X159147339Y-150472339D01*
X159119890Y-150494866D01*
X159088569Y-150511607D01*
X159054591Y-150521915D01*
X159013110Y-150526000D01*
X158411890Y-150526000D01*
X158370409Y-150521915D01*
X158336431Y-150511607D01*
X158305110Y-150494866D01*
X158277661Y-150472339D01*
X158255134Y-150444890D01*
X158238393Y-150413569D01*
X158228085Y-150379591D01*
X158224000Y-150338110D01*
X158224000Y-149661890D01*
X158228085Y-149620409D01*
X158238393Y-149586431D01*
X158255134Y-149555110D01*
X158277661Y-149527661D01*
X158305110Y-149505134D01*
X158336431Y-149488393D01*
X158370409Y-149478085D01*
X158411890Y-149474000D01*
X159013110Y-149474000D01*
X159054591Y-149478085D01*
G37*
G36*
X203418604Y-148578347D02*
G01*
X203455144Y-148589432D01*
X203488821Y-148607433D01*
X203518341Y-148631659D01*
X203542567Y-148661179D01*
X203560568Y-148694856D01*
X203571653Y-148731396D01*
X203576000Y-148775538D01*
X203576000Y-150224462D01*
X203571653Y-150268604D01*
X203560568Y-150305144D01*
X203542567Y-150338821D01*
X203518341Y-150368341D01*
X203488821Y-150392567D01*
X203455144Y-150410568D01*
X203418604Y-150421653D01*
X203374462Y-150426000D01*
X202425538Y-150426000D01*
X202381396Y-150421653D01*
X202344856Y-150410568D01*
X202311179Y-150392567D01*
X202281659Y-150368341D01*
X202257433Y-150338821D01*
X202239432Y-150305144D01*
X202228347Y-150268604D01*
X202224000Y-150224462D01*
X202224000Y-148775538D01*
X202228347Y-148731396D01*
X202239432Y-148694856D01*
X202257433Y-148661179D01*
X202281659Y-148631659D01*
X202311179Y-148607433D01*
X202344856Y-148589432D01*
X202381396Y-148578347D01*
X202425538Y-148574000D01*
X203374462Y-148574000D01*
X203418604Y-148578347D01*
G37*
G36*
X200618604Y-148578347D02*
G01*
X200655144Y-148589432D01*
X200688821Y-148607433D01*
X200718341Y-148631659D01*
X200742567Y-148661179D01*
X200760568Y-148694856D01*
X200771653Y-148731396D01*
X200776000Y-148775538D01*
X200776000Y-150224462D01*
X200771653Y-150268604D01*
X200760568Y-150305144D01*
X200742567Y-150338821D01*
X200718341Y-150368341D01*
X200688821Y-150392567D01*
X200655144Y-150410568D01*
X200618604Y-150421653D01*
X200574462Y-150426000D01*
X199625538Y-150426000D01*
X199581396Y-150421653D01*
X199544856Y-150410568D01*
X199511179Y-150392567D01*
X199481659Y-150368341D01*
X199457433Y-150338821D01*
X199439432Y-150305144D01*
X199428347Y-150268604D01*
X199424000Y-150224462D01*
X199424000Y-148775538D01*
X199428347Y-148731396D01*
X199439432Y-148694856D01*
X199457433Y-148661179D01*
X199481659Y-148631659D01*
X199511179Y-148607433D01*
X199544856Y-148589432D01*
X199581396Y-148578347D01*
X199625538Y-148574000D01*
X200574462Y-148574000D01*
X200618604Y-148578347D01*
G37*
G36*
X198418604Y-148578347D02*
G01*
X198455144Y-148589432D01*
X198488821Y-148607433D01*
X198518341Y-148631659D01*
X198542567Y-148661179D01*
X198560568Y-148694856D01*
X198571653Y-148731396D01*
X198576000Y-148775538D01*
X198576000Y-150224462D01*
X198571653Y-150268604D01*
X198560568Y-150305144D01*
X198542567Y-150338821D01*
X198518341Y-150368341D01*
X198488821Y-150392567D01*
X198455144Y-150410568D01*
X198418604Y-150421653D01*
X198374462Y-150426000D01*
X197425538Y-150426000D01*
X197381396Y-150421653D01*
X197344856Y-150410568D01*
X197311179Y-150392567D01*
X197281659Y-150368341D01*
X197257433Y-150338821D01*
X197239432Y-150305144D01*
X197228347Y-150268604D01*
X197224000Y-150224462D01*
X197224000Y-148775538D01*
X197228347Y-148731396D01*
X197239432Y-148694856D01*
X197257433Y-148661179D01*
X197281659Y-148631659D01*
X197311179Y-148607433D01*
X197344856Y-148589432D01*
X197381396Y-148578347D01*
X197425538Y-148574000D01*
X198374462Y-148574000D01*
X198418604Y-148578347D01*
G37*
G36*
X195618604Y-148578347D02*
G01*
X195655144Y-148589432D01*
X195688821Y-148607433D01*
X195718341Y-148631659D01*
X195742567Y-148661179D01*
X195760568Y-148694856D01*
X195771653Y-148731396D01*
X195776000Y-148775538D01*
X195776000Y-150224462D01*
X195771653Y-150268604D01*
X195760568Y-150305144D01*
X195742567Y-150338821D01*
X195718341Y-150368341D01*
X195688821Y-150392567D01*
X195655144Y-150410568D01*
X195618604Y-150421653D01*
X195574462Y-150426000D01*
X194625538Y-150426000D01*
X194581396Y-150421653D01*
X194544856Y-150410568D01*
X194511179Y-150392567D01*
X194481659Y-150368341D01*
X194457433Y-150338821D01*
X194439432Y-150305144D01*
X194428347Y-150268604D01*
X194424000Y-150224462D01*
X194424000Y-148775538D01*
X194428347Y-148731396D01*
X194439432Y-148694856D01*
X194457433Y-148661179D01*
X194481659Y-148631659D01*
X194511179Y-148607433D01*
X194544856Y-148589432D01*
X194581396Y-148578347D01*
X194625538Y-148574000D01*
X195574462Y-148574000D01*
X195618604Y-148578347D01*
G37*
G36*
X168001000Y-150401000D02*
G01*
X166999000Y-150401000D01*
X166999000Y-149499000D01*
X168001000Y-149499000D01*
X168001000Y-150401000D01*
G37*
G36*
X155501000Y-150401000D02*
G01*
X154499000Y-150401000D01*
X154499000Y-149499000D01*
X155501000Y-149499000D01*
X155501000Y-150401000D01*
G37*
G36*
X166001000Y-149451000D02*
G01*
X164999000Y-149451000D01*
X164999000Y-148549000D01*
X166001000Y-148549000D01*
X166001000Y-149451000D01*
G37*
G36*
X157501000Y-149451000D02*
G01*
X156499000Y-149451000D01*
X156499000Y-148549000D01*
X157501000Y-148549000D01*
X157501000Y-149451000D01*
G37*
G36*
X133026000Y-149256000D02*
G01*
X131374000Y-149256000D01*
X131374000Y-148554000D01*
X133026000Y-148554000D01*
X133026000Y-149256000D01*
G37*
G36*
X127626000Y-149256000D02*
G01*
X125974000Y-149256000D01*
X125974000Y-148554000D01*
X127626000Y-148554000D01*
X127626000Y-149256000D01*
G37*
G36*
X122551000Y-148551000D02*
G01*
X119449000Y-148551000D01*
X119449000Y-145449000D01*
X122551000Y-145449000D01*
X122551000Y-148551000D01*
G37*
G36*
X164129591Y-147478085D02*
G01*
X164163569Y-147488393D01*
X164194890Y-147505134D01*
X164222339Y-147527661D01*
X164244866Y-147555110D01*
X164261607Y-147586431D01*
X164271915Y-147620409D01*
X164276000Y-147661890D01*
X164276000Y-148338110D01*
X164271915Y-148379591D01*
X164261607Y-148413569D01*
X164244866Y-148444890D01*
X164222339Y-148472339D01*
X164194890Y-148494866D01*
X164163569Y-148511607D01*
X164129591Y-148521915D01*
X164088110Y-148526000D01*
X163486890Y-148526000D01*
X163445409Y-148521915D01*
X163411431Y-148511607D01*
X163380110Y-148494866D01*
X163352661Y-148472339D01*
X163330134Y-148444890D01*
X163313393Y-148413569D01*
X163303085Y-148379591D01*
X163299000Y-148338110D01*
X163299000Y-147661890D01*
X163303085Y-147620409D01*
X163313393Y-147586431D01*
X163330134Y-147555110D01*
X163352661Y-147527661D01*
X163380110Y-147505134D01*
X163411431Y-147488393D01*
X163445409Y-147478085D01*
X163486890Y-147474000D01*
X164088110Y-147474000D01*
X164129591Y-147478085D01*
G37*
G36*
X159054591Y-147478085D02*
G01*
X159088569Y-147488393D01*
X159119890Y-147505134D01*
X159147339Y-147527661D01*
X159169866Y-147555110D01*
X159186607Y-147586431D01*
X159196915Y-147620409D01*
X159201000Y-147661890D01*
X159201000Y-148338110D01*
X159196915Y-148379591D01*
X159186607Y-148413569D01*
X159169866Y-148444890D01*
X159147339Y-148472339D01*
X159119890Y-148494866D01*
X159088569Y-148511607D01*
X159054591Y-148521915D01*
X159013110Y-148526000D01*
X158411890Y-148526000D01*
X158370409Y-148521915D01*
X158336431Y-148511607D01*
X158305110Y-148494866D01*
X158277661Y-148472339D01*
X158255134Y-148444890D01*
X158238393Y-148413569D01*
X158228085Y-148379591D01*
X158224000Y-148338110D01*
X158224000Y-147661890D01*
X158228085Y-147620409D01*
X158238393Y-147586431D01*
X158255134Y-147555110D01*
X158277661Y-147527661D01*
X158305110Y-147505134D01*
X158336431Y-147488393D01*
X158370409Y-147478085D01*
X158411890Y-147474000D01*
X159013110Y-147474000D01*
X159054591Y-147478085D01*
G37*
G36*
X160629591Y-147478085D02*
G01*
X160663569Y-147488393D01*
X160694890Y-147505134D01*
X160722339Y-147527661D01*
X160744866Y-147555110D01*
X160761607Y-147586431D01*
X160771915Y-147620409D01*
X160776000Y-147661890D01*
X160776000Y-148338110D01*
X160771915Y-148379591D01*
X160761607Y-148413569D01*
X160744866Y-148444890D01*
X160722339Y-148472339D01*
X160694890Y-148494866D01*
X160663569Y-148511607D01*
X160629591Y-148521915D01*
X160588110Y-148526000D01*
X159986890Y-148526000D01*
X159945409Y-148521915D01*
X159911431Y-148511607D01*
X159880110Y-148494866D01*
X159852661Y-148472339D01*
X159830134Y-148444890D01*
X159813393Y-148413569D01*
X159803085Y-148379591D01*
X159799000Y-148338110D01*
X159799000Y-147661890D01*
X159803085Y-147620409D01*
X159813393Y-147586431D01*
X159830134Y-147555110D01*
X159852661Y-147527661D01*
X159880110Y-147505134D01*
X159911431Y-147488393D01*
X159945409Y-147478085D01*
X159986890Y-147474000D01*
X160588110Y-147474000D01*
X160629591Y-147478085D01*
G37*
G36*
X162554591Y-147478085D02*
G01*
X162588569Y-147488393D01*
X162619890Y-147505134D01*
X162647339Y-147527661D01*
X162669866Y-147555110D01*
X162686607Y-147586431D01*
X162696915Y-147620409D01*
X162701000Y-147661890D01*
X162701000Y-148338110D01*
X162696915Y-148379591D01*
X162686607Y-148413569D01*
X162669866Y-148444890D01*
X162647339Y-148472339D01*
X162619890Y-148494866D01*
X162588569Y-148511607D01*
X162554591Y-148521915D01*
X162513110Y-148526000D01*
X161911890Y-148526000D01*
X161870409Y-148521915D01*
X161836431Y-148511607D01*
X161805110Y-148494866D01*
X161777661Y-148472339D01*
X161755134Y-148444890D01*
X161738393Y-148413569D01*
X161728085Y-148379591D01*
X161724000Y-148338110D01*
X161724000Y-147661890D01*
X161728085Y-147620409D01*
X161738393Y-147586431D01*
X161755134Y-147555110D01*
X161777661Y-147527661D01*
X161805110Y-147505134D01*
X161836431Y-147488393D01*
X161870409Y-147478085D01*
X161911890Y-147474000D01*
X162513110Y-147474000D01*
X162554591Y-147478085D01*
G37*
G36*
X155501000Y-148501000D02*
G01*
X154499000Y-148501000D01*
X154499000Y-147599000D01*
X155501000Y-147599000D01*
X155501000Y-148501000D01*
G37*
G36*
X168001000Y-148501000D02*
G01*
X166999000Y-148501000D01*
X166999000Y-147599000D01*
X168001000Y-147599000D01*
X168001000Y-148501000D01*
G37*
G36*
X133026000Y-147986000D02*
G01*
X131374000Y-147986000D01*
X131374000Y-147284000D01*
X133026000Y-147284000D01*
X133026000Y-147986000D01*
G37*
G36*
X127626000Y-147986000D02*
G01*
X125974000Y-147986000D01*
X125974000Y-147284000D01*
X127626000Y-147284000D01*
X127626000Y-147986000D01*
G37*
G36*
X195618604Y-146078347D02*
G01*
X195655144Y-146089432D01*
X195688821Y-146107433D01*
X195718341Y-146131659D01*
X195742567Y-146161179D01*
X195760568Y-146194856D01*
X195771653Y-146231396D01*
X195776000Y-146275538D01*
X195776000Y-147724462D01*
X195771653Y-147768604D01*
X195760568Y-147805144D01*
X195742567Y-147838821D01*
X195718341Y-147868341D01*
X195688821Y-147892567D01*
X195655144Y-147910568D01*
X195618604Y-147921653D01*
X195574462Y-147926000D01*
X194625538Y-147926000D01*
X194581396Y-147921653D01*
X194544856Y-147910568D01*
X194511179Y-147892567D01*
X194481659Y-147868341D01*
X194457433Y-147838821D01*
X194439432Y-147805144D01*
X194428347Y-147768604D01*
X194424000Y-147724462D01*
X194424000Y-146275538D01*
X194428347Y-146231396D01*
X194439432Y-146194856D01*
X194457433Y-146161179D01*
X194481659Y-146131659D01*
X194511179Y-146107433D01*
X194544856Y-146089432D01*
X194581396Y-146078347D01*
X194625538Y-146074000D01*
X195574462Y-146074000D01*
X195618604Y-146078347D01*
G37*
G36*
X198418604Y-146078347D02*
G01*
X198455144Y-146089432D01*
X198488821Y-146107433D01*
X198518341Y-146131659D01*
X198542567Y-146161179D01*
X198560568Y-146194856D01*
X198571653Y-146231396D01*
X198576000Y-146275538D01*
X198576000Y-147724462D01*
X198571653Y-147768604D01*
X198560568Y-147805144D01*
X198542567Y-147838821D01*
X198518341Y-147868341D01*
X198488821Y-147892567D01*
X198455144Y-147910568D01*
X198418604Y-147921653D01*
X198374462Y-147926000D01*
X197425538Y-147926000D01*
X197381396Y-147921653D01*
X197344856Y-147910568D01*
X197311179Y-147892567D01*
X197281659Y-147868341D01*
X197257433Y-147838821D01*
X197239432Y-147805144D01*
X197228347Y-147768604D01*
X197224000Y-147724462D01*
X197224000Y-146275538D01*
X197228347Y-146231396D01*
X197239432Y-146194856D01*
X197257433Y-146161179D01*
X197281659Y-146131659D01*
X197311179Y-146107433D01*
X197344856Y-146089432D01*
X197381396Y-146078347D01*
X197425538Y-146074000D01*
X198374462Y-146074000D01*
X198418604Y-146078347D01*
G37*
G36*
X208706005Y-143879591D02*
G01*
X208952410Y-143928604D01*
X209234674Y-144045521D01*
X209488705Y-144215259D01*
X209704741Y-144431295D01*
X209874479Y-144685326D01*
X209991396Y-144967590D01*
X210002081Y-145021307D01*
X210049377Y-145259078D01*
X210051000Y-145267240D01*
X210051000Y-145572760D01*
X209991396Y-145872410D01*
X209874479Y-146154674D01*
X209704741Y-146408705D01*
X209488705Y-146624741D01*
X209234674Y-146794479D01*
X208952410Y-146911396D01*
X208802585Y-146941198D01*
X208652761Y-146971000D01*
X208347239Y-146971000D01*
X208197415Y-146941198D01*
X208047590Y-146911396D01*
X207765326Y-146794479D01*
X207511295Y-146624741D01*
X207295259Y-146408705D01*
X207125521Y-146154674D01*
X207008604Y-145872410D01*
X206949000Y-145572760D01*
X206949000Y-145267240D01*
X206950624Y-145259078D01*
X206997919Y-145021307D01*
X207008604Y-144967590D01*
X207125521Y-144685326D01*
X207295259Y-144431295D01*
X207511295Y-144215259D01*
X207765326Y-144045521D01*
X208047590Y-143928604D01*
X208293995Y-143879591D01*
X208347239Y-143869000D01*
X208652761Y-143869000D01*
X208706005Y-143879591D01*
G37*
G36*
X127626000Y-146716000D02*
G01*
X125974000Y-146716000D01*
X125974000Y-146014000D01*
X127626000Y-146014000D01*
X127626000Y-146716000D01*
G37*
G36*
X133026000Y-146716000D02*
G01*
X131374000Y-146716000D01*
X131374000Y-146014000D01*
X133026000Y-146014000D01*
X133026000Y-146716000D01*
G37*
G36*
X146551000Y-146426000D02*
G01*
X145449000Y-146426000D01*
X145449000Y-143744000D01*
X146551000Y-143744000D01*
X146551000Y-146426000D01*
G37*
G36*
X140551000Y-146426000D02*
G01*
X139449000Y-146426000D01*
X139449000Y-143744000D01*
X140551000Y-143744000D01*
X140551000Y-146426000D01*
G37*
G36*
X142551000Y-146426000D02*
G01*
X141449000Y-146426000D01*
X141449000Y-143744000D01*
X142551000Y-143744000D01*
X142551000Y-146426000D01*
G37*
G36*
X144551000Y-146426000D02*
G01*
X143449000Y-146426000D01*
X143449000Y-143744000D01*
X144551000Y-143744000D01*
X144551000Y-146426000D01*
G37*
G36*
X148551000Y-146426000D02*
G01*
X147449000Y-146426000D01*
X147449000Y-143744000D01*
X148551000Y-143744000D01*
X148551000Y-146426000D01*
G37*
G36*
X150551000Y-146426000D02*
G01*
X149449000Y-146426000D01*
X149449000Y-143744000D01*
X150551000Y-143744000D01*
X150551000Y-146426000D01*
G37*
G36*
X152551000Y-146426000D02*
G01*
X151449000Y-146426000D01*
X151449000Y-143744000D01*
X152551000Y-143744000D01*
X152551000Y-146426000D01*
G37*
G36*
X191931000Y-145951000D02*
G01*
X190629000Y-145951000D01*
X190629000Y-143649000D01*
X191931000Y-143649000D01*
X191931000Y-145951000D01*
G37*
G36*
X187371000Y-145951000D02*
G01*
X186069000Y-145951000D01*
X186069000Y-143649000D01*
X187371000Y-143649000D01*
X187371000Y-145951000D01*
G37*
G36*
X127626000Y-145446000D02*
G01*
X125974000Y-145446000D01*
X125974000Y-144744000D01*
X127626000Y-144744000D01*
X127626000Y-145446000D01*
G37*
G36*
X133026000Y-145446000D02*
G01*
X131374000Y-145446000D01*
X131374000Y-144744000D01*
X133026000Y-144744000D01*
X133026000Y-145446000D01*
G37*
G36*
X195618604Y-143578347D02*
G01*
X195655144Y-143589432D01*
X195688821Y-143607433D01*
X195718341Y-143631659D01*
X195742567Y-143661179D01*
X195760568Y-143694856D01*
X195771653Y-143731396D01*
X195776000Y-143775538D01*
X195776000Y-145224462D01*
X195771653Y-145268604D01*
X195760568Y-145305144D01*
X195742567Y-145338821D01*
X195718341Y-145368341D01*
X195688821Y-145392567D01*
X195655144Y-145410568D01*
X195618604Y-145421653D01*
X195574462Y-145426000D01*
X194625538Y-145426000D01*
X194581396Y-145421653D01*
X194544856Y-145410568D01*
X194511179Y-145392567D01*
X194481659Y-145368341D01*
X194457433Y-145338821D01*
X194439432Y-145305144D01*
X194428347Y-145268604D01*
X194424000Y-145224462D01*
X194424000Y-143775538D01*
X194428347Y-143731396D01*
X194439432Y-143694856D01*
X194457433Y-143661179D01*
X194481659Y-143631659D01*
X194511179Y-143607433D01*
X194544856Y-143589432D01*
X194581396Y-143578347D01*
X194625538Y-143574000D01*
X195574462Y-143574000D01*
X195618604Y-143578347D01*
G37*
G36*
X198418604Y-143578347D02*
G01*
X198455144Y-143589432D01*
X198488821Y-143607433D01*
X198518341Y-143631659D01*
X198542567Y-143661179D01*
X198560568Y-143694856D01*
X198571653Y-143731396D01*
X198576000Y-143775538D01*
X198576000Y-145224462D01*
X198571653Y-145268604D01*
X198560568Y-145305144D01*
X198542567Y-145338821D01*
X198518341Y-145368341D01*
X198488821Y-145392567D01*
X198455144Y-145410568D01*
X198418604Y-145421653D01*
X198374462Y-145426000D01*
X197425538Y-145426000D01*
X197381396Y-145421653D01*
X197344856Y-145410568D01*
X197311179Y-145392567D01*
X197281659Y-145368341D01*
X197257433Y-145338821D01*
X197239432Y-145305144D01*
X197228347Y-145268604D01*
X197224000Y-145224462D01*
X197224000Y-143775538D01*
X197228347Y-143731396D01*
X197239432Y-143694856D01*
X197257433Y-143661179D01*
X197281659Y-143631659D01*
X197311179Y-143607433D01*
X197344856Y-143589432D01*
X197381396Y-143578347D01*
X197425538Y-143574000D01*
X198374462Y-143574000D01*
X198418604Y-143578347D01*
G37*
G36*
X201629591Y-143978085D02*
G01*
X201663569Y-143988393D01*
X201694890Y-144005134D01*
X201722339Y-144027661D01*
X201744866Y-144055110D01*
X201761607Y-144086431D01*
X201771915Y-144120409D01*
X201776000Y-144161890D01*
X201776000Y-144838110D01*
X201771915Y-144879591D01*
X201761607Y-144913569D01*
X201744866Y-144944890D01*
X201722339Y-144972339D01*
X201694890Y-144994866D01*
X201663569Y-145011607D01*
X201629591Y-145021915D01*
X201588110Y-145026000D01*
X200986890Y-145026000D01*
X200945409Y-145021915D01*
X200911431Y-145011607D01*
X200880110Y-144994866D01*
X200852661Y-144972339D01*
X200830134Y-144944890D01*
X200813393Y-144913569D01*
X200803085Y-144879591D01*
X200799000Y-144838110D01*
X200799000Y-144161890D01*
X200803085Y-144120409D01*
X200813393Y-144086431D01*
X200830134Y-144055110D01*
X200852661Y-144027661D01*
X200880110Y-144005134D01*
X200911431Y-143988393D01*
X200945409Y-143978085D01*
X200986890Y-143974000D01*
X201588110Y-143974000D01*
X201629591Y-143978085D01*
G37*
G36*
X200054591Y-143978085D02*
G01*
X200088569Y-143988393D01*
X200119890Y-144005134D01*
X200147339Y-144027661D01*
X200169866Y-144055110D01*
X200186607Y-144086431D01*
X200196915Y-144120409D01*
X200201000Y-144161890D01*
X200201000Y-144838110D01*
X200196915Y-144879591D01*
X200186607Y-144913569D01*
X200169866Y-144944890D01*
X200147339Y-144972339D01*
X200119890Y-144994866D01*
X200088569Y-145011607D01*
X200054591Y-145021915D01*
X200013110Y-145026000D01*
X199411890Y-145026000D01*
X199370409Y-145021915D01*
X199336431Y-145011607D01*
X199305110Y-144994866D01*
X199277661Y-144972339D01*
X199255134Y-144944890D01*
X199238393Y-144913569D01*
X199228085Y-144879591D01*
X199224000Y-144838110D01*
X199224000Y-144161890D01*
X199228085Y-144120409D01*
X199238393Y-144086431D01*
X199255134Y-144055110D01*
X199277661Y-144027661D01*
X199305110Y-144005134D01*
X199336431Y-143988393D01*
X199370409Y-143978085D01*
X199411890Y-143974000D01*
X200013110Y-143974000D01*
X200054591Y-143978085D01*
G37*
G36*
X170554591Y-142978085D02*
G01*
X170588569Y-142988393D01*
X170619890Y-143005134D01*
X170647339Y-143027661D01*
X170669866Y-143055110D01*
X170686607Y-143086431D01*
X170696915Y-143120409D01*
X170701000Y-143161890D01*
X170701000Y-143838110D01*
X170696915Y-143879591D01*
X170686607Y-143913569D01*
X170669866Y-143944890D01*
X170647339Y-143972339D01*
X170619890Y-143994866D01*
X170588569Y-144011607D01*
X170554591Y-144021915D01*
X170513110Y-144026000D01*
X169911890Y-144026000D01*
X169870409Y-144021915D01*
X169836431Y-144011607D01*
X169805110Y-143994866D01*
X169777661Y-143972339D01*
X169755134Y-143944890D01*
X169738393Y-143913569D01*
X169728085Y-143879591D01*
X169724000Y-143838110D01*
X169724000Y-143161890D01*
X169728085Y-143120409D01*
X169738393Y-143086431D01*
X169755134Y-143055110D01*
X169777661Y-143027661D01*
X169805110Y-143005134D01*
X169836431Y-142988393D01*
X169870409Y-142978085D01*
X169911890Y-142974000D01*
X170513110Y-142974000D01*
X170554591Y-142978085D01*
G37*
G36*
X172129591Y-142978085D02*
G01*
X172163569Y-142988393D01*
X172194890Y-143005134D01*
X172222339Y-143027661D01*
X172244866Y-143055110D01*
X172261607Y-143086431D01*
X172271915Y-143120409D01*
X172276000Y-143161890D01*
X172276000Y-143838110D01*
X172271915Y-143879591D01*
X172261607Y-143913569D01*
X172244866Y-143944890D01*
X172222339Y-143972339D01*
X172194890Y-143994866D01*
X172163569Y-144011607D01*
X172129591Y-144021915D01*
X172088110Y-144026000D01*
X171486890Y-144026000D01*
X171445409Y-144021915D01*
X171411431Y-144011607D01*
X171380110Y-143994866D01*
X171352661Y-143972339D01*
X171330134Y-143944890D01*
X171313393Y-143913569D01*
X171303085Y-143879591D01*
X171299000Y-143838110D01*
X171299000Y-143161890D01*
X171303085Y-143120409D01*
X171313393Y-143086431D01*
X171330134Y-143055110D01*
X171352661Y-143027661D01*
X171380110Y-143005134D01*
X171411431Y-142988393D01*
X171445409Y-142978085D01*
X171486890Y-142974000D01*
X172088110Y-142974000D01*
X172129591Y-142978085D01*
G37*
G36*
X152551000Y-142256000D02*
G01*
X151449000Y-142256000D01*
X151449000Y-139574000D01*
X152551000Y-139574000D01*
X152551000Y-142256000D01*
G37*
G36*
X148551000Y-142256000D02*
G01*
X147449000Y-142256000D01*
X147449000Y-139574000D01*
X148551000Y-139574000D01*
X148551000Y-142256000D01*
G37*
G36*
X146551000Y-142256000D02*
G01*
X145449000Y-142256000D01*
X145449000Y-139574000D01*
X146551000Y-139574000D01*
X146551000Y-142256000D01*
G37*
G36*
X144551000Y-142256000D02*
G01*
X143449000Y-142256000D01*
X143449000Y-139574000D01*
X144551000Y-139574000D01*
X144551000Y-142256000D01*
G37*
G36*
X142551000Y-142256000D02*
G01*
X141449000Y-142256000D01*
X141449000Y-139574000D01*
X142551000Y-139574000D01*
X142551000Y-142256000D01*
G37*
G36*
X150551000Y-142256000D02*
G01*
X149449000Y-142256000D01*
X149449000Y-139574000D01*
X150551000Y-139574000D01*
X150551000Y-142256000D01*
G37*
G36*
X140551000Y-142256000D02*
G01*
X139449000Y-142256000D01*
X139449000Y-139574000D01*
X140551000Y-139574000D01*
X140551000Y-142256000D01*
G37*
G36*
X176401000Y-142001000D02*
G01*
X175499000Y-142001000D01*
X175499000Y-140999000D01*
X176401000Y-140999000D01*
X176401000Y-142001000D01*
G37*
G36*
X172401000Y-142001000D02*
G01*
X171499000Y-142001000D01*
X171499000Y-140999000D01*
X172401000Y-140999000D01*
X172401000Y-142001000D01*
G37*
G36*
X174501000Y-142001000D02*
G01*
X173599000Y-142001000D01*
X173599000Y-140999000D01*
X174501000Y-140999000D01*
X174501000Y-142001000D01*
G37*
G36*
X170501000Y-142001000D02*
G01*
X169599000Y-142001000D01*
X169599000Y-140999000D01*
X170501000Y-140999000D01*
X170501000Y-142001000D01*
G37*
G36*
X180656000Y-141891000D02*
G01*
X177454000Y-141891000D01*
X177454000Y-140189000D01*
X180656000Y-140189000D01*
X180656000Y-141891000D01*
G37*
G36*
X189546000Y-141891000D02*
G01*
X186344000Y-141891000D01*
X186344000Y-140189000D01*
X189546000Y-140189000D01*
X189546000Y-141891000D01*
G37*
G36*
X125389943Y-135566248D02*
G01*
X125945189Y-135796238D01*
X126131615Y-135920804D01*
X126444899Y-136130134D01*
X126869866Y-136555101D01*
X126972265Y-136708352D01*
X127203762Y-137054811D01*
X127433752Y-137610057D01*
X127551000Y-138199501D01*
X127551000Y-138800499D01*
X127433752Y-139389943D01*
X127203762Y-139945189D01*
X127076660Y-140135410D01*
X126869866Y-140444899D01*
X126444899Y-140869866D01*
X126304573Y-140963629D01*
X125945189Y-141203762D01*
X125389943Y-141433752D01*
X124800499Y-141551000D01*
X124199501Y-141551000D01*
X123610057Y-141433752D01*
X123054811Y-141203762D01*
X122695427Y-140963629D01*
X122555101Y-140869866D01*
X122130134Y-140444899D01*
X121923340Y-140135410D01*
X121796238Y-139945189D01*
X121566248Y-139389943D01*
X121449000Y-138800499D01*
X121449000Y-138199501D01*
X121566248Y-137610057D01*
X121796238Y-137054811D01*
X122027735Y-136708352D01*
X122130134Y-136555101D01*
X122555101Y-136130134D01*
X122868385Y-135920804D01*
X123054811Y-135796238D01*
X123610057Y-135566248D01*
X124199501Y-135449000D01*
X124800499Y-135449000D01*
X125389943Y-135566248D01*
G37*
G36*
X209389943Y-134566248D02*
G01*
X209945189Y-134796238D01*
X210193347Y-134962052D01*
X210444899Y-135130134D01*
X210869866Y-135555101D01*
X210972265Y-135708352D01*
X211203762Y-136054811D01*
X211433752Y-136610057D01*
X211551000Y-137199501D01*
X211551000Y-137800499D01*
X211433752Y-138389943D01*
X211203762Y-138945189D01*
X211037948Y-139193347D01*
X210869866Y-139444899D01*
X210444899Y-139869866D01*
X210310845Y-139959438D01*
X209945189Y-140203762D01*
X209389943Y-140433752D01*
X208800499Y-140551000D01*
X208199501Y-140551000D01*
X207610057Y-140433752D01*
X207054811Y-140203762D01*
X206689155Y-139959438D01*
X206555101Y-139869866D01*
X206130134Y-139444899D01*
X205962052Y-139193347D01*
X205796238Y-138945189D01*
X205566248Y-138389943D01*
X205449000Y-137800499D01*
X205449000Y-137199501D01*
X205566248Y-136610057D01*
X205796238Y-136054811D01*
X206027735Y-135708352D01*
X206130134Y-135555101D01*
X206555101Y-135130134D01*
X206806653Y-134962052D01*
X207054811Y-134796238D01*
X207610057Y-134566248D01*
X208199501Y-134449000D01*
X208800499Y-134449000D01*
X209389943Y-134566248D01*
G37*
G36*
X175451000Y-140001000D02*
G01*
X174549000Y-140001000D01*
X174549000Y-138999000D01*
X175451000Y-138999000D01*
X175451000Y-140001000D01*
G37*
G36*
X171451000Y-140001000D02*
G01*
X170549000Y-140001000D01*
X170549000Y-138999000D01*
X171451000Y-138999000D01*
X171451000Y-140001000D01*
G37*
G36*
X136129591Y-138478085D02*
G01*
X136163569Y-138488393D01*
X136194890Y-138505134D01*
X136222339Y-138527661D01*
X136244866Y-138555110D01*
X136261607Y-138586431D01*
X136271915Y-138620409D01*
X136276000Y-138661890D01*
X136276000Y-139338110D01*
X136271915Y-139379591D01*
X136261607Y-139413569D01*
X136244866Y-139444890D01*
X136222339Y-139472339D01*
X136194890Y-139494866D01*
X136163569Y-139511607D01*
X136129591Y-139521915D01*
X136088110Y-139526000D01*
X135486890Y-139526000D01*
X135445409Y-139521915D01*
X135411431Y-139511607D01*
X135380110Y-139494866D01*
X135352661Y-139472339D01*
X135330134Y-139444890D01*
X135313393Y-139413569D01*
X135303085Y-139379591D01*
X135299000Y-139338110D01*
X135299000Y-138661890D01*
X135303085Y-138620409D01*
X135313393Y-138586431D01*
X135330134Y-138555110D01*
X135352661Y-138527661D01*
X135380110Y-138505134D01*
X135411431Y-138488393D01*
X135445409Y-138478085D01*
X135486890Y-138474000D01*
X136088110Y-138474000D01*
X136129591Y-138478085D01*
G37*
G36*
X134554591Y-138478085D02*
G01*
X134588569Y-138488393D01*
X134619890Y-138505134D01*
X134647339Y-138527661D01*
X134669866Y-138555110D01*
X134686607Y-138586431D01*
X134696915Y-138620409D01*
X134701000Y-138661890D01*
X134701000Y-139338110D01*
X134696915Y-139379591D01*
X134686607Y-139413569D01*
X134669866Y-139444890D01*
X134647339Y-139472339D01*
X134619890Y-139494866D01*
X134588569Y-139511607D01*
X134554591Y-139521915D01*
X134513110Y-139526000D01*
X133911890Y-139526000D01*
X133870409Y-139521915D01*
X133836431Y-139511607D01*
X133805110Y-139494866D01*
X133777661Y-139472339D01*
X133755134Y-139444890D01*
X133738393Y-139413569D01*
X133728085Y-139379591D01*
X133724000Y-139338110D01*
X133724000Y-138661890D01*
X133728085Y-138620409D01*
X133738393Y-138586431D01*
X133755134Y-138555110D01*
X133777661Y-138527661D01*
X133805110Y-138505134D01*
X133836431Y-138488393D01*
X133870409Y-138478085D01*
X133911890Y-138474000D01*
X134513110Y-138474000D01*
X134554591Y-138478085D01*
G37*
G36*
X191618604Y-137578347D02*
G01*
X191655144Y-137589432D01*
X191688821Y-137607433D01*
X191718341Y-137631659D01*
X191742567Y-137661179D01*
X191760568Y-137694856D01*
X191771653Y-137731396D01*
X191776000Y-137775538D01*
X191776000Y-139224462D01*
X191771653Y-139268604D01*
X191760568Y-139305144D01*
X191742567Y-139338821D01*
X191718341Y-139368341D01*
X191688821Y-139392567D01*
X191655144Y-139410568D01*
X191618604Y-139421653D01*
X191574462Y-139426000D01*
X190625538Y-139426000D01*
X190581396Y-139421653D01*
X190544856Y-139410568D01*
X190511179Y-139392567D01*
X190481659Y-139368341D01*
X190457433Y-139338821D01*
X190439432Y-139305144D01*
X190428347Y-139268604D01*
X190424000Y-139224462D01*
X190424000Y-137775538D01*
X190428347Y-137731396D01*
X190439432Y-137694856D01*
X190457433Y-137661179D01*
X190481659Y-137631659D01*
X190511179Y-137607433D01*
X190544856Y-137589432D01*
X190581396Y-137578347D01*
X190625538Y-137574000D01*
X191574462Y-137574000D01*
X191618604Y-137578347D01*
G37*
G36*
X194418604Y-137578347D02*
G01*
X194455144Y-137589432D01*
X194488821Y-137607433D01*
X194518341Y-137631659D01*
X194542567Y-137661179D01*
X194560568Y-137694856D01*
X194571653Y-137731396D01*
X194576000Y-137775538D01*
X194576000Y-139224462D01*
X194571653Y-139268604D01*
X194560568Y-139305144D01*
X194542567Y-139338821D01*
X194518341Y-139368341D01*
X194488821Y-139392567D01*
X194455144Y-139410568D01*
X194418604Y-139421653D01*
X194374462Y-139426000D01*
X193425538Y-139426000D01*
X193381396Y-139421653D01*
X193344856Y-139410568D01*
X193311179Y-139392567D01*
X193281659Y-139368341D01*
X193257433Y-139338821D01*
X193239432Y-139305144D01*
X193228347Y-139268604D01*
X193224000Y-139224462D01*
X193224000Y-137775538D01*
X193228347Y-137731396D01*
X193239432Y-137694856D01*
X193257433Y-137661179D01*
X193281659Y-137631659D01*
X193311179Y-137607433D01*
X193344856Y-137589432D01*
X193381396Y-137578347D01*
X193425538Y-137574000D01*
X194374462Y-137574000D01*
X194418604Y-137578347D01*
G37*
G36*
X189546000Y-139351000D02*
G01*
X186344000Y-139351000D01*
X186344000Y-137649000D01*
X189546000Y-137649000D01*
X189546000Y-139351000D01*
G37*
G36*
X180656000Y-139351000D02*
G01*
X177454000Y-139351000D01*
X177454000Y-137649000D01*
X180656000Y-137649000D01*
X180656000Y-139351000D01*
G37*
G36*
X172129591Y-137478085D02*
G01*
X172163569Y-137488393D01*
X172194890Y-137505134D01*
X172222339Y-137527661D01*
X172244866Y-137555110D01*
X172261607Y-137586431D01*
X172271915Y-137620409D01*
X172276000Y-137661890D01*
X172276000Y-138338110D01*
X172271915Y-138379591D01*
X172261607Y-138413569D01*
X172244866Y-138444890D01*
X172222339Y-138472339D01*
X172194890Y-138494866D01*
X172163569Y-138511607D01*
X172129591Y-138521915D01*
X172088110Y-138526000D01*
X171486890Y-138526000D01*
X171445409Y-138521915D01*
X171411431Y-138511607D01*
X171380110Y-138494866D01*
X171352661Y-138472339D01*
X171330134Y-138444890D01*
X171313393Y-138413569D01*
X171303085Y-138379591D01*
X171299000Y-138338110D01*
X171299000Y-137661890D01*
X171303085Y-137620409D01*
X171313393Y-137586431D01*
X171330134Y-137555110D01*
X171352661Y-137527661D01*
X171380110Y-137505134D01*
X171411431Y-137488393D01*
X171445409Y-137478085D01*
X171486890Y-137474000D01*
X172088110Y-137474000D01*
X172129591Y-137478085D01*
G37*
G36*
X170554591Y-137478085D02*
G01*
X170588569Y-137488393D01*
X170619890Y-137505134D01*
X170647339Y-137527661D01*
X170669866Y-137555110D01*
X170686607Y-137586431D01*
X170696915Y-137620409D01*
X170701000Y-137661890D01*
X170701000Y-138338110D01*
X170696915Y-138379591D01*
X170686607Y-138413569D01*
X170669866Y-138444890D01*
X170647339Y-138472339D01*
X170619890Y-138494866D01*
X170588569Y-138511607D01*
X170554591Y-138521915D01*
X170513110Y-138526000D01*
X169911890Y-138526000D01*
X169870409Y-138521915D01*
X169836431Y-138511607D01*
X169805110Y-138494866D01*
X169777661Y-138472339D01*
X169755134Y-138444890D01*
X169738393Y-138413569D01*
X169728085Y-138379591D01*
X169724000Y-138338110D01*
X169724000Y-137661890D01*
X169728085Y-137620409D01*
X169738393Y-137586431D01*
X169755134Y-137555110D01*
X169777661Y-137527661D01*
X169805110Y-137505134D01*
X169836431Y-137488393D01*
X169870409Y-137478085D01*
X169911890Y-137474000D01*
X170513110Y-137474000D01*
X170554591Y-137478085D01*
G37*
G36*
X144379591Y-136803085D02*
G01*
X144413569Y-136813393D01*
X144444890Y-136830134D01*
X144472339Y-136852661D01*
X144494866Y-136880110D01*
X144511607Y-136911431D01*
X144521915Y-136945409D01*
X144526000Y-136986890D01*
X144526000Y-137588110D01*
X144521915Y-137629591D01*
X144511607Y-137663569D01*
X144494866Y-137694890D01*
X144472339Y-137722339D01*
X144444890Y-137744866D01*
X144413569Y-137761607D01*
X144379591Y-137771915D01*
X144338110Y-137776000D01*
X143661890Y-137776000D01*
X143620409Y-137771915D01*
X143586431Y-137761607D01*
X143555110Y-137744866D01*
X143527661Y-137722339D01*
X143505134Y-137694890D01*
X143488393Y-137663569D01*
X143478085Y-137629591D01*
X143474000Y-137588110D01*
X143474000Y-136986890D01*
X143478085Y-136945409D01*
X143488393Y-136911431D01*
X143505134Y-136880110D01*
X143527661Y-136852661D01*
X143555110Y-136830134D01*
X143586431Y-136813393D01*
X143620409Y-136803085D01*
X143661890Y-136799000D01*
X144338110Y-136799000D01*
X144379591Y-136803085D01*
G37*
G36*
X142379591Y-136803085D02*
G01*
X142413569Y-136813393D01*
X142444890Y-136830134D01*
X142472339Y-136852661D01*
X142494866Y-136880110D01*
X142511607Y-136911431D01*
X142521915Y-136945409D01*
X142526000Y-136986890D01*
X142526000Y-137588110D01*
X142521915Y-137629591D01*
X142511607Y-137663569D01*
X142494866Y-137694890D01*
X142472339Y-137722339D01*
X142444890Y-137744866D01*
X142413569Y-137761607D01*
X142379591Y-137771915D01*
X142338110Y-137776000D01*
X141661890Y-137776000D01*
X141620409Y-137771915D01*
X141586431Y-137761607D01*
X141555110Y-137744866D01*
X141527661Y-137722339D01*
X141505134Y-137694890D01*
X141488393Y-137663569D01*
X141478085Y-137629591D01*
X141474000Y-137588110D01*
X141474000Y-136986890D01*
X141478085Y-136945409D01*
X141488393Y-136911431D01*
X141505134Y-136880110D01*
X141527661Y-136852661D01*
X141555110Y-136830134D01*
X141586431Y-136813393D01*
X141620409Y-136803085D01*
X141661890Y-136799000D01*
X142338110Y-136799000D01*
X142379591Y-136803085D01*
G37*
G36*
X140379591Y-136803085D02*
G01*
X140413569Y-136813393D01*
X140444890Y-136830134D01*
X140472339Y-136852661D01*
X140494866Y-136880110D01*
X140511607Y-136911431D01*
X140521915Y-136945409D01*
X140526000Y-136986890D01*
X140526000Y-137588110D01*
X140521915Y-137629591D01*
X140511607Y-137663569D01*
X140494866Y-137694890D01*
X140472339Y-137722339D01*
X140444890Y-137744866D01*
X140413569Y-137761607D01*
X140379591Y-137771915D01*
X140338110Y-137776000D01*
X139661890Y-137776000D01*
X139620409Y-137771915D01*
X139586431Y-137761607D01*
X139555110Y-137744866D01*
X139527661Y-137722339D01*
X139505134Y-137694890D01*
X139488393Y-137663569D01*
X139478085Y-137629591D01*
X139474000Y-137588110D01*
X139474000Y-136986890D01*
X139478085Y-136945409D01*
X139488393Y-136911431D01*
X139505134Y-136880110D01*
X139527661Y-136852661D01*
X139555110Y-136830134D01*
X139586431Y-136813393D01*
X139620409Y-136803085D01*
X139661890Y-136799000D01*
X140338110Y-136799000D01*
X140379591Y-136803085D01*
G37*
G36*
X148379591Y-136803085D02*
G01*
X148413569Y-136813393D01*
X148444890Y-136830134D01*
X148472339Y-136852661D01*
X148494866Y-136880110D01*
X148511607Y-136911431D01*
X148521915Y-136945409D01*
X148526000Y-136986890D01*
X148526000Y-137588110D01*
X148521915Y-137629591D01*
X148511607Y-137663569D01*
X148494866Y-137694890D01*
X148472339Y-137722339D01*
X148444890Y-137744866D01*
X148413569Y-137761607D01*
X148379591Y-137771915D01*
X148338110Y-137776000D01*
X147661890Y-137776000D01*
X147620409Y-137771915D01*
X147586431Y-137761607D01*
X147555110Y-137744866D01*
X147527661Y-137722339D01*
X147505134Y-137694890D01*
X147488393Y-137663569D01*
X147478085Y-137629591D01*
X147474000Y-137588110D01*
X147474000Y-136986890D01*
X147478085Y-136945409D01*
X147488393Y-136911431D01*
X147505134Y-136880110D01*
X147527661Y-136852661D01*
X147555110Y-136830134D01*
X147586431Y-136813393D01*
X147620409Y-136803085D01*
X147661890Y-136799000D01*
X148338110Y-136799000D01*
X148379591Y-136803085D01*
G37*
G36*
X146379591Y-136803085D02*
G01*
X146413569Y-136813393D01*
X146444890Y-136830134D01*
X146472339Y-136852661D01*
X146494866Y-136880110D01*
X146511607Y-136911431D01*
X146521915Y-136945409D01*
X146526000Y-136986890D01*
X146526000Y-137588110D01*
X146521915Y-137629591D01*
X146511607Y-137663569D01*
X146494866Y-137694890D01*
X146472339Y-137722339D01*
X146444890Y-137744866D01*
X146413569Y-137761607D01*
X146379591Y-137771915D01*
X146338110Y-137776000D01*
X145661890Y-137776000D01*
X145620409Y-137771915D01*
X145586431Y-137761607D01*
X145555110Y-137744866D01*
X145527661Y-137722339D01*
X145505134Y-137694890D01*
X145488393Y-137663569D01*
X145478085Y-137629591D01*
X145474000Y-137588110D01*
X145474000Y-136986890D01*
X145478085Y-136945409D01*
X145488393Y-136911431D01*
X145505134Y-136880110D01*
X145527661Y-136852661D01*
X145555110Y-136830134D01*
X145586431Y-136813393D01*
X145620409Y-136803085D01*
X145661890Y-136799000D01*
X146338110Y-136799000D01*
X146379591Y-136803085D01*
G37*
G36*
X136129591Y-136478085D02*
G01*
X136163569Y-136488393D01*
X136194890Y-136505134D01*
X136222339Y-136527661D01*
X136244866Y-136555110D01*
X136261607Y-136586431D01*
X136271915Y-136620409D01*
X136276000Y-136661890D01*
X136276000Y-137338110D01*
X136271915Y-137379591D01*
X136261607Y-137413569D01*
X136244866Y-137444890D01*
X136222339Y-137472339D01*
X136194890Y-137494866D01*
X136163569Y-137511607D01*
X136129591Y-137521915D01*
X136088110Y-137526000D01*
X135486890Y-137526000D01*
X135445409Y-137521915D01*
X135411431Y-137511607D01*
X135380110Y-137494866D01*
X135352661Y-137472339D01*
X135330134Y-137444890D01*
X135313393Y-137413569D01*
X135303085Y-137379591D01*
X135299000Y-137338110D01*
X135299000Y-136661890D01*
X135303085Y-136620409D01*
X135313393Y-136586431D01*
X135330134Y-136555110D01*
X135352661Y-136527661D01*
X135380110Y-136505134D01*
X135411431Y-136488393D01*
X135445409Y-136478085D01*
X135486890Y-136474000D01*
X136088110Y-136474000D01*
X136129591Y-136478085D01*
G37*
G36*
X134554591Y-136478085D02*
G01*
X134588569Y-136488393D01*
X134619890Y-136505134D01*
X134647339Y-136527661D01*
X134669866Y-136555110D01*
X134686607Y-136586431D01*
X134696915Y-136620409D01*
X134701000Y-136661890D01*
X134701000Y-137338110D01*
X134696915Y-137379591D01*
X134686607Y-137413569D01*
X134669866Y-137444890D01*
X134647339Y-137472339D01*
X134619890Y-137494866D01*
X134588569Y-137511607D01*
X134554591Y-137521915D01*
X134513110Y-137526000D01*
X133911890Y-137526000D01*
X133870409Y-137521915D01*
X133836431Y-137511607D01*
X133805110Y-137494866D01*
X133777661Y-137472339D01*
X133755134Y-137444890D01*
X133738393Y-137413569D01*
X133728085Y-137379591D01*
X133724000Y-137338110D01*
X133724000Y-136661890D01*
X133728085Y-136620409D01*
X133738393Y-136586431D01*
X133755134Y-136555110D01*
X133777661Y-136527661D01*
X133805110Y-136505134D01*
X133836431Y-136488393D01*
X133870409Y-136478085D01*
X133911890Y-136474000D01*
X134513110Y-136474000D01*
X134554591Y-136478085D01*
G37*
G36*
X194418604Y-135078347D02*
G01*
X194455144Y-135089432D01*
X194488821Y-135107433D01*
X194518341Y-135131659D01*
X194542567Y-135161179D01*
X194560568Y-135194856D01*
X194571653Y-135231396D01*
X194576000Y-135275538D01*
X194576000Y-136724462D01*
X194571653Y-136768604D01*
X194560568Y-136805144D01*
X194542567Y-136838821D01*
X194518341Y-136868341D01*
X194488821Y-136892567D01*
X194455144Y-136910568D01*
X194418604Y-136921653D01*
X194374462Y-136926000D01*
X193425538Y-136926000D01*
X193381396Y-136921653D01*
X193344856Y-136910568D01*
X193311179Y-136892567D01*
X193281659Y-136868341D01*
X193257433Y-136838821D01*
X193239432Y-136805144D01*
X193228347Y-136768604D01*
X193224000Y-136724462D01*
X193224000Y-135275538D01*
X193228347Y-135231396D01*
X193239432Y-135194856D01*
X193257433Y-135161179D01*
X193281659Y-135131659D01*
X193311179Y-135107433D01*
X193344856Y-135089432D01*
X193381396Y-135078347D01*
X193425538Y-135074000D01*
X194374462Y-135074000D01*
X194418604Y-135078347D01*
G37*
G36*
X191618604Y-135078347D02*
G01*
X191655144Y-135089432D01*
X191688821Y-135107433D01*
X191718341Y-135131659D01*
X191742567Y-135161179D01*
X191760568Y-135194856D01*
X191771653Y-135231396D01*
X191776000Y-135275538D01*
X191776000Y-136724462D01*
X191771653Y-136768604D01*
X191760568Y-136805144D01*
X191742567Y-136838821D01*
X191718341Y-136868341D01*
X191688821Y-136892567D01*
X191655144Y-136910568D01*
X191618604Y-136921653D01*
X191574462Y-136926000D01*
X190625538Y-136926000D01*
X190581396Y-136921653D01*
X190544856Y-136910568D01*
X190511179Y-136892567D01*
X190481659Y-136868341D01*
X190457433Y-136838821D01*
X190439432Y-136805144D01*
X190428347Y-136768604D01*
X190424000Y-136724462D01*
X190424000Y-135275538D01*
X190428347Y-135231396D01*
X190439432Y-135194856D01*
X190457433Y-135161179D01*
X190481659Y-135131659D01*
X190511179Y-135107433D01*
X190544856Y-135089432D01*
X190581396Y-135078347D01*
X190625538Y-135074000D01*
X191574462Y-135074000D01*
X191618604Y-135078347D01*
G37*
G36*
X180656000Y-136811000D02*
G01*
X177454000Y-136811000D01*
X177454000Y-135109000D01*
X180656000Y-135109000D01*
X180656000Y-136811000D01*
G37*
G36*
X189546000Y-136811000D02*
G01*
X186344000Y-136811000D01*
X186344000Y-135109000D01*
X189546000Y-135109000D01*
X189546000Y-136811000D01*
G37*
G36*
X174554591Y-135478085D02*
G01*
X174588569Y-135488393D01*
X174619890Y-135505134D01*
X174647339Y-135527661D01*
X174669866Y-135555110D01*
X174686607Y-135586431D01*
X174696915Y-135620409D01*
X174701000Y-135661890D01*
X174701000Y-136338110D01*
X174696915Y-136379591D01*
X174686607Y-136413569D01*
X174669866Y-136444890D01*
X174647339Y-136472339D01*
X174619890Y-136494866D01*
X174588569Y-136511607D01*
X174554591Y-136521915D01*
X174513110Y-136526000D01*
X173911890Y-136526000D01*
X173870409Y-136521915D01*
X173836431Y-136511607D01*
X173805110Y-136494866D01*
X173777661Y-136472339D01*
X173755134Y-136444890D01*
X173738393Y-136413569D01*
X173728085Y-136379591D01*
X173724000Y-136338110D01*
X173724000Y-135661890D01*
X173728085Y-135620409D01*
X173738393Y-135586431D01*
X173755134Y-135555110D01*
X173777661Y-135527661D01*
X173805110Y-135505134D01*
X173836431Y-135488393D01*
X173870409Y-135478085D01*
X173911890Y-135474000D01*
X174513110Y-135474000D01*
X174554591Y-135478085D01*
G37*
G36*
X176129591Y-135478085D02*
G01*
X176163569Y-135488393D01*
X176194890Y-135505134D01*
X176222339Y-135527661D01*
X176244866Y-135555110D01*
X176261607Y-135586431D01*
X176271915Y-135620409D01*
X176276000Y-135661890D01*
X176276000Y-136338110D01*
X176271915Y-136379591D01*
X176261607Y-136413569D01*
X176244866Y-136444890D01*
X176222339Y-136472339D01*
X176194890Y-136494866D01*
X176163569Y-136511607D01*
X176129591Y-136521915D01*
X176088110Y-136526000D01*
X175486890Y-136526000D01*
X175445409Y-136521915D01*
X175411431Y-136511607D01*
X175380110Y-136494866D01*
X175352661Y-136472339D01*
X175330134Y-136444890D01*
X175313393Y-136413569D01*
X175303085Y-136379591D01*
X175299000Y-136338110D01*
X175299000Y-135661890D01*
X175303085Y-135620409D01*
X175313393Y-135586431D01*
X175330134Y-135555110D01*
X175352661Y-135527661D01*
X175380110Y-135505134D01*
X175411431Y-135488393D01*
X175445409Y-135478085D01*
X175486890Y-135474000D01*
X176088110Y-135474000D01*
X176129591Y-135478085D01*
G37*
G36*
X172129591Y-135478085D02*
G01*
X172163569Y-135488393D01*
X172194890Y-135505134D01*
X172222339Y-135527661D01*
X172244866Y-135555110D01*
X172261607Y-135586431D01*
X172271915Y-135620409D01*
X172276000Y-135661890D01*
X172276000Y-136338110D01*
X172271915Y-136379591D01*
X172261607Y-136413569D01*
X172244866Y-136444890D01*
X172222339Y-136472339D01*
X172194890Y-136494866D01*
X172163569Y-136511607D01*
X172129591Y-136521915D01*
X172088110Y-136526000D01*
X171486890Y-136526000D01*
X171445409Y-136521915D01*
X171411431Y-136511607D01*
X171380110Y-136494866D01*
X171352661Y-136472339D01*
X171330134Y-136444890D01*
X171313393Y-136413569D01*
X171303085Y-136379591D01*
X171299000Y-136338110D01*
X171299000Y-135661890D01*
X171303085Y-135620409D01*
X171313393Y-135586431D01*
X171330134Y-135555110D01*
X171352661Y-135527661D01*
X171380110Y-135505134D01*
X171411431Y-135488393D01*
X171445409Y-135478085D01*
X171486890Y-135474000D01*
X172088110Y-135474000D01*
X172129591Y-135478085D01*
G37*
G36*
X170554591Y-135478085D02*
G01*
X170588569Y-135488393D01*
X170619890Y-135505134D01*
X170647339Y-135527661D01*
X170669866Y-135555110D01*
X170686607Y-135586431D01*
X170696915Y-135620409D01*
X170701000Y-135661890D01*
X170701000Y-136338110D01*
X170696915Y-136379591D01*
X170686607Y-136413569D01*
X170669866Y-136444890D01*
X170647339Y-136472339D01*
X170619890Y-136494866D01*
X170588569Y-136511607D01*
X170554591Y-136521915D01*
X170513110Y-136526000D01*
X169911890Y-136526000D01*
X169870409Y-136521915D01*
X169836431Y-136511607D01*
X169805110Y-136494866D01*
X169777661Y-136472339D01*
X169755134Y-136444890D01*
X169738393Y-136413569D01*
X169728085Y-136379591D01*
X169724000Y-136338110D01*
X169724000Y-135661890D01*
X169728085Y-135620409D01*
X169738393Y-135586431D01*
X169755134Y-135555110D01*
X169777661Y-135527661D01*
X169805110Y-135505134D01*
X169836431Y-135488393D01*
X169870409Y-135478085D01*
X169911890Y-135474000D01*
X170513110Y-135474000D01*
X170554591Y-135478085D01*
G37*
G36*
X146379591Y-135228085D02*
G01*
X146413569Y-135238393D01*
X146444890Y-135255134D01*
X146472339Y-135277661D01*
X146494866Y-135305110D01*
X146511607Y-135336431D01*
X146521915Y-135370409D01*
X146526000Y-135411890D01*
X146526000Y-136013110D01*
X146521915Y-136054591D01*
X146511607Y-136088569D01*
X146494866Y-136119890D01*
X146472339Y-136147339D01*
X146444890Y-136169866D01*
X146413569Y-136186607D01*
X146379591Y-136196915D01*
X146338110Y-136201000D01*
X145661890Y-136201000D01*
X145620409Y-136196915D01*
X145586431Y-136186607D01*
X145555110Y-136169866D01*
X145527661Y-136147339D01*
X145505134Y-136119890D01*
X145488393Y-136088569D01*
X145478085Y-136054591D01*
X145474000Y-136013110D01*
X145474000Y-135411890D01*
X145478085Y-135370409D01*
X145488393Y-135336431D01*
X145505134Y-135305110D01*
X145527661Y-135277661D01*
X145555110Y-135255134D01*
X145586431Y-135238393D01*
X145620409Y-135228085D01*
X145661890Y-135224000D01*
X146338110Y-135224000D01*
X146379591Y-135228085D01*
G37*
G36*
X140379591Y-135228085D02*
G01*
X140413569Y-135238393D01*
X140444890Y-135255134D01*
X140472339Y-135277661D01*
X140494866Y-135305110D01*
X140511607Y-135336431D01*
X140521915Y-135370409D01*
X140526000Y-135411890D01*
X140526000Y-136013110D01*
X140521915Y-136054591D01*
X140511607Y-136088569D01*
X140494866Y-136119890D01*
X140472339Y-136147339D01*
X140444890Y-136169866D01*
X140413569Y-136186607D01*
X140379591Y-136196915D01*
X140338110Y-136201000D01*
X139661890Y-136201000D01*
X139620409Y-136196915D01*
X139586431Y-136186607D01*
X139555110Y-136169866D01*
X139527661Y-136147339D01*
X139505134Y-136119890D01*
X139488393Y-136088569D01*
X139478085Y-136054591D01*
X139474000Y-136013110D01*
X139474000Y-135411890D01*
X139478085Y-135370409D01*
X139488393Y-135336431D01*
X139505134Y-135305110D01*
X139527661Y-135277661D01*
X139555110Y-135255134D01*
X139586431Y-135238393D01*
X139620409Y-135228085D01*
X139661890Y-135224000D01*
X140338110Y-135224000D01*
X140379591Y-135228085D01*
G37*
G36*
X142379591Y-135228085D02*
G01*
X142413569Y-135238393D01*
X142444890Y-135255134D01*
X142472339Y-135277661D01*
X142494866Y-135305110D01*
X142511607Y-135336431D01*
X142521915Y-135370409D01*
X142526000Y-135411890D01*
X142526000Y-136013110D01*
X142521915Y-136054591D01*
X142511607Y-136088569D01*
X142494866Y-136119890D01*
X142472339Y-136147339D01*
X142444890Y-136169866D01*
X142413569Y-136186607D01*
X142379591Y-136196915D01*
X142338110Y-136201000D01*
X141661890Y-136201000D01*
X141620409Y-136196915D01*
X141586431Y-136186607D01*
X141555110Y-136169866D01*
X141527661Y-136147339D01*
X141505134Y-136119890D01*
X141488393Y-136088569D01*
X141478085Y-136054591D01*
X141474000Y-136013110D01*
X141474000Y-135411890D01*
X141478085Y-135370409D01*
X141488393Y-135336431D01*
X141505134Y-135305110D01*
X141527661Y-135277661D01*
X141555110Y-135255134D01*
X141586431Y-135238393D01*
X141620409Y-135228085D01*
X141661890Y-135224000D01*
X142338110Y-135224000D01*
X142379591Y-135228085D01*
G37*
G36*
X144379591Y-135228085D02*
G01*
X144413569Y-135238393D01*
X144444890Y-135255134D01*
X144472339Y-135277661D01*
X144494866Y-135305110D01*
X144511607Y-135336431D01*
X144521915Y-135370409D01*
X144526000Y-135411890D01*
X144526000Y-136013110D01*
X144521915Y-136054591D01*
X144511607Y-136088569D01*
X144494866Y-136119890D01*
X144472339Y-136147339D01*
X144444890Y-136169866D01*
X144413569Y-136186607D01*
X144379591Y-136196915D01*
X144338110Y-136201000D01*
X143661890Y-136201000D01*
X143620409Y-136196915D01*
X143586431Y-136186607D01*
X143555110Y-136169866D01*
X143527661Y-136147339D01*
X143505134Y-136119890D01*
X143488393Y-136088569D01*
X143478085Y-136054591D01*
X143474000Y-136013110D01*
X143474000Y-135411890D01*
X143478085Y-135370409D01*
X143488393Y-135336431D01*
X143505134Y-135305110D01*
X143527661Y-135277661D01*
X143555110Y-135255134D01*
X143586431Y-135238393D01*
X143620409Y-135228085D01*
X143661890Y-135224000D01*
X144338110Y-135224000D01*
X144379591Y-135228085D01*
G37*
G36*
X148379591Y-135228085D02*
G01*
X148413569Y-135238393D01*
X148444890Y-135255134D01*
X148472339Y-135277661D01*
X148494866Y-135305110D01*
X148511607Y-135336431D01*
X148521915Y-135370409D01*
X148526000Y-135411890D01*
X148526000Y-136013110D01*
X148521915Y-136054591D01*
X148511607Y-136088569D01*
X148494866Y-136119890D01*
X148472339Y-136147339D01*
X148444890Y-136169866D01*
X148413569Y-136186607D01*
X148379591Y-136196915D01*
X148338110Y-136201000D01*
X147661890Y-136201000D01*
X147620409Y-136196915D01*
X147586431Y-136186607D01*
X147555110Y-136169866D01*
X147527661Y-136147339D01*
X147505134Y-136119890D01*
X147488393Y-136088569D01*
X147478085Y-136054591D01*
X147474000Y-136013110D01*
X147474000Y-135411890D01*
X147478085Y-135370409D01*
X147488393Y-135336431D01*
X147505134Y-135305110D01*
X147527661Y-135277661D01*
X147555110Y-135255134D01*
X147586431Y-135238393D01*
X147620409Y-135228085D01*
X147661890Y-135224000D01*
X148338110Y-135224000D01*
X148379591Y-135228085D01*
G37*
G36*
X134618604Y-134078347D02*
G01*
X134655144Y-134089432D01*
X134688821Y-134107433D01*
X134718341Y-134131659D01*
X134742567Y-134161179D01*
X134760568Y-134194856D01*
X134771653Y-134231396D01*
X134776000Y-134275538D01*
X134776000Y-135724462D01*
X134771653Y-135768604D01*
X134760568Y-135805144D01*
X134742567Y-135838821D01*
X134718341Y-135868341D01*
X134688821Y-135892567D01*
X134655144Y-135910568D01*
X134618604Y-135921653D01*
X134574462Y-135926000D01*
X133625538Y-135926000D01*
X133581396Y-135921653D01*
X133544856Y-135910568D01*
X133511179Y-135892567D01*
X133481659Y-135868341D01*
X133457433Y-135838821D01*
X133439432Y-135805144D01*
X133428347Y-135768604D01*
X133424000Y-135724462D01*
X133424000Y-134275538D01*
X133428347Y-134231396D01*
X133439432Y-134194856D01*
X133457433Y-134161179D01*
X133481659Y-134131659D01*
X133511179Y-134107433D01*
X133544856Y-134089432D01*
X133581396Y-134078347D01*
X133625538Y-134074000D01*
X134574462Y-134074000D01*
X134618604Y-134078347D01*
G37*
G36*
X137418604Y-134078347D02*
G01*
X137455144Y-134089432D01*
X137488821Y-134107433D01*
X137518341Y-134131659D01*
X137542567Y-134161179D01*
X137560568Y-134194856D01*
X137571653Y-134231396D01*
X137576000Y-134275538D01*
X137576000Y-135724462D01*
X137571653Y-135768604D01*
X137560568Y-135805144D01*
X137542567Y-135838821D01*
X137518341Y-135868341D01*
X137488821Y-135892567D01*
X137455144Y-135910568D01*
X137418604Y-135921653D01*
X137374462Y-135926000D01*
X136425538Y-135926000D01*
X136381396Y-135921653D01*
X136344856Y-135910568D01*
X136311179Y-135892567D01*
X136281659Y-135868341D01*
X136257433Y-135838821D01*
X136239432Y-135805144D01*
X136228347Y-135768604D01*
X136224000Y-135724462D01*
X136224000Y-134275538D01*
X136228347Y-134231396D01*
X136239432Y-134194856D01*
X136257433Y-134161179D01*
X136281659Y-134131659D01*
X136311179Y-134107433D01*
X136344856Y-134089432D01*
X136381396Y-134078347D01*
X136425538Y-134074000D01*
X137374462Y-134074000D01*
X137418604Y-134078347D01*
G37*
G36*
X148379591Y-133303085D02*
G01*
X148413569Y-133313393D01*
X148444890Y-133330134D01*
X148472339Y-133352661D01*
X148494866Y-133380110D01*
X148511607Y-133411431D01*
X148521915Y-133445409D01*
X148526000Y-133486890D01*
X148526000Y-134088110D01*
X148521915Y-134129591D01*
X148511607Y-134163569D01*
X148494866Y-134194890D01*
X148472339Y-134222339D01*
X148444890Y-134244866D01*
X148413569Y-134261607D01*
X148379591Y-134271915D01*
X148338110Y-134276000D01*
X147661890Y-134276000D01*
X147620409Y-134271915D01*
X147586431Y-134261607D01*
X147555110Y-134244866D01*
X147527661Y-134222339D01*
X147505134Y-134194890D01*
X147488393Y-134163569D01*
X147478085Y-134129591D01*
X147474000Y-134088110D01*
X147474000Y-133486890D01*
X147478085Y-133445409D01*
X147488393Y-133411431D01*
X147505134Y-133380110D01*
X147527661Y-133352661D01*
X147555110Y-133330134D01*
X147586431Y-133313393D01*
X147620409Y-133303085D01*
X147661890Y-133299000D01*
X148338110Y-133299000D01*
X148379591Y-133303085D01*
G37*
G36*
X191926000Y-133426000D02*
G01*
X186024000Y-133426000D01*
X186024000Y-126924000D01*
X191926000Y-126924000D01*
X191926000Y-133426000D01*
G37*
G36*
X134618604Y-131578347D02*
G01*
X134655144Y-131589432D01*
X134688821Y-131607433D01*
X134718341Y-131631659D01*
X134742567Y-131661179D01*
X134760568Y-131694856D01*
X134771653Y-131731396D01*
X134776000Y-131775538D01*
X134776000Y-133224462D01*
X134771653Y-133268604D01*
X134760568Y-133305144D01*
X134742567Y-133338821D01*
X134718341Y-133368341D01*
X134688821Y-133392567D01*
X134655144Y-133410568D01*
X134618604Y-133421653D01*
X134574462Y-133426000D01*
X133625538Y-133426000D01*
X133581396Y-133421653D01*
X133544856Y-133410568D01*
X133511179Y-133392567D01*
X133481659Y-133368341D01*
X133457433Y-133338821D01*
X133439432Y-133305144D01*
X133428347Y-133268604D01*
X133424000Y-133224462D01*
X133424000Y-131775538D01*
X133428347Y-131731396D01*
X133439432Y-131694856D01*
X133457433Y-131661179D01*
X133481659Y-131631659D01*
X133511179Y-131607433D01*
X133544856Y-131589432D01*
X133581396Y-131578347D01*
X133625538Y-131574000D01*
X134574462Y-131574000D01*
X134618604Y-131578347D01*
G37*
G36*
X137418604Y-131578347D02*
G01*
X137455144Y-131589432D01*
X137488821Y-131607433D01*
X137518341Y-131631659D01*
X137542567Y-131661179D01*
X137560568Y-131694856D01*
X137571653Y-131731396D01*
X137576000Y-131775538D01*
X137576000Y-133224462D01*
X137571653Y-133268604D01*
X137560568Y-133305144D01*
X137542567Y-133338821D01*
X137518341Y-133368341D01*
X137488821Y-133392567D01*
X137455144Y-133410568D01*
X137418604Y-133421653D01*
X137374462Y-133426000D01*
X136425538Y-133426000D01*
X136381396Y-133421653D01*
X136344856Y-133410568D01*
X136311179Y-133392567D01*
X136281659Y-133368341D01*
X136257433Y-133338821D01*
X136239432Y-133305144D01*
X136228347Y-133268604D01*
X136224000Y-133224462D01*
X136224000Y-131775538D01*
X136228347Y-131731396D01*
X136239432Y-131694856D01*
X136257433Y-131661179D01*
X136281659Y-131631659D01*
X136311179Y-131607433D01*
X136344856Y-131589432D01*
X136381396Y-131578347D01*
X136425538Y-131574000D01*
X137374462Y-131574000D01*
X137418604Y-131578347D01*
G37*
G36*
X124775331Y-129798211D02*
G01*
X125103092Y-129933974D01*
X125398070Y-130131072D01*
X125648928Y-130381930D01*
X125846026Y-130676908D01*
X125981789Y-131004669D01*
X126051000Y-131352616D01*
X126051000Y-131707384D01*
X125981789Y-132055331D01*
X125846026Y-132383092D01*
X125648928Y-132678070D01*
X125398070Y-132928928D01*
X125103092Y-133126026D01*
X124775331Y-133261789D01*
X124427384Y-133331000D01*
X124072616Y-133331000D01*
X123724669Y-133261789D01*
X123396908Y-133126026D01*
X123101930Y-132928928D01*
X122851072Y-132678070D01*
X122653974Y-132383092D01*
X122518211Y-132055331D01*
X122449000Y-131707384D01*
X122449000Y-131352616D01*
X122518211Y-131004669D01*
X122653974Y-130676908D01*
X122851072Y-130381930D01*
X123101930Y-130131072D01*
X123396908Y-129933974D01*
X123724669Y-129798211D01*
X124072616Y-129729000D01*
X124427384Y-129729000D01*
X124775331Y-129798211D01*
G37*
G36*
X195618604Y-131078347D02*
G01*
X195655144Y-131089432D01*
X195688821Y-131107433D01*
X195718341Y-131131659D01*
X195742567Y-131161179D01*
X195760568Y-131194856D01*
X195771653Y-131231396D01*
X195776000Y-131275538D01*
X195776000Y-132724462D01*
X195771653Y-132768604D01*
X195760568Y-132805144D01*
X195742567Y-132838821D01*
X195718341Y-132868341D01*
X195688821Y-132892567D01*
X195655144Y-132910568D01*
X195618604Y-132921653D01*
X195574462Y-132926000D01*
X194625538Y-132926000D01*
X194581396Y-132921653D01*
X194544856Y-132910568D01*
X194511179Y-132892567D01*
X194481659Y-132868341D01*
X194457433Y-132838821D01*
X194439432Y-132805144D01*
X194428347Y-132768604D01*
X194424000Y-132724462D01*
X194424000Y-131275538D01*
X194428347Y-131231396D01*
X194439432Y-131194856D01*
X194457433Y-131161179D01*
X194481659Y-131131659D01*
X194511179Y-131107433D01*
X194544856Y-131089432D01*
X194581396Y-131078347D01*
X194625538Y-131074000D01*
X195574462Y-131074000D01*
X195618604Y-131078347D01*
G37*
G36*
X198418604Y-131078347D02*
G01*
X198455144Y-131089432D01*
X198488821Y-131107433D01*
X198518341Y-131131659D01*
X198542567Y-131161179D01*
X198560568Y-131194856D01*
X198571653Y-131231396D01*
X198576000Y-131275538D01*
X198576000Y-132724462D01*
X198571653Y-132768604D01*
X198560568Y-132805144D01*
X198542567Y-132838821D01*
X198518341Y-132868341D01*
X198488821Y-132892567D01*
X198455144Y-132910568D01*
X198418604Y-132921653D01*
X198374462Y-132926000D01*
X197425538Y-132926000D01*
X197381396Y-132921653D01*
X197344856Y-132910568D01*
X197311179Y-132892567D01*
X197281659Y-132868341D01*
X197257433Y-132838821D01*
X197239432Y-132805144D01*
X197228347Y-132768604D01*
X197224000Y-132724462D01*
X197224000Y-131275538D01*
X197228347Y-131231396D01*
X197239432Y-131194856D01*
X197257433Y-131161179D01*
X197281659Y-131131659D01*
X197311179Y-131107433D01*
X197344856Y-131089432D01*
X197381396Y-131078347D01*
X197425538Y-131074000D01*
X198374462Y-131074000D01*
X198418604Y-131078347D01*
G37*
G36*
X203418604Y-131078347D02*
G01*
X203455144Y-131089432D01*
X203488821Y-131107433D01*
X203518341Y-131131659D01*
X203542567Y-131161179D01*
X203560568Y-131194856D01*
X203571653Y-131231396D01*
X203576000Y-131275538D01*
X203576000Y-132724462D01*
X203571653Y-132768604D01*
X203560568Y-132805144D01*
X203542567Y-132838821D01*
X203518341Y-132868341D01*
X203488821Y-132892567D01*
X203455144Y-132910568D01*
X203418604Y-132921653D01*
X203374462Y-132926000D01*
X202425538Y-132926000D01*
X202381396Y-132921653D01*
X202344856Y-132910568D01*
X202311179Y-132892567D01*
X202281659Y-132868341D01*
X202257433Y-132838821D01*
X202239432Y-132805144D01*
X202228347Y-132768604D01*
X202224000Y-132724462D01*
X202224000Y-131275538D01*
X202228347Y-131231396D01*
X202239432Y-131194856D01*
X202257433Y-131161179D01*
X202281659Y-131131659D01*
X202311179Y-131107433D01*
X202344856Y-131089432D01*
X202381396Y-131078347D01*
X202425538Y-131074000D01*
X203374462Y-131074000D01*
X203418604Y-131078347D01*
G37*
G36*
X200618604Y-131078347D02*
G01*
X200655144Y-131089432D01*
X200688821Y-131107433D01*
X200718341Y-131131659D01*
X200742567Y-131161179D01*
X200760568Y-131194856D01*
X200771653Y-131231396D01*
X200776000Y-131275538D01*
X200776000Y-132724462D01*
X200771653Y-132768604D01*
X200760568Y-132805144D01*
X200742567Y-132838821D01*
X200718341Y-132868341D01*
X200688821Y-132892567D01*
X200655144Y-132910568D01*
X200618604Y-132921653D01*
X200574462Y-132926000D01*
X199625538Y-132926000D01*
X199581396Y-132921653D01*
X199544856Y-132910568D01*
X199511179Y-132892567D01*
X199481659Y-132868341D01*
X199457433Y-132838821D01*
X199439432Y-132805144D01*
X199428347Y-132768604D01*
X199424000Y-132724462D01*
X199424000Y-131275538D01*
X199428347Y-131231396D01*
X199439432Y-131194856D01*
X199457433Y-131161179D01*
X199481659Y-131131659D01*
X199511179Y-131107433D01*
X199544856Y-131089432D01*
X199581396Y-131078347D01*
X199625538Y-131074000D01*
X200574462Y-131074000D01*
X200618604Y-131078347D01*
G37*
G36*
X148379591Y-131728085D02*
G01*
X148413569Y-131738393D01*
X148444890Y-131755134D01*
X148472339Y-131777661D01*
X148494866Y-131805110D01*
X148511607Y-131836431D01*
X148521915Y-131870409D01*
X148526000Y-131911890D01*
X148526000Y-132513110D01*
X148521915Y-132554591D01*
X148511607Y-132588569D01*
X148494866Y-132619890D01*
X148472339Y-132647339D01*
X148444890Y-132669866D01*
X148413569Y-132686607D01*
X148379591Y-132696915D01*
X148338110Y-132701000D01*
X147661890Y-132701000D01*
X147620409Y-132696915D01*
X147586431Y-132686607D01*
X147555110Y-132669866D01*
X147527661Y-132647339D01*
X147505134Y-132619890D01*
X147488393Y-132588569D01*
X147478085Y-132554591D01*
X147474000Y-132513110D01*
X147474000Y-131911890D01*
X147478085Y-131870409D01*
X147488393Y-131836431D01*
X147505134Y-131805110D01*
X147527661Y-131777661D01*
X147555110Y-131755134D01*
X147586431Y-131738393D01*
X147620409Y-131728085D01*
X147661890Y-131724000D01*
X148338110Y-131724000D01*
X148379591Y-131728085D01*
G37*
G36*
X210051000Y-132051000D02*
G01*
X206949000Y-132051000D01*
X206949000Y-128949000D01*
X210051000Y-128949000D01*
X210051000Y-132051000D01*
G37*
G36*
X141768604Y-129228347D02*
G01*
X141805144Y-129239432D01*
X141838821Y-129257433D01*
X141868341Y-129281659D01*
X141892567Y-129311179D01*
X141910568Y-129344856D01*
X141921653Y-129381396D01*
X141926000Y-129425538D01*
X141926000Y-130374462D01*
X141921653Y-130418604D01*
X141910568Y-130455144D01*
X141892567Y-130488821D01*
X141868341Y-130518341D01*
X141838821Y-130542567D01*
X141805144Y-130560568D01*
X141768604Y-130571653D01*
X141724462Y-130576000D01*
X140275538Y-130576000D01*
X140231396Y-130571653D01*
X140194856Y-130560568D01*
X140161179Y-130542567D01*
X140131659Y-130518341D01*
X140107433Y-130488821D01*
X140089432Y-130455144D01*
X140078347Y-130418604D01*
X140074000Y-130374462D01*
X140074000Y-129425538D01*
X140078347Y-129381396D01*
X140089432Y-129344856D01*
X140107433Y-129311179D01*
X140131659Y-129281659D01*
X140161179Y-129257433D01*
X140194856Y-129239432D01*
X140231396Y-129228347D01*
X140275538Y-129224000D01*
X141724462Y-129224000D01*
X141768604Y-129228347D01*
G37*
G36*
X137614500Y-130551000D02*
G01*
X136012500Y-130551000D01*
X136012500Y-129449000D01*
X137614500Y-129449000D01*
X137614500Y-130551000D01*
G37*
G36*
X195618604Y-128578347D02*
G01*
X195655144Y-128589432D01*
X195688821Y-128607433D01*
X195718341Y-128631659D01*
X195742567Y-128661179D01*
X195760568Y-128694856D01*
X195771653Y-128731396D01*
X195776000Y-128775538D01*
X195776000Y-130224462D01*
X195771653Y-130268604D01*
X195760568Y-130305144D01*
X195742567Y-130338821D01*
X195718341Y-130368341D01*
X195688821Y-130392567D01*
X195655144Y-130410568D01*
X195618604Y-130421653D01*
X195574462Y-130426000D01*
X194625538Y-130426000D01*
X194581396Y-130421653D01*
X194544856Y-130410568D01*
X194511179Y-130392567D01*
X194481659Y-130368341D01*
X194457433Y-130338821D01*
X194439432Y-130305144D01*
X194428347Y-130268604D01*
X194424000Y-130224462D01*
X194424000Y-128775538D01*
X194428347Y-128731396D01*
X194439432Y-128694856D01*
X194457433Y-128661179D01*
X194481659Y-128631659D01*
X194511179Y-128607433D01*
X194544856Y-128589432D01*
X194581396Y-128578347D01*
X194625538Y-128574000D01*
X195574462Y-128574000D01*
X195618604Y-128578347D01*
G37*
G36*
X198418604Y-128578347D02*
G01*
X198455144Y-128589432D01*
X198488821Y-128607433D01*
X198518341Y-128631659D01*
X198542567Y-128661179D01*
X198560568Y-128694856D01*
X198571653Y-128731396D01*
X198576000Y-128775538D01*
X198576000Y-130224462D01*
X198571653Y-130268604D01*
X198560568Y-130305144D01*
X198542567Y-130338821D01*
X198518341Y-130368341D01*
X198488821Y-130392567D01*
X198455144Y-130410568D01*
X198418604Y-130421653D01*
X198374462Y-130426000D01*
X197425538Y-130426000D01*
X197381396Y-130421653D01*
X197344856Y-130410568D01*
X197311179Y-130392567D01*
X197281659Y-130368341D01*
X197257433Y-130338821D01*
X197239432Y-130305144D01*
X197228347Y-130268604D01*
X197224000Y-130224462D01*
X197224000Y-128775538D01*
X197228347Y-128731396D01*
X197239432Y-128694856D01*
X197257433Y-128661179D01*
X197281659Y-128631659D01*
X197311179Y-128607433D01*
X197344856Y-128589432D01*
X197381396Y-128578347D01*
X197425538Y-128574000D01*
X198374462Y-128574000D01*
X198418604Y-128578347D01*
G37*
G36*
X200618604Y-128578347D02*
G01*
X200655144Y-128589432D01*
X200688821Y-128607433D01*
X200718341Y-128631659D01*
X200742567Y-128661179D01*
X200760568Y-128694856D01*
X200771653Y-128731396D01*
X200776000Y-128775538D01*
X200776000Y-130224462D01*
X200771653Y-130268604D01*
X200760568Y-130305144D01*
X200742567Y-130338821D01*
X200718341Y-130368341D01*
X200688821Y-130392567D01*
X200655144Y-130410568D01*
X200618604Y-130421653D01*
X200574462Y-130426000D01*
X199625538Y-130426000D01*
X199581396Y-130421653D01*
X199544856Y-130410568D01*
X199511179Y-130392567D01*
X199481659Y-130368341D01*
X199457433Y-130338821D01*
X199439432Y-130305144D01*
X199428347Y-130268604D01*
X199424000Y-130224462D01*
X199424000Y-128775538D01*
X199428347Y-128731396D01*
X199439432Y-128694856D01*
X199457433Y-128661179D01*
X199481659Y-128631659D01*
X199511179Y-128607433D01*
X199544856Y-128589432D01*
X199581396Y-128578347D01*
X199625538Y-128574000D01*
X200574462Y-128574000D01*
X200618604Y-128578347D01*
G37*
G36*
X203418604Y-128578347D02*
G01*
X203455144Y-128589432D01*
X203488821Y-128607433D01*
X203518341Y-128631659D01*
X203542567Y-128661179D01*
X203560568Y-128694856D01*
X203571653Y-128731396D01*
X203576000Y-128775538D01*
X203576000Y-130224462D01*
X203571653Y-130268604D01*
X203560568Y-130305144D01*
X203542567Y-130338821D01*
X203518341Y-130368341D01*
X203488821Y-130392567D01*
X203455144Y-130410568D01*
X203418604Y-130421653D01*
X203374462Y-130426000D01*
X202425538Y-130426000D01*
X202381396Y-130421653D01*
X202344856Y-130410568D01*
X202311179Y-130392567D01*
X202281659Y-130368341D01*
X202257433Y-130338821D01*
X202239432Y-130305144D01*
X202228347Y-130268604D01*
X202224000Y-130224462D01*
X202224000Y-128775538D01*
X202228347Y-128731396D01*
X202239432Y-128694856D01*
X202257433Y-128661179D01*
X202281659Y-128631659D01*
X202311179Y-128607433D01*
X202344856Y-128589432D01*
X202381396Y-128578347D01*
X202425538Y-128574000D01*
X203374462Y-128574000D01*
X203418604Y-128578347D01*
G37*
G36*
X162073512Y-128603927D02*
G01*
X162222812Y-128633624D01*
X162386784Y-128701544D01*
X162534354Y-128800147D01*
X162659853Y-128925646D01*
X162758456Y-129073216D01*
X162826376Y-129237188D01*
X162847656Y-129344174D01*
X162861000Y-129411258D01*
X162861000Y-129588742D01*
X162856073Y-129613512D01*
X162826376Y-129762812D01*
X162758456Y-129926784D01*
X162659853Y-130074354D01*
X162534354Y-130199853D01*
X162386784Y-130298456D01*
X162222812Y-130366376D01*
X162073512Y-130396073D01*
X162048742Y-130401000D01*
X161871258Y-130401000D01*
X161846488Y-130396073D01*
X161697188Y-130366376D01*
X161533216Y-130298456D01*
X161385646Y-130199853D01*
X161260147Y-130074354D01*
X161161544Y-129926784D01*
X161093624Y-129762812D01*
X161063927Y-129613512D01*
X161059000Y-129588742D01*
X161059000Y-129411258D01*
X161072344Y-129344174D01*
X161093624Y-129237188D01*
X161161544Y-129073216D01*
X161260147Y-128925646D01*
X161385646Y-128800147D01*
X161533216Y-128701544D01*
X161697188Y-128633624D01*
X161846488Y-128603927D01*
X161871258Y-128599000D01*
X162048742Y-128599000D01*
X162073512Y-128603927D01*
G37*
G36*
X167941000Y-130401000D02*
G01*
X166139000Y-130401000D01*
X166139000Y-128599000D01*
X167941000Y-128599000D01*
X167941000Y-130401000D01*
G37*
G36*
X164613512Y-128603927D02*
G01*
X164762812Y-128633624D01*
X164926784Y-128701544D01*
X165074354Y-128800147D01*
X165199853Y-128925646D01*
X165298456Y-129073216D01*
X165366376Y-129237188D01*
X165387656Y-129344174D01*
X165401000Y-129411258D01*
X165401000Y-129588742D01*
X165396073Y-129613512D01*
X165366376Y-129762812D01*
X165298456Y-129926784D01*
X165199853Y-130074354D01*
X165074354Y-130199853D01*
X164926784Y-130298456D01*
X164762812Y-130366376D01*
X164613512Y-130396073D01*
X164588742Y-130401000D01*
X164411258Y-130401000D01*
X164386488Y-130396073D01*
X164237188Y-130366376D01*
X164073216Y-130298456D01*
X163925646Y-130199853D01*
X163800147Y-130074354D01*
X163701544Y-129926784D01*
X163633624Y-129762812D01*
X163603927Y-129613512D01*
X163599000Y-129588742D01*
X163599000Y-129411258D01*
X163612344Y-129344174D01*
X163633624Y-129237188D01*
X163701544Y-129073216D01*
X163800147Y-128925646D01*
X163925646Y-128800147D01*
X164073216Y-128701544D01*
X164237188Y-128633624D01*
X164386488Y-128603927D01*
X164411258Y-128599000D01*
X164588742Y-128599000D01*
X164613512Y-128603927D01*
G37*
G36*
X139379591Y-129303085D02*
G01*
X139413569Y-129313393D01*
X139444890Y-129330134D01*
X139472339Y-129352661D01*
X139494866Y-129380110D01*
X139511607Y-129411431D01*
X139521915Y-129445409D01*
X139526000Y-129486890D01*
X139526000Y-130088110D01*
X139521915Y-130129591D01*
X139511607Y-130163569D01*
X139494866Y-130194890D01*
X139472339Y-130222339D01*
X139444890Y-130244866D01*
X139413569Y-130261607D01*
X139379591Y-130271915D01*
X139338110Y-130276000D01*
X138661890Y-130276000D01*
X138620409Y-130271915D01*
X138586431Y-130261607D01*
X138555110Y-130244866D01*
X138527661Y-130222339D01*
X138505134Y-130194890D01*
X138488393Y-130163569D01*
X138478085Y-130129591D01*
X138474000Y-130088110D01*
X138474000Y-129486890D01*
X138478085Y-129445409D01*
X138488393Y-129411431D01*
X138505134Y-129380110D01*
X138527661Y-129352661D01*
X138555110Y-129330134D01*
X138586431Y-129313393D01*
X138620409Y-129303085D01*
X138661890Y-129299000D01*
X139338110Y-129299000D01*
X139379591Y-129303085D01*
G37*
G36*
X133163566Y-127293447D02*
G01*
X133179111Y-127312389D01*
X133198053Y-127327934D01*
X133219664Y-127339485D01*
X133243113Y-127346598D01*
X133267499Y-127349000D01*
X134733701Y-127349000D01*
X134758087Y-127346598D01*
X134781536Y-127339485D01*
X134803147Y-127327934D01*
X134822089Y-127312389D01*
X134837634Y-127293447D01*
X134840025Y-127288974D01*
X134893496Y-127326404D01*
X134914851Y-127338421D01*
X134938140Y-127346041D01*
X134965178Y-127349000D01*
X134976144Y-127349000D01*
X134980515Y-127363410D01*
X134992066Y-127385021D01*
X135007611Y-127403963D01*
X135024317Y-127417978D01*
X135750640Y-127926404D01*
X135771995Y-127938421D01*
X135795284Y-127946041D01*
X135822322Y-127949000D01*
X137618000Y-127949000D01*
X137618000Y-129051000D01*
X135822322Y-129051000D01*
X135797936Y-129053402D01*
X135774487Y-129060515D01*
X135750640Y-129073596D01*
X135024317Y-129582022D01*
X135005716Y-129597974D01*
X134990585Y-129617248D01*
X134979505Y-129639104D01*
X134976176Y-129651000D01*
X134965178Y-129651000D01*
X134940792Y-129653402D01*
X134917343Y-129660515D01*
X134893496Y-129673596D01*
X134840025Y-129711026D01*
X134837634Y-129706553D01*
X134822089Y-129687611D01*
X134803147Y-129672066D01*
X134781536Y-129660515D01*
X134758087Y-129653402D01*
X134733701Y-129651000D01*
X133267499Y-129651000D01*
X133243113Y-129653402D01*
X133219664Y-129660515D01*
X133198053Y-129672066D01*
X133179111Y-129687611D01*
X133163566Y-129706553D01*
X133160949Y-129711450D01*
X133107724Y-129673879D01*
X133086416Y-129661778D01*
X133063157Y-129654067D01*
X133035639Y-129651000D01*
X133024265Y-129651000D01*
X133019485Y-129635243D01*
X133007934Y-129613632D01*
X132992389Y-129594690D01*
X132976086Y-129580958D01*
X132190500Y-129026426D01*
X132190500Y-127973574D01*
X132976086Y-127419042D01*
X132994623Y-127403017D01*
X133009678Y-127383683D01*
X133020672Y-127361784D01*
X133024195Y-127349000D01*
X133035639Y-127349000D01*
X133060025Y-127346598D01*
X133083474Y-127339485D01*
X133107724Y-127326121D01*
X133160949Y-127288550D01*
X133163566Y-127293447D01*
G37*
G36*
X139379591Y-127728085D02*
G01*
X139413569Y-127738393D01*
X139444890Y-127755134D01*
X139472339Y-127777661D01*
X139494866Y-127805110D01*
X139511607Y-127836431D01*
X139521915Y-127870409D01*
X139526000Y-127911890D01*
X139526000Y-128513110D01*
X139521915Y-128554591D01*
X139511607Y-128588569D01*
X139494866Y-128619890D01*
X139472339Y-128647339D01*
X139444890Y-128669866D01*
X139413569Y-128686607D01*
X139379591Y-128696915D01*
X139338110Y-128701000D01*
X138661890Y-128701000D01*
X138620409Y-128696915D01*
X138586431Y-128686607D01*
X138555110Y-128669866D01*
X138527661Y-128647339D01*
X138505134Y-128619890D01*
X138488393Y-128588569D01*
X138478085Y-128554591D01*
X138474000Y-128513110D01*
X138474000Y-127911890D01*
X138478085Y-127870409D01*
X138488393Y-127836431D01*
X138505134Y-127805110D01*
X138527661Y-127777661D01*
X138555110Y-127755134D01*
X138586431Y-127738393D01*
X138620409Y-127728085D01*
X138661890Y-127724000D01*
X139338110Y-127724000D01*
X139379591Y-127728085D01*
G37*
G36*
X198418604Y-126078347D02*
G01*
X198455144Y-126089432D01*
X198488821Y-126107433D01*
X198518341Y-126131659D01*
X198542567Y-126161179D01*
X198560568Y-126194856D01*
X198571653Y-126231396D01*
X198576000Y-126275538D01*
X198576000Y-127724462D01*
X198571653Y-127768604D01*
X198560568Y-127805144D01*
X198542567Y-127838821D01*
X198518341Y-127868341D01*
X198488821Y-127892567D01*
X198455144Y-127910568D01*
X198418604Y-127921653D01*
X198374462Y-127926000D01*
X197425538Y-127926000D01*
X197381396Y-127921653D01*
X197344856Y-127910568D01*
X197311179Y-127892567D01*
X197281659Y-127868341D01*
X197257433Y-127838821D01*
X197239432Y-127805144D01*
X197228347Y-127768604D01*
X197224000Y-127724462D01*
X197224000Y-126275538D01*
X197228347Y-126231396D01*
X197239432Y-126194856D01*
X197257433Y-126161179D01*
X197281659Y-126131659D01*
X197311179Y-126107433D01*
X197344856Y-126089432D01*
X197381396Y-126078347D01*
X197425538Y-126074000D01*
X198374462Y-126074000D01*
X198418604Y-126078347D01*
G37*
G36*
X195618604Y-126078347D02*
G01*
X195655144Y-126089432D01*
X195688821Y-126107433D01*
X195718341Y-126131659D01*
X195742567Y-126161179D01*
X195760568Y-126194856D01*
X195771653Y-126231396D01*
X195776000Y-126275538D01*
X195776000Y-127724462D01*
X195771653Y-127768604D01*
X195760568Y-127805144D01*
X195742567Y-127838821D01*
X195718341Y-127868341D01*
X195688821Y-127892567D01*
X195655144Y-127910568D01*
X195618604Y-127921653D01*
X195574462Y-127926000D01*
X194625538Y-127926000D01*
X194581396Y-127921653D01*
X194544856Y-127910568D01*
X194511179Y-127892567D01*
X194481659Y-127868341D01*
X194457433Y-127838821D01*
X194439432Y-127805144D01*
X194428347Y-127768604D01*
X194424000Y-127724462D01*
X194424000Y-126275538D01*
X194428347Y-126231396D01*
X194439432Y-126194856D01*
X194457433Y-126161179D01*
X194481659Y-126131659D01*
X194511179Y-126107433D01*
X194544856Y-126089432D01*
X194581396Y-126078347D01*
X194625538Y-126074000D01*
X195574462Y-126074000D01*
X195618604Y-126078347D01*
G37*
G36*
X164594508Y-126060147D02*
G01*
X164762812Y-126093624D01*
X164926784Y-126161544D01*
X165074354Y-126260147D01*
X165199853Y-126385646D01*
X165298456Y-126533216D01*
X165366376Y-126697188D01*
X165401000Y-126871259D01*
X165401000Y-127048741D01*
X165366376Y-127222812D01*
X165298456Y-127386784D01*
X165199853Y-127534354D01*
X165074354Y-127659853D01*
X164926784Y-127758456D01*
X164762812Y-127826376D01*
X164613512Y-127856073D01*
X164588742Y-127861000D01*
X164411258Y-127861000D01*
X164386488Y-127856073D01*
X164237188Y-127826376D01*
X164073216Y-127758456D01*
X163925646Y-127659853D01*
X163800147Y-127534354D01*
X163701544Y-127386784D01*
X163633624Y-127222812D01*
X163599000Y-127048741D01*
X163599000Y-126871259D01*
X163633624Y-126697188D01*
X163701544Y-126533216D01*
X163800147Y-126385646D01*
X163925646Y-126260147D01*
X164073216Y-126161544D01*
X164237188Y-126093624D01*
X164405492Y-126060147D01*
X164411258Y-126059000D01*
X164588742Y-126059000D01*
X164594508Y-126060147D01*
G37*
G36*
X162054508Y-126060147D02*
G01*
X162222812Y-126093624D01*
X162386784Y-126161544D01*
X162534354Y-126260147D01*
X162659853Y-126385646D01*
X162758456Y-126533216D01*
X162826376Y-126697188D01*
X162861000Y-126871259D01*
X162861000Y-127048741D01*
X162826376Y-127222812D01*
X162758456Y-127386784D01*
X162659853Y-127534354D01*
X162534354Y-127659853D01*
X162386784Y-127758456D01*
X162222812Y-127826376D01*
X162073512Y-127856073D01*
X162048742Y-127861000D01*
X161871258Y-127861000D01*
X161846488Y-127856073D01*
X161697188Y-127826376D01*
X161533216Y-127758456D01*
X161385646Y-127659853D01*
X161260147Y-127534354D01*
X161161544Y-127386784D01*
X161093624Y-127222812D01*
X161059000Y-127048741D01*
X161059000Y-126871259D01*
X161093624Y-126697188D01*
X161161544Y-126533216D01*
X161260147Y-126385646D01*
X161385646Y-126260147D01*
X161533216Y-126161544D01*
X161697188Y-126093624D01*
X161865492Y-126060147D01*
X161871258Y-126059000D01*
X162048742Y-126059000D01*
X162054508Y-126060147D01*
G37*
G36*
X167134508Y-126060147D02*
G01*
X167302812Y-126093624D01*
X167466784Y-126161544D01*
X167614354Y-126260147D01*
X167739853Y-126385646D01*
X167838456Y-126533216D01*
X167906376Y-126697188D01*
X167941000Y-126871259D01*
X167941000Y-127048741D01*
X167906376Y-127222812D01*
X167838456Y-127386784D01*
X167739853Y-127534354D01*
X167614354Y-127659853D01*
X167466784Y-127758456D01*
X167302812Y-127826376D01*
X167153512Y-127856073D01*
X167128742Y-127861000D01*
X166951258Y-127861000D01*
X166926488Y-127856073D01*
X166777188Y-127826376D01*
X166613216Y-127758456D01*
X166465646Y-127659853D01*
X166340147Y-127534354D01*
X166241544Y-127386784D01*
X166173624Y-127222812D01*
X166139000Y-127048741D01*
X166139000Y-126871259D01*
X166173624Y-126697188D01*
X166241544Y-126533216D01*
X166340147Y-126385646D01*
X166465646Y-126260147D01*
X166613216Y-126161544D01*
X166777188Y-126093624D01*
X166945492Y-126060147D01*
X166951258Y-126059000D01*
X167128742Y-126059000D01*
X167134508Y-126060147D01*
G37*
G36*
X141768604Y-126428347D02*
G01*
X141805144Y-126439432D01*
X141838821Y-126457433D01*
X141868341Y-126481659D01*
X141892567Y-126511179D01*
X141910568Y-126544856D01*
X141921653Y-126581396D01*
X141926000Y-126625538D01*
X141926000Y-127574462D01*
X141921653Y-127618604D01*
X141910568Y-127655144D01*
X141892567Y-127688821D01*
X141868341Y-127718341D01*
X141838821Y-127742567D01*
X141805144Y-127760568D01*
X141768604Y-127771653D01*
X141724462Y-127776000D01*
X140275538Y-127776000D01*
X140231396Y-127771653D01*
X140194856Y-127760568D01*
X140161179Y-127742567D01*
X140131659Y-127718341D01*
X140107433Y-127688821D01*
X140089432Y-127655144D01*
X140078347Y-127618604D01*
X140074000Y-127574462D01*
X140074000Y-126625538D01*
X140078347Y-126581396D01*
X140089432Y-126544856D01*
X140107433Y-126511179D01*
X140131659Y-126481659D01*
X140161179Y-126457433D01*
X140194856Y-126439432D01*
X140231396Y-126428347D01*
X140275538Y-126424000D01*
X141724462Y-126424000D01*
X141768604Y-126428347D01*
G37*
G36*
X127073512Y-125863927D02*
G01*
X127222812Y-125893624D01*
X127386784Y-125961544D01*
X127534354Y-126060147D01*
X127659853Y-126185646D01*
X127758456Y-126333216D01*
X127818523Y-126478229D01*
X127830068Y-126499829D01*
X127845613Y-126518771D01*
X127864555Y-126534316D01*
X127886166Y-126545867D01*
X127909615Y-126552980D01*
X127934001Y-126555382D01*
X127958387Y-126552980D01*
X127981836Y-126545867D01*
X128003447Y-126534316D01*
X128022389Y-126518771D01*
X128037934Y-126499829D01*
X128049485Y-126478218D01*
X128056598Y-126454769D01*
X128059000Y-126430383D01*
X128059000Y-125859000D01*
X129861000Y-125859000D01*
X129861000Y-127661000D01*
X128059000Y-127661000D01*
X128059000Y-127089617D01*
X128056598Y-127065231D01*
X128049485Y-127041782D01*
X128037934Y-127020171D01*
X128022389Y-127001229D01*
X128003447Y-126985684D01*
X127981836Y-126974133D01*
X127958387Y-126967020D01*
X127934001Y-126964618D01*
X127909615Y-126967020D01*
X127886166Y-126974133D01*
X127864555Y-126985684D01*
X127845613Y-127001229D01*
X127830068Y-127020171D01*
X127818523Y-127041771D01*
X127758456Y-127186784D01*
X127659853Y-127334354D01*
X127534354Y-127459853D01*
X127386784Y-127558456D01*
X127222812Y-127626376D01*
X127078182Y-127655144D01*
X127048742Y-127661000D01*
X126871258Y-127661000D01*
X126841818Y-127655144D01*
X126697188Y-127626376D01*
X126533216Y-127558456D01*
X126385646Y-127459853D01*
X126260147Y-127334354D01*
X126161544Y-127186784D01*
X126093624Y-127022812D01*
X126059000Y-126848741D01*
X126059000Y-126671259D01*
X126060864Y-126661890D01*
X126068253Y-126624740D01*
X126093624Y-126497188D01*
X126161544Y-126333216D01*
X126260147Y-126185646D01*
X126385646Y-126060147D01*
X126533216Y-125961544D01*
X126697188Y-125893624D01*
X126846488Y-125863927D01*
X126871258Y-125859000D01*
X127048742Y-125859000D01*
X127073512Y-125863927D01*
G37*
G36*
X137614500Y-127551000D02*
G01*
X136012500Y-127551000D01*
X136012500Y-126449000D01*
X137614500Y-126449000D01*
X137614500Y-127551000D01*
G37*
G36*
X153054591Y-126478085D02*
G01*
X153088569Y-126488393D01*
X153119890Y-126505134D01*
X153147339Y-126527661D01*
X153169866Y-126555110D01*
X153186607Y-126586431D01*
X153196915Y-126620409D01*
X153201000Y-126661890D01*
X153201000Y-127338110D01*
X153196915Y-127379591D01*
X153186607Y-127413569D01*
X153169866Y-127444890D01*
X153147339Y-127472339D01*
X153119890Y-127494866D01*
X153088569Y-127511607D01*
X153054591Y-127521915D01*
X153013110Y-127526000D01*
X152411890Y-127526000D01*
X152370409Y-127521915D01*
X152336431Y-127511607D01*
X152305110Y-127494866D01*
X152277661Y-127472339D01*
X152255134Y-127444890D01*
X152238393Y-127413569D01*
X152228085Y-127379591D01*
X152224000Y-127338110D01*
X152224000Y-126661890D01*
X152228085Y-126620409D01*
X152238393Y-126586431D01*
X152255134Y-126555110D01*
X152277661Y-126527661D01*
X152305110Y-126505134D01*
X152336431Y-126488393D01*
X152370409Y-126478085D01*
X152411890Y-126474000D01*
X153013110Y-126474000D01*
X153054591Y-126478085D01*
G37*
G36*
X154629591Y-126478085D02*
G01*
X154663569Y-126488393D01*
X154694890Y-126505134D01*
X154722339Y-126527661D01*
X154744866Y-126555110D01*
X154761607Y-126586431D01*
X154771915Y-126620409D01*
X154776000Y-126661890D01*
X154776000Y-127338110D01*
X154771915Y-127379591D01*
X154761607Y-127413569D01*
X154744866Y-127444890D01*
X154722339Y-127472339D01*
X154694890Y-127494866D01*
X154663569Y-127511607D01*
X154629591Y-127521915D01*
X154588110Y-127526000D01*
X153986890Y-127526000D01*
X153945409Y-127521915D01*
X153911431Y-127511607D01*
X153880110Y-127494866D01*
X153852661Y-127472339D01*
X153830134Y-127444890D01*
X153813393Y-127413569D01*
X153803085Y-127379591D01*
X153799000Y-127338110D01*
X153799000Y-126661890D01*
X153803085Y-126620409D01*
X153813393Y-126586431D01*
X153830134Y-126555110D01*
X153852661Y-126527661D01*
X153880110Y-126505134D01*
X153911431Y-126488393D01*
X153945409Y-126478085D01*
X153986890Y-126474000D01*
X154588110Y-126474000D01*
X154629591Y-126478085D01*
G37*
G36*
X208706005Y-123879591D02*
G01*
X208952410Y-123928604D01*
X209234674Y-124045521D01*
X209488705Y-124215259D01*
X209704741Y-124431295D01*
X209874479Y-124685326D01*
X209991396Y-124967590D01*
X210002081Y-125021307D01*
X210049377Y-125259078D01*
X210051000Y-125267240D01*
X210051000Y-125572760D01*
X209991396Y-125872410D01*
X209874479Y-126154674D01*
X209704741Y-126408705D01*
X209488705Y-126624741D01*
X209234674Y-126794479D01*
X208952410Y-126911396D01*
X208889045Y-126924000D01*
X208652761Y-126971000D01*
X208347239Y-126971000D01*
X208110955Y-126924000D01*
X208047590Y-126911396D01*
X207765326Y-126794479D01*
X207511295Y-126624741D01*
X207295259Y-126408705D01*
X207125521Y-126154674D01*
X207008604Y-125872410D01*
X206949000Y-125572760D01*
X206949000Y-125267240D01*
X206950624Y-125259078D01*
X206997919Y-125021307D01*
X207008604Y-124967590D01*
X207125521Y-124685326D01*
X207295259Y-124431295D01*
X207511295Y-124215259D01*
X207765326Y-124045521D01*
X208047590Y-123928604D01*
X208293995Y-123879591D01*
X208347239Y-123869000D01*
X208652761Y-123869000D01*
X208706005Y-123879591D01*
G37*
G36*
X152926000Y-125551000D02*
G01*
X147074000Y-125551000D01*
X147074000Y-124149000D01*
X152926000Y-124149000D01*
X152926000Y-125551000D01*
G37*
G36*
X195618604Y-123578347D02*
G01*
X195655144Y-123589432D01*
X195688821Y-123607433D01*
X195718341Y-123631659D01*
X195742567Y-123661179D01*
X195760568Y-123694856D01*
X195771653Y-123731396D01*
X195776000Y-123775538D01*
X195776000Y-125224462D01*
X195771653Y-125268604D01*
X195760568Y-125305144D01*
X195742567Y-125338821D01*
X195718341Y-125368341D01*
X195688821Y-125392567D01*
X195655144Y-125410568D01*
X195618604Y-125421653D01*
X195574462Y-125426000D01*
X194625538Y-125426000D01*
X194581396Y-125421653D01*
X194544856Y-125410568D01*
X194511179Y-125392567D01*
X194481659Y-125368341D01*
X194457433Y-125338821D01*
X194439432Y-125305144D01*
X194428347Y-125268604D01*
X194424000Y-125224462D01*
X194424000Y-123775538D01*
X194428347Y-123731396D01*
X194439432Y-123694856D01*
X194457433Y-123661179D01*
X194481659Y-123631659D01*
X194511179Y-123607433D01*
X194544856Y-123589432D01*
X194581396Y-123578347D01*
X194625538Y-123574000D01*
X195574462Y-123574000D01*
X195618604Y-123578347D01*
G37*
G36*
X198418604Y-123578347D02*
G01*
X198455144Y-123589432D01*
X198488821Y-123607433D01*
X198518341Y-123631659D01*
X198542567Y-123661179D01*
X198560568Y-123694856D01*
X198571653Y-123731396D01*
X198576000Y-123775538D01*
X198576000Y-125224462D01*
X198571653Y-125268604D01*
X198560568Y-125305144D01*
X198542567Y-125338821D01*
X198518341Y-125368341D01*
X198488821Y-125392567D01*
X198455144Y-125410568D01*
X198418604Y-125421653D01*
X198374462Y-125426000D01*
X197425538Y-125426000D01*
X197381396Y-125421653D01*
X197344856Y-125410568D01*
X197311179Y-125392567D01*
X197281659Y-125368341D01*
X197257433Y-125338821D01*
X197239432Y-125305144D01*
X197228347Y-125268604D01*
X197224000Y-125224462D01*
X197224000Y-123775538D01*
X197228347Y-123731396D01*
X197239432Y-123694856D01*
X197257433Y-123661179D01*
X197281659Y-123631659D01*
X197311179Y-123607433D01*
X197344856Y-123589432D01*
X197381396Y-123578347D01*
X197425538Y-123574000D01*
X198374462Y-123574000D01*
X198418604Y-123578347D01*
G37*
G36*
X143879591Y-124303085D02*
G01*
X143913569Y-124313393D01*
X143944890Y-124330134D01*
X143972339Y-124352661D01*
X143994866Y-124380110D01*
X144011607Y-124411431D01*
X144021915Y-124445409D01*
X144026000Y-124486890D01*
X144026000Y-125088110D01*
X144021915Y-125129591D01*
X144011607Y-125163569D01*
X143994866Y-125194890D01*
X143972339Y-125222339D01*
X143944890Y-125244866D01*
X143913569Y-125261607D01*
X143879591Y-125271915D01*
X143838110Y-125276000D01*
X143161890Y-125276000D01*
X143120409Y-125271915D01*
X143086431Y-125261607D01*
X143055110Y-125244866D01*
X143027661Y-125222339D01*
X143005134Y-125194890D01*
X142988393Y-125163569D01*
X142978085Y-125129591D01*
X142974000Y-125088110D01*
X142974000Y-124486890D01*
X142978085Y-124445409D01*
X142988393Y-124411431D01*
X143005134Y-124380110D01*
X143027661Y-124352661D01*
X143055110Y-124330134D01*
X143086431Y-124313393D01*
X143120409Y-124303085D01*
X143161890Y-124299000D01*
X143838110Y-124299000D01*
X143879591Y-124303085D01*
G37*
G36*
X127073512Y-123363927D02*
G01*
X127222812Y-123393624D01*
X127386784Y-123461544D01*
X127534354Y-123560147D01*
X127659853Y-123685646D01*
X127758456Y-123833216D01*
X127826376Y-123997188D01*
X127837405Y-124052638D01*
X127844516Y-124076078D01*
X127856067Y-124097689D01*
X127871613Y-124116631D01*
X127890555Y-124132176D01*
X127912165Y-124143727D01*
X127935614Y-124150840D01*
X127960000Y-124153242D01*
X127984387Y-124150840D01*
X128007835Y-124143727D01*
X128029446Y-124132176D01*
X128048388Y-124116630D01*
X128063933Y-124097688D01*
X128075484Y-124076078D01*
X128082595Y-124052638D01*
X128093624Y-123997188D01*
X128161544Y-123833216D01*
X128260147Y-123685646D01*
X128385646Y-123560147D01*
X128533216Y-123461544D01*
X128697188Y-123393624D01*
X128846488Y-123363927D01*
X128871258Y-123359000D01*
X129048742Y-123359000D01*
X129073512Y-123363927D01*
X129222812Y-123393624D01*
X129386784Y-123461544D01*
X129534354Y-123560147D01*
X129659853Y-123685646D01*
X129758456Y-123833216D01*
X129826376Y-123997188D01*
X129851755Y-124124780D01*
X129859137Y-124161890D01*
X129861000Y-124171259D01*
X129861000Y-124348741D01*
X129826376Y-124522812D01*
X129758456Y-124686784D01*
X129659853Y-124834354D01*
X129534354Y-124959853D01*
X129386784Y-125058456D01*
X129222812Y-125126376D01*
X129075889Y-125155600D01*
X129048742Y-125161000D01*
X128871258Y-125161000D01*
X128844111Y-125155600D01*
X128697188Y-125126376D01*
X128533216Y-125058456D01*
X128385646Y-124959853D01*
X128260147Y-124834354D01*
X128161544Y-124686784D01*
X128093624Y-124522812D01*
X128082595Y-124467362D01*
X128075484Y-124443922D01*
X128063933Y-124422311D01*
X128048387Y-124403369D01*
X128029445Y-124387824D01*
X128007835Y-124376273D01*
X127984386Y-124369160D01*
X127960000Y-124366758D01*
X127935613Y-124369160D01*
X127912165Y-124376273D01*
X127890554Y-124387824D01*
X127871612Y-124403370D01*
X127856067Y-124422312D01*
X127844516Y-124443922D01*
X127837405Y-124467362D01*
X127826376Y-124522812D01*
X127758456Y-124686784D01*
X127659853Y-124834354D01*
X127534354Y-124959853D01*
X127386784Y-125058456D01*
X127222812Y-125126376D01*
X127075889Y-125155600D01*
X127048742Y-125161000D01*
X126871258Y-125161000D01*
X126844111Y-125155600D01*
X126697188Y-125126376D01*
X126533216Y-125058456D01*
X126385646Y-124959853D01*
X126260147Y-124834354D01*
X126161544Y-124686784D01*
X126093624Y-124522812D01*
X126059000Y-124348741D01*
X126059000Y-124171259D01*
X126060864Y-124161890D01*
X126068245Y-124124780D01*
X126093624Y-123997188D01*
X126161544Y-123833216D01*
X126260147Y-123685646D01*
X126385646Y-123560147D01*
X126533216Y-123461544D01*
X126697188Y-123393624D01*
X126846488Y-123363927D01*
X126871258Y-123359000D01*
X127048742Y-123359000D01*
X127073512Y-123363927D01*
G37*
G36*
X200054591Y-123978085D02*
G01*
X200088569Y-123988393D01*
X200119890Y-124005134D01*
X200147339Y-124027661D01*
X200169866Y-124055110D01*
X200186607Y-124086431D01*
X200196915Y-124120409D01*
X200201000Y-124161890D01*
X200201000Y-124838110D01*
X200196915Y-124879591D01*
X200186607Y-124913569D01*
X200169866Y-124944890D01*
X200147339Y-124972339D01*
X200119890Y-124994866D01*
X200088569Y-125011607D01*
X200054591Y-125021915D01*
X200013110Y-125026000D01*
X199411890Y-125026000D01*
X199370409Y-125021915D01*
X199336431Y-125011607D01*
X199305110Y-124994866D01*
X199277661Y-124972339D01*
X199255134Y-124944890D01*
X199238393Y-124913569D01*
X199228085Y-124879591D01*
X199224000Y-124838110D01*
X199224000Y-124161890D01*
X199228085Y-124120409D01*
X199238393Y-124086431D01*
X199255134Y-124055110D01*
X199277661Y-124027661D01*
X199305110Y-124005134D01*
X199336431Y-123988393D01*
X199370409Y-123978085D01*
X199411890Y-123974000D01*
X200013110Y-123974000D01*
X200054591Y-123978085D01*
G37*
G36*
X191906000Y-125026000D02*
G01*
X190604000Y-125026000D01*
X190604000Y-122724000D01*
X191906000Y-122724000D01*
X191906000Y-125026000D01*
G37*
G36*
X187346000Y-125026000D02*
G01*
X186044000Y-125026000D01*
X186044000Y-122724000D01*
X187346000Y-122724000D01*
X187346000Y-125026000D01*
G37*
G36*
X201629591Y-123978085D02*
G01*
X201663569Y-123988393D01*
X201694890Y-124005134D01*
X201722339Y-124027661D01*
X201744866Y-124055110D01*
X201761607Y-124086431D01*
X201771915Y-124120409D01*
X201776000Y-124161890D01*
X201776000Y-124838110D01*
X201771915Y-124879591D01*
X201761607Y-124913569D01*
X201744866Y-124944890D01*
X201722339Y-124972339D01*
X201694890Y-124994866D01*
X201663569Y-125011607D01*
X201629591Y-125021915D01*
X201588110Y-125026000D01*
X200986890Y-125026000D01*
X200945409Y-125021915D01*
X200911431Y-125011607D01*
X200880110Y-124994866D01*
X200852661Y-124972339D01*
X200830134Y-124944890D01*
X200813393Y-124913569D01*
X200803085Y-124879591D01*
X200799000Y-124838110D01*
X200799000Y-124161890D01*
X200803085Y-124120409D01*
X200813393Y-124086431D01*
X200830134Y-124055110D01*
X200852661Y-124027661D01*
X200880110Y-124005134D01*
X200911431Y-123988393D01*
X200945409Y-123978085D01*
X200986890Y-123974000D01*
X201588110Y-123974000D01*
X201629591Y-123978085D01*
G37*
G36*
X156879591Y-123803085D02*
G01*
X156913569Y-123813393D01*
X156944890Y-123830134D01*
X156972339Y-123852661D01*
X156994866Y-123880110D01*
X157011607Y-123911431D01*
X157021915Y-123945409D01*
X157026000Y-123986890D01*
X157026000Y-124588110D01*
X157021915Y-124629591D01*
X157011607Y-124663569D01*
X156994866Y-124694890D01*
X156972339Y-124722339D01*
X156944890Y-124744866D01*
X156913569Y-124761607D01*
X156879591Y-124771915D01*
X156838110Y-124776000D01*
X156161890Y-124776000D01*
X156120409Y-124771915D01*
X156086431Y-124761607D01*
X156055110Y-124744866D01*
X156027661Y-124722339D01*
X156005134Y-124694890D01*
X155988393Y-124663569D01*
X155978085Y-124629591D01*
X155974000Y-124588110D01*
X155974000Y-123986890D01*
X155978085Y-123945409D01*
X155988393Y-123911431D01*
X156005134Y-123880110D01*
X156027661Y-123852661D01*
X156055110Y-123830134D01*
X156086431Y-123813393D01*
X156120409Y-123803085D01*
X156161890Y-123799000D01*
X156838110Y-123799000D01*
X156879591Y-123803085D01*
G37*
G36*
X165379591Y-123803085D02*
G01*
X165413569Y-123813393D01*
X165444890Y-123830134D01*
X165472339Y-123852661D01*
X165494866Y-123880110D01*
X165511607Y-123911431D01*
X165521915Y-123945409D01*
X165526000Y-123986890D01*
X165526000Y-124588110D01*
X165521915Y-124629591D01*
X165511607Y-124663569D01*
X165494866Y-124694890D01*
X165472339Y-124722339D01*
X165444890Y-124744866D01*
X165413569Y-124761607D01*
X165379591Y-124771915D01*
X165338110Y-124776000D01*
X164661890Y-124776000D01*
X164620409Y-124771915D01*
X164586431Y-124761607D01*
X164555110Y-124744866D01*
X164527661Y-124722339D01*
X164505134Y-124694890D01*
X164488393Y-124663569D01*
X164478085Y-124629591D01*
X164474000Y-124588110D01*
X164474000Y-123986890D01*
X164478085Y-123945409D01*
X164488393Y-123911431D01*
X164505134Y-123880110D01*
X164527661Y-123852661D01*
X164555110Y-123830134D01*
X164586431Y-123813393D01*
X164620409Y-123803085D01*
X164661890Y-123799000D01*
X165338110Y-123799000D01*
X165379591Y-123803085D01*
G37*
G36*
X158879591Y-123803085D02*
G01*
X158913569Y-123813393D01*
X158944890Y-123830134D01*
X158972339Y-123852661D01*
X158994866Y-123880110D01*
X159011607Y-123911431D01*
X159021915Y-123945409D01*
X159026000Y-123986890D01*
X159026000Y-124588110D01*
X159021915Y-124629591D01*
X159011607Y-124663569D01*
X158994866Y-124694890D01*
X158972339Y-124722339D01*
X158944890Y-124744866D01*
X158913569Y-124761607D01*
X158879591Y-124771915D01*
X158838110Y-124776000D01*
X158161890Y-124776000D01*
X158120409Y-124771915D01*
X158086431Y-124761607D01*
X158055110Y-124744866D01*
X158027661Y-124722339D01*
X158005134Y-124694890D01*
X157988393Y-124663569D01*
X157978085Y-124629591D01*
X157974000Y-124588110D01*
X157974000Y-123986890D01*
X157978085Y-123945409D01*
X157988393Y-123911431D01*
X158005134Y-123880110D01*
X158027661Y-123852661D01*
X158055110Y-123830134D01*
X158086431Y-123813393D01*
X158120409Y-123803085D01*
X158161890Y-123799000D01*
X158838110Y-123799000D01*
X158879591Y-123803085D01*
G37*
G36*
X163251000Y-124401000D02*
G01*
X160749000Y-124401000D01*
X160749000Y-122299000D01*
X163251000Y-122299000D01*
X163251000Y-124401000D01*
G37*
G36*
X171054591Y-122978085D02*
G01*
X171088569Y-122988393D01*
X171119890Y-123005134D01*
X171147339Y-123027661D01*
X171169866Y-123055110D01*
X171186607Y-123086431D01*
X171196915Y-123120409D01*
X171201000Y-123161890D01*
X171201000Y-123838110D01*
X171196915Y-123879591D01*
X171186607Y-123913569D01*
X171169866Y-123944890D01*
X171147339Y-123972339D01*
X171119890Y-123994866D01*
X171088569Y-124011607D01*
X171054591Y-124021915D01*
X171013110Y-124026000D01*
X170411890Y-124026000D01*
X170370409Y-124021915D01*
X170336431Y-124011607D01*
X170305110Y-123994866D01*
X170277661Y-123972339D01*
X170255134Y-123944890D01*
X170238393Y-123913569D01*
X170228085Y-123879591D01*
X170224000Y-123838110D01*
X170224000Y-123161890D01*
X170228085Y-123120409D01*
X170238393Y-123086431D01*
X170255134Y-123055110D01*
X170277661Y-123027661D01*
X170305110Y-123005134D01*
X170336431Y-122988393D01*
X170370409Y-122978085D01*
X170411890Y-122974000D01*
X171013110Y-122974000D01*
X171054591Y-122978085D01*
G37*
G36*
X172629591Y-122978085D02*
G01*
X172663569Y-122988393D01*
X172694890Y-123005134D01*
X172722339Y-123027661D01*
X172744866Y-123055110D01*
X172761607Y-123086431D01*
X172771915Y-123120409D01*
X172776000Y-123161890D01*
X172776000Y-123838110D01*
X172771915Y-123879591D01*
X172761607Y-123913569D01*
X172744866Y-123944890D01*
X172722339Y-123972339D01*
X172694890Y-123994866D01*
X172663569Y-124011607D01*
X172629591Y-124021915D01*
X172588110Y-124026000D01*
X171986890Y-124026000D01*
X171945409Y-124021915D01*
X171911431Y-124011607D01*
X171880110Y-123994866D01*
X171852661Y-123972339D01*
X171830134Y-123944890D01*
X171813393Y-123913569D01*
X171803085Y-123879591D01*
X171799000Y-123838110D01*
X171799000Y-123161890D01*
X171803085Y-123120409D01*
X171813393Y-123086431D01*
X171830134Y-123055110D01*
X171852661Y-123027661D01*
X171880110Y-123005134D01*
X171911431Y-122988393D01*
X171945409Y-122978085D01*
X171986890Y-122974000D01*
X172588110Y-122974000D01*
X172629591Y-122978085D01*
G37*
G36*
X143879591Y-122728085D02*
G01*
X143913569Y-122738393D01*
X143944890Y-122755134D01*
X143972339Y-122777661D01*
X143994866Y-122805110D01*
X144011607Y-122836431D01*
X144021915Y-122870409D01*
X144026000Y-122911890D01*
X144026000Y-123513110D01*
X144021915Y-123554591D01*
X144011607Y-123588569D01*
X143994866Y-123619890D01*
X143972339Y-123647339D01*
X143944890Y-123669866D01*
X143913569Y-123686607D01*
X143879591Y-123696915D01*
X143838110Y-123701000D01*
X143161890Y-123701000D01*
X143120409Y-123696915D01*
X143086431Y-123686607D01*
X143055110Y-123669866D01*
X143027661Y-123647339D01*
X143005134Y-123619890D01*
X142988393Y-123588569D01*
X142978085Y-123554591D01*
X142974000Y-123513110D01*
X142974000Y-122911890D01*
X142978085Y-122870409D01*
X142988393Y-122836431D01*
X143005134Y-122805110D01*
X143027661Y-122777661D01*
X143055110Y-122755134D01*
X143086431Y-122738393D01*
X143120409Y-122728085D01*
X143161890Y-122724000D01*
X143838110Y-122724000D01*
X143879591Y-122728085D01*
G37*
G36*
X146351000Y-123426000D02*
G01*
X144949000Y-123426000D01*
X144949000Y-117574000D01*
X146351000Y-117574000D01*
X146351000Y-123426000D01*
G37*
G36*
X155051000Y-123426000D02*
G01*
X153649000Y-123426000D01*
X153649000Y-117574000D01*
X155051000Y-117574000D01*
X155051000Y-123426000D01*
G37*
G36*
X156879591Y-122228085D02*
G01*
X156913569Y-122238393D01*
X156944890Y-122255134D01*
X156972339Y-122277661D01*
X156994866Y-122305110D01*
X157011607Y-122336431D01*
X157021915Y-122370409D01*
X157026000Y-122411890D01*
X157026000Y-123013110D01*
X157021915Y-123054591D01*
X157011607Y-123088569D01*
X156994866Y-123119890D01*
X156972339Y-123147339D01*
X156944890Y-123169866D01*
X156913569Y-123186607D01*
X156879591Y-123196915D01*
X156838110Y-123201000D01*
X156161890Y-123201000D01*
X156120409Y-123196915D01*
X156086431Y-123186607D01*
X156055110Y-123169866D01*
X156027661Y-123147339D01*
X156005134Y-123119890D01*
X155988393Y-123088569D01*
X155978085Y-123054591D01*
X155974000Y-123013110D01*
X155974000Y-122411890D01*
X155978085Y-122370409D01*
X155988393Y-122336431D01*
X156005134Y-122305110D01*
X156027661Y-122277661D01*
X156055110Y-122255134D01*
X156086431Y-122238393D01*
X156120409Y-122228085D01*
X156161890Y-122224000D01*
X156838110Y-122224000D01*
X156879591Y-122228085D01*
G37*
G36*
X158879591Y-122228085D02*
G01*
X158913569Y-122238393D01*
X158944890Y-122255134D01*
X158972339Y-122277661D01*
X158994866Y-122305110D01*
X159011607Y-122336431D01*
X159021915Y-122370409D01*
X159026000Y-122411890D01*
X159026000Y-123013110D01*
X159021915Y-123054591D01*
X159011607Y-123088569D01*
X158994866Y-123119890D01*
X158972339Y-123147339D01*
X158944890Y-123169866D01*
X158913569Y-123186607D01*
X158879591Y-123196915D01*
X158838110Y-123201000D01*
X158161890Y-123201000D01*
X158120409Y-123196915D01*
X158086431Y-123186607D01*
X158055110Y-123169866D01*
X158027661Y-123147339D01*
X158005134Y-123119890D01*
X157988393Y-123088569D01*
X157978085Y-123054591D01*
X157974000Y-123013110D01*
X157974000Y-122411890D01*
X157978085Y-122370409D01*
X157988393Y-122336431D01*
X158005134Y-122305110D01*
X158027661Y-122277661D01*
X158055110Y-122255134D01*
X158086431Y-122238393D01*
X158120409Y-122228085D01*
X158161890Y-122224000D01*
X158838110Y-122224000D01*
X158879591Y-122228085D01*
G37*
G36*
X165379591Y-122228085D02*
G01*
X165413569Y-122238393D01*
X165444890Y-122255134D01*
X165472339Y-122277661D01*
X165494866Y-122305110D01*
X165511607Y-122336431D01*
X165521915Y-122370409D01*
X165526000Y-122411890D01*
X165526000Y-123013110D01*
X165521915Y-123054591D01*
X165511607Y-123088569D01*
X165494866Y-123119890D01*
X165472339Y-123147339D01*
X165444890Y-123169866D01*
X165413569Y-123186607D01*
X165379591Y-123196915D01*
X165338110Y-123201000D01*
X164661890Y-123201000D01*
X164620409Y-123196915D01*
X164586431Y-123186607D01*
X164555110Y-123169866D01*
X164527661Y-123147339D01*
X164505134Y-123119890D01*
X164488393Y-123088569D01*
X164478085Y-123054591D01*
X164474000Y-123013110D01*
X164474000Y-122411890D01*
X164478085Y-122370409D01*
X164488393Y-122336431D01*
X164505134Y-122305110D01*
X164527661Y-122277661D01*
X164555110Y-122255134D01*
X164586431Y-122238393D01*
X164620409Y-122228085D01*
X164661890Y-122224000D01*
X165338110Y-122224000D01*
X165379591Y-122228085D01*
G37*
G36*
X134629591Y-121978085D02*
G01*
X134663569Y-121988393D01*
X134694890Y-122005134D01*
X134722339Y-122027661D01*
X134744866Y-122055110D01*
X134761607Y-122086431D01*
X134771915Y-122120409D01*
X134776000Y-122161890D01*
X134776000Y-122838110D01*
X134771915Y-122879591D01*
X134761607Y-122913569D01*
X134744866Y-122944890D01*
X134722339Y-122972339D01*
X134694890Y-122994866D01*
X134663569Y-123011607D01*
X134629591Y-123021915D01*
X134588110Y-123026000D01*
X133986890Y-123026000D01*
X133945409Y-123021915D01*
X133911431Y-123011607D01*
X133880110Y-122994866D01*
X133852661Y-122972339D01*
X133830134Y-122944890D01*
X133813393Y-122913569D01*
X133803085Y-122879591D01*
X133799000Y-122838110D01*
X133799000Y-122161890D01*
X133803085Y-122120409D01*
X133813393Y-122086431D01*
X133830134Y-122055110D01*
X133852661Y-122027661D01*
X133880110Y-122005134D01*
X133911431Y-121988393D01*
X133945409Y-121978085D01*
X133986890Y-121974000D01*
X134588110Y-121974000D01*
X134629591Y-121978085D01*
G37*
G36*
X133054591Y-121978085D02*
G01*
X133088569Y-121988393D01*
X133119890Y-122005134D01*
X133147339Y-122027661D01*
X133169866Y-122055110D01*
X133186607Y-122086431D01*
X133196915Y-122120409D01*
X133201000Y-122161890D01*
X133201000Y-122838110D01*
X133196915Y-122879591D01*
X133186607Y-122913569D01*
X133169866Y-122944890D01*
X133147339Y-122972339D01*
X133119890Y-122994866D01*
X133088569Y-123011607D01*
X133054591Y-123021915D01*
X133013110Y-123026000D01*
X132411890Y-123026000D01*
X132370409Y-123021915D01*
X132336431Y-123011607D01*
X132305110Y-122994866D01*
X132277661Y-122972339D01*
X132255134Y-122944890D01*
X132238393Y-122913569D01*
X132228085Y-122879591D01*
X132224000Y-122838110D01*
X132224000Y-122161890D01*
X132228085Y-122120409D01*
X132238393Y-122086431D01*
X132255134Y-122055110D01*
X132277661Y-122027661D01*
X132305110Y-122005134D01*
X132336431Y-121988393D01*
X132370409Y-121978085D01*
X132411890Y-121974000D01*
X133013110Y-121974000D01*
X133054591Y-121978085D01*
G37*
G36*
X171001000Y-122001000D02*
G01*
X170099000Y-122001000D01*
X170099000Y-120999000D01*
X171001000Y-120999000D01*
X171001000Y-122001000D01*
G37*
G36*
X176901000Y-122001000D02*
G01*
X175999000Y-122001000D01*
X175999000Y-120999000D01*
X176901000Y-120999000D01*
X176901000Y-122001000D01*
G37*
G36*
X172901000Y-122001000D02*
G01*
X171999000Y-122001000D01*
X171999000Y-120999000D01*
X172901000Y-120999000D01*
X172901000Y-122001000D01*
G37*
G36*
X175001000Y-122001000D02*
G01*
X174099000Y-122001000D01*
X174099000Y-120999000D01*
X175001000Y-120999000D01*
X175001000Y-122001000D01*
G37*
G36*
X190046000Y-121391000D02*
G01*
X186844000Y-121391000D01*
X186844000Y-119689000D01*
X190046000Y-119689000D01*
X190046000Y-121391000D01*
G37*
G36*
X181156000Y-121391000D02*
G01*
X177954000Y-121391000D01*
X177954000Y-119689000D01*
X181156000Y-119689000D01*
X181156000Y-121391000D01*
G37*
G36*
X124775331Y-117758211D02*
G01*
X125103092Y-117893974D01*
X125398070Y-118091072D01*
X125648928Y-118341930D01*
X125846026Y-118636908D01*
X125981789Y-118964669D01*
X126051000Y-119312616D01*
X126051000Y-119667384D01*
X125981789Y-120015331D01*
X125846026Y-120343092D01*
X125648928Y-120638070D01*
X125398070Y-120888928D01*
X125103092Y-121086026D01*
X124775331Y-121221789D01*
X124427384Y-121291000D01*
X124072616Y-121291000D01*
X123724669Y-121221789D01*
X123396908Y-121086026D01*
X123101930Y-120888928D01*
X122851072Y-120638070D01*
X122653974Y-120343092D01*
X122518211Y-120015331D01*
X122449000Y-119667384D01*
X122449000Y-119312616D01*
X122518211Y-118964669D01*
X122653974Y-118636908D01*
X122851072Y-118341930D01*
X123101930Y-118091072D01*
X123396908Y-117893974D01*
X123724669Y-117758211D01*
X124072616Y-117689000D01*
X124427384Y-117689000D01*
X124775331Y-117758211D01*
G37*
G36*
X133054591Y-119978085D02*
G01*
X133088569Y-119988393D01*
X133119890Y-120005134D01*
X133147339Y-120027661D01*
X133169866Y-120055110D01*
X133186607Y-120086431D01*
X133196915Y-120120409D01*
X133201000Y-120161890D01*
X133201000Y-120838110D01*
X133196915Y-120879591D01*
X133186607Y-120913569D01*
X133169866Y-120944890D01*
X133147339Y-120972339D01*
X133119890Y-120994866D01*
X133088569Y-121011607D01*
X133054591Y-121021915D01*
X133013110Y-121026000D01*
X132411890Y-121026000D01*
X132370409Y-121021915D01*
X132336431Y-121011607D01*
X132305110Y-120994866D01*
X132277661Y-120972339D01*
X132255134Y-120944890D01*
X132238393Y-120913569D01*
X132228085Y-120879591D01*
X132224000Y-120838110D01*
X132224000Y-120161890D01*
X132228085Y-120120409D01*
X132238393Y-120086431D01*
X132255134Y-120055110D01*
X132277661Y-120027661D01*
X132305110Y-120005134D01*
X132336431Y-119988393D01*
X132370409Y-119978085D01*
X132411890Y-119974000D01*
X133013110Y-119974000D01*
X133054591Y-119978085D01*
G37*
G36*
X134629591Y-119978085D02*
G01*
X134663569Y-119988393D01*
X134694890Y-120005134D01*
X134722339Y-120027661D01*
X134744866Y-120055110D01*
X134761607Y-120086431D01*
X134771915Y-120120409D01*
X134776000Y-120161890D01*
X134776000Y-120838110D01*
X134771915Y-120879591D01*
X134761607Y-120913569D01*
X134744866Y-120944890D01*
X134722339Y-120972339D01*
X134694890Y-120994866D01*
X134663569Y-121011607D01*
X134629591Y-121021915D01*
X134588110Y-121026000D01*
X133986890Y-121026000D01*
X133945409Y-121021915D01*
X133911431Y-121011607D01*
X133880110Y-120994866D01*
X133852661Y-120972339D01*
X133830134Y-120944890D01*
X133813393Y-120913569D01*
X133803085Y-120879591D01*
X133799000Y-120838110D01*
X133799000Y-120161890D01*
X133803085Y-120120409D01*
X133813393Y-120086431D01*
X133830134Y-120055110D01*
X133852661Y-120027661D01*
X133880110Y-120005134D01*
X133911431Y-119988393D01*
X133945409Y-119978085D01*
X133986890Y-119974000D01*
X134588110Y-119974000D01*
X134629591Y-119978085D01*
G37*
G36*
X165379591Y-120015585D02*
G01*
X165413569Y-120025893D01*
X165444890Y-120042634D01*
X165472339Y-120065161D01*
X165494866Y-120092610D01*
X165511607Y-120123931D01*
X165521915Y-120157909D01*
X165526000Y-120199390D01*
X165526000Y-120800610D01*
X165521915Y-120842091D01*
X165511607Y-120876069D01*
X165494866Y-120907390D01*
X165472339Y-120934839D01*
X165444890Y-120957366D01*
X165413569Y-120974107D01*
X165379591Y-120984415D01*
X165338110Y-120988500D01*
X164661890Y-120988500D01*
X164620409Y-120984415D01*
X164586431Y-120974107D01*
X164555110Y-120957366D01*
X164527661Y-120934839D01*
X164505134Y-120907390D01*
X164488393Y-120876069D01*
X164478085Y-120842091D01*
X164474000Y-120800610D01*
X164474000Y-120199390D01*
X164478085Y-120157909D01*
X164488393Y-120123931D01*
X164505134Y-120092610D01*
X164527661Y-120065161D01*
X164555110Y-120042634D01*
X164586431Y-120025893D01*
X164620409Y-120015585D01*
X164661890Y-120011500D01*
X165338110Y-120011500D01*
X165379591Y-120015585D01*
G37*
G36*
X163251000Y-120701000D02*
G01*
X160749000Y-120701000D01*
X160749000Y-118599000D01*
X163251000Y-118599000D01*
X163251000Y-120701000D01*
G37*
G36*
X158879591Y-119303085D02*
G01*
X158913569Y-119313393D01*
X158944890Y-119330134D01*
X158972339Y-119352661D01*
X158994866Y-119380110D01*
X159011607Y-119411431D01*
X159021915Y-119445409D01*
X159026000Y-119486890D01*
X159026000Y-120088110D01*
X159021915Y-120129591D01*
X159011607Y-120163569D01*
X158994866Y-120194890D01*
X158972339Y-120222339D01*
X158944890Y-120244866D01*
X158913569Y-120261607D01*
X158879591Y-120271915D01*
X158838110Y-120276000D01*
X158161890Y-120276000D01*
X158120409Y-120271915D01*
X158086431Y-120261607D01*
X158055110Y-120244866D01*
X158027661Y-120222339D01*
X158005134Y-120194890D01*
X157988393Y-120163569D01*
X157978085Y-120129591D01*
X157974000Y-120088110D01*
X157974000Y-119486890D01*
X157978085Y-119445409D01*
X157988393Y-119411431D01*
X158005134Y-119380110D01*
X158027661Y-119352661D01*
X158055110Y-119330134D01*
X158086431Y-119313393D01*
X158120409Y-119303085D01*
X158161890Y-119299000D01*
X158838110Y-119299000D01*
X158879591Y-119303085D01*
G37*
G36*
X156879591Y-119303085D02*
G01*
X156913569Y-119313393D01*
X156944890Y-119330134D01*
X156972339Y-119352661D01*
X156994866Y-119380110D01*
X157011607Y-119411431D01*
X157021915Y-119445409D01*
X157026000Y-119486890D01*
X157026000Y-120088110D01*
X157021915Y-120129591D01*
X157011607Y-120163569D01*
X156994866Y-120194890D01*
X156972339Y-120222339D01*
X156944890Y-120244866D01*
X156913569Y-120261607D01*
X156879591Y-120271915D01*
X156838110Y-120276000D01*
X156161890Y-120276000D01*
X156120409Y-120271915D01*
X156086431Y-120261607D01*
X156055110Y-120244866D01*
X156027661Y-120222339D01*
X156005134Y-120194890D01*
X155988393Y-120163569D01*
X155978085Y-120129591D01*
X155974000Y-120088110D01*
X155974000Y-119486890D01*
X155978085Y-119445409D01*
X155988393Y-119411431D01*
X156005134Y-119380110D01*
X156027661Y-119352661D01*
X156055110Y-119330134D01*
X156086431Y-119313393D01*
X156120409Y-119303085D01*
X156161890Y-119299000D01*
X156838110Y-119299000D01*
X156879591Y-119303085D01*
G37*
G36*
X175951000Y-120001000D02*
G01*
X175049000Y-120001000D01*
X175049000Y-118999000D01*
X175951000Y-118999000D01*
X175951000Y-120001000D01*
G37*
G36*
X171951000Y-120001000D02*
G01*
X171049000Y-120001000D01*
X171049000Y-118999000D01*
X171951000Y-118999000D01*
X171951000Y-120001000D01*
G37*
G36*
X165379591Y-118440585D02*
G01*
X165413569Y-118450893D01*
X165444890Y-118467634D01*
X165472339Y-118490161D01*
X165494866Y-118517610D01*
X165511607Y-118548931D01*
X165521915Y-118582909D01*
X165526000Y-118624390D01*
X165526000Y-119225610D01*
X165521915Y-119267091D01*
X165511607Y-119301069D01*
X165494866Y-119332390D01*
X165472339Y-119359839D01*
X165444890Y-119382366D01*
X165413569Y-119399107D01*
X165379591Y-119409415D01*
X165338110Y-119413500D01*
X164661890Y-119413500D01*
X164620409Y-119409415D01*
X164586431Y-119399107D01*
X164555110Y-119382366D01*
X164527661Y-119359839D01*
X164505134Y-119332390D01*
X164488393Y-119301069D01*
X164478085Y-119267091D01*
X164474000Y-119225610D01*
X164474000Y-118624390D01*
X164478085Y-118582909D01*
X164488393Y-118548931D01*
X164505134Y-118517610D01*
X164527661Y-118490161D01*
X164555110Y-118467634D01*
X164586431Y-118450893D01*
X164620409Y-118440585D01*
X164661890Y-118436500D01*
X165338110Y-118436500D01*
X165379591Y-118440585D01*
G37*
G36*
X194918604Y-117078347D02*
G01*
X194955144Y-117089432D01*
X194988821Y-117107433D01*
X195018341Y-117131659D01*
X195042567Y-117161179D01*
X195060568Y-117194856D01*
X195071653Y-117231396D01*
X195076000Y-117275538D01*
X195076000Y-118724462D01*
X195071653Y-118768604D01*
X195060568Y-118805144D01*
X195042567Y-118838821D01*
X195018341Y-118868341D01*
X194988821Y-118892567D01*
X194955144Y-118910568D01*
X194918604Y-118921653D01*
X194874462Y-118926000D01*
X193925538Y-118926000D01*
X193881396Y-118921653D01*
X193844856Y-118910568D01*
X193811179Y-118892567D01*
X193781659Y-118868341D01*
X193757433Y-118838821D01*
X193739432Y-118805144D01*
X193728347Y-118768604D01*
X193724000Y-118724462D01*
X193724000Y-117275538D01*
X193728347Y-117231396D01*
X193739432Y-117194856D01*
X193757433Y-117161179D01*
X193781659Y-117131659D01*
X193811179Y-117107433D01*
X193844856Y-117089432D01*
X193881396Y-117078347D01*
X193925538Y-117074000D01*
X194874462Y-117074000D01*
X194918604Y-117078347D01*
G37*
G36*
X192118604Y-117078347D02*
G01*
X192155144Y-117089432D01*
X192188821Y-117107433D01*
X192218341Y-117131659D01*
X192242567Y-117161179D01*
X192260568Y-117194856D01*
X192271653Y-117231396D01*
X192276000Y-117275538D01*
X192276000Y-118724462D01*
X192271653Y-118768604D01*
X192260568Y-118805144D01*
X192242567Y-118838821D01*
X192218341Y-118868341D01*
X192188821Y-118892567D01*
X192155144Y-118910568D01*
X192118604Y-118921653D01*
X192074462Y-118926000D01*
X191125538Y-118926000D01*
X191081396Y-118921653D01*
X191044856Y-118910568D01*
X191011179Y-118892567D01*
X190981659Y-118868341D01*
X190957433Y-118838821D01*
X190939432Y-118805144D01*
X190928347Y-118768604D01*
X190924000Y-118724462D01*
X190924000Y-117275538D01*
X190928347Y-117231396D01*
X190939432Y-117194856D01*
X190957433Y-117161179D01*
X190981659Y-117131659D01*
X191011179Y-117107433D01*
X191044856Y-117089432D01*
X191081396Y-117078347D01*
X191125538Y-117074000D01*
X192074462Y-117074000D01*
X192118604Y-117078347D01*
G37*
G36*
X190046000Y-118851000D02*
G01*
X186844000Y-118851000D01*
X186844000Y-117149000D01*
X190046000Y-117149000D01*
X190046000Y-118851000D01*
G37*
G36*
X181156000Y-118851000D02*
G01*
X177954000Y-118851000D01*
X177954000Y-117149000D01*
X181156000Y-117149000D01*
X181156000Y-118851000D01*
G37*
G36*
X156879591Y-117728085D02*
G01*
X156913569Y-117738393D01*
X156944890Y-117755134D01*
X156972339Y-117777661D01*
X156994866Y-117805110D01*
X157011607Y-117836431D01*
X157021915Y-117870409D01*
X157026000Y-117911890D01*
X157026000Y-118513110D01*
X157021915Y-118554591D01*
X157011607Y-118588569D01*
X156994866Y-118619890D01*
X156972339Y-118647339D01*
X156944890Y-118669866D01*
X156913569Y-118686607D01*
X156879591Y-118696915D01*
X156838110Y-118701000D01*
X156161890Y-118701000D01*
X156120409Y-118696915D01*
X156086431Y-118686607D01*
X156055110Y-118669866D01*
X156027661Y-118647339D01*
X156005134Y-118619890D01*
X155988393Y-118588569D01*
X155978085Y-118554591D01*
X155974000Y-118513110D01*
X155974000Y-117911890D01*
X155978085Y-117870409D01*
X155988393Y-117836431D01*
X156005134Y-117805110D01*
X156027661Y-117777661D01*
X156055110Y-117755134D01*
X156086431Y-117738393D01*
X156120409Y-117728085D01*
X156161890Y-117724000D01*
X156838110Y-117724000D01*
X156879591Y-117728085D01*
G37*
G36*
X158879591Y-117728085D02*
G01*
X158913569Y-117738393D01*
X158944890Y-117755134D01*
X158972339Y-117777661D01*
X158994866Y-117805110D01*
X159011607Y-117836431D01*
X159021915Y-117870409D01*
X159026000Y-117911890D01*
X159026000Y-118513110D01*
X159021915Y-118554591D01*
X159011607Y-118588569D01*
X158994866Y-118619890D01*
X158972339Y-118647339D01*
X158944890Y-118669866D01*
X158913569Y-118686607D01*
X158879591Y-118696915D01*
X158838110Y-118701000D01*
X158161890Y-118701000D01*
X158120409Y-118696915D01*
X158086431Y-118686607D01*
X158055110Y-118669866D01*
X158027661Y-118647339D01*
X158005134Y-118619890D01*
X157988393Y-118588569D01*
X157978085Y-118554591D01*
X157974000Y-118513110D01*
X157974000Y-117911890D01*
X157978085Y-117870409D01*
X157988393Y-117836431D01*
X158005134Y-117805110D01*
X158027661Y-117777661D01*
X158055110Y-117755134D01*
X158086431Y-117738393D01*
X158120409Y-117728085D01*
X158161890Y-117724000D01*
X158838110Y-117724000D01*
X158879591Y-117728085D01*
G37*
G36*
X171054591Y-116978085D02*
G01*
X171088569Y-116988393D01*
X171119890Y-117005134D01*
X171147339Y-117027661D01*
X171169866Y-117055110D01*
X171186607Y-117086431D01*
X171196915Y-117120409D01*
X171201000Y-117161890D01*
X171201000Y-117838110D01*
X171196915Y-117879591D01*
X171186607Y-117913569D01*
X171169866Y-117944890D01*
X171147339Y-117972339D01*
X171119890Y-117994866D01*
X171088569Y-118011607D01*
X171054591Y-118021915D01*
X171013110Y-118026000D01*
X170411890Y-118026000D01*
X170370409Y-118021915D01*
X170336431Y-118011607D01*
X170305110Y-117994866D01*
X170277661Y-117972339D01*
X170255134Y-117944890D01*
X170238393Y-117913569D01*
X170228085Y-117879591D01*
X170224000Y-117838110D01*
X170224000Y-117161890D01*
X170228085Y-117120409D01*
X170238393Y-117086431D01*
X170255134Y-117055110D01*
X170277661Y-117027661D01*
X170305110Y-117005134D01*
X170336431Y-116988393D01*
X170370409Y-116978085D01*
X170411890Y-116974000D01*
X171013110Y-116974000D01*
X171054591Y-116978085D01*
G37*
G36*
X172629591Y-116978085D02*
G01*
X172663569Y-116988393D01*
X172694890Y-117005134D01*
X172722339Y-117027661D01*
X172744866Y-117055110D01*
X172761607Y-117086431D01*
X172771915Y-117120409D01*
X172776000Y-117161890D01*
X172776000Y-117838110D01*
X172771915Y-117879591D01*
X172761607Y-117913569D01*
X172744866Y-117944890D01*
X172722339Y-117972339D01*
X172694890Y-117994866D01*
X172663569Y-118011607D01*
X172629591Y-118021915D01*
X172588110Y-118026000D01*
X171986890Y-118026000D01*
X171945409Y-118021915D01*
X171911431Y-118011607D01*
X171880110Y-117994866D01*
X171852661Y-117972339D01*
X171830134Y-117944890D01*
X171813393Y-117913569D01*
X171803085Y-117879591D01*
X171799000Y-117838110D01*
X171799000Y-117161890D01*
X171803085Y-117120409D01*
X171813393Y-117086431D01*
X171830134Y-117055110D01*
X171852661Y-117027661D01*
X171880110Y-117005134D01*
X171911431Y-116988393D01*
X171945409Y-116978085D01*
X171986890Y-116974000D01*
X172588110Y-116974000D01*
X172629591Y-116978085D01*
G37*
G36*
X152926000Y-116851000D02*
G01*
X147074000Y-116851000D01*
X147074000Y-115449000D01*
X152926000Y-115449000D01*
X152926000Y-116851000D01*
G37*
G36*
X209389943Y-110566248D02*
G01*
X209945189Y-110796238D01*
X210140561Y-110926782D01*
X210444899Y-111130134D01*
X210869866Y-111555101D01*
X211018440Y-111777458D01*
X211203762Y-112054811D01*
X211433752Y-112610057D01*
X211551000Y-113199501D01*
X211551000Y-113800499D01*
X211433752Y-114389943D01*
X211203762Y-114945189D01*
X211181375Y-114978693D01*
X210869866Y-115444899D01*
X210444899Y-115869866D01*
X210304573Y-115963629D01*
X209945189Y-116203762D01*
X209389943Y-116433752D01*
X208800499Y-116551000D01*
X208199501Y-116551000D01*
X207610057Y-116433752D01*
X207054811Y-116203762D01*
X206695427Y-115963629D01*
X206555101Y-115869866D01*
X206130134Y-115444899D01*
X205818625Y-114978693D01*
X205796238Y-114945189D01*
X205566248Y-114389943D01*
X205449000Y-113800499D01*
X205449000Y-113199501D01*
X205566248Y-112610057D01*
X205796238Y-112054811D01*
X205981560Y-111777458D01*
X206130134Y-111555101D01*
X206555101Y-111130134D01*
X206859439Y-110926782D01*
X207054811Y-110796238D01*
X207610057Y-110566248D01*
X208199501Y-110449000D01*
X208800499Y-110449000D01*
X209389943Y-110566248D01*
G37*
G36*
X192118604Y-114578347D02*
G01*
X192155144Y-114589432D01*
X192188821Y-114607433D01*
X192218341Y-114631659D01*
X192242567Y-114661179D01*
X192260568Y-114694856D01*
X192271653Y-114731396D01*
X192276000Y-114775538D01*
X192276000Y-116224462D01*
X192271653Y-116268604D01*
X192260568Y-116305144D01*
X192242567Y-116338821D01*
X192218341Y-116368341D01*
X192188821Y-116392567D01*
X192155144Y-116410568D01*
X192118604Y-116421653D01*
X192074462Y-116426000D01*
X191125538Y-116426000D01*
X191081396Y-116421653D01*
X191044856Y-116410568D01*
X191011179Y-116392567D01*
X190981659Y-116368341D01*
X190957433Y-116338821D01*
X190939432Y-116305144D01*
X190928347Y-116268604D01*
X190924000Y-116224462D01*
X190924000Y-114775538D01*
X190928347Y-114731396D01*
X190939432Y-114694856D01*
X190957433Y-114661179D01*
X190981659Y-114631659D01*
X191011179Y-114607433D01*
X191044856Y-114589432D01*
X191081396Y-114578347D01*
X191125538Y-114574000D01*
X192074462Y-114574000D01*
X192118604Y-114578347D01*
G37*
G36*
X194918604Y-114578347D02*
G01*
X194955144Y-114589432D01*
X194988821Y-114607433D01*
X195018341Y-114631659D01*
X195042567Y-114661179D01*
X195060568Y-114694856D01*
X195071653Y-114731396D01*
X195076000Y-114775538D01*
X195076000Y-116224462D01*
X195071653Y-116268604D01*
X195060568Y-116305144D01*
X195042567Y-116338821D01*
X195018341Y-116368341D01*
X194988821Y-116392567D01*
X194955144Y-116410568D01*
X194918604Y-116421653D01*
X194874462Y-116426000D01*
X193925538Y-116426000D01*
X193881396Y-116421653D01*
X193844856Y-116410568D01*
X193811179Y-116392567D01*
X193781659Y-116368341D01*
X193757433Y-116338821D01*
X193739432Y-116305144D01*
X193728347Y-116268604D01*
X193724000Y-116224462D01*
X193724000Y-114775538D01*
X193728347Y-114731396D01*
X193739432Y-114694856D01*
X193757433Y-114661179D01*
X193781659Y-114631659D01*
X193811179Y-114607433D01*
X193844856Y-114589432D01*
X193881396Y-114578347D01*
X193925538Y-114574000D01*
X194874462Y-114574000D01*
X194918604Y-114578347D01*
G37*
G36*
X181156000Y-116311000D02*
G01*
X177954000Y-116311000D01*
X177954000Y-114609000D01*
X181156000Y-114609000D01*
X181156000Y-116311000D01*
G37*
G36*
X190046000Y-116311000D02*
G01*
X186844000Y-116311000D01*
X186844000Y-114609000D01*
X190046000Y-114609000D01*
X190046000Y-116311000D01*
G37*
G36*
X175054591Y-114978085D02*
G01*
X175088569Y-114988393D01*
X175119890Y-115005134D01*
X175147339Y-115027661D01*
X175169866Y-115055110D01*
X175186607Y-115086431D01*
X175196915Y-115120409D01*
X175201000Y-115161890D01*
X175201000Y-115838110D01*
X175196915Y-115879591D01*
X175186607Y-115913569D01*
X175169866Y-115944890D01*
X175147339Y-115972339D01*
X175119890Y-115994866D01*
X175088569Y-116011607D01*
X175054591Y-116021915D01*
X175013110Y-116026000D01*
X174411890Y-116026000D01*
X174370409Y-116021915D01*
X174336431Y-116011607D01*
X174305110Y-115994866D01*
X174277661Y-115972339D01*
X174255134Y-115944890D01*
X174238393Y-115913569D01*
X174228085Y-115879591D01*
X174224000Y-115838110D01*
X174224000Y-115161890D01*
X174228085Y-115120409D01*
X174238393Y-115086431D01*
X174255134Y-115055110D01*
X174277661Y-115027661D01*
X174305110Y-115005134D01*
X174336431Y-114988393D01*
X174370409Y-114978085D01*
X174411890Y-114974000D01*
X175013110Y-114974000D01*
X175054591Y-114978085D01*
G37*
G36*
X176629591Y-114978085D02*
G01*
X176663569Y-114988393D01*
X176694890Y-115005134D01*
X176722339Y-115027661D01*
X176744866Y-115055110D01*
X176761607Y-115086431D01*
X176771915Y-115120409D01*
X176776000Y-115161890D01*
X176776000Y-115838110D01*
X176771915Y-115879591D01*
X176761607Y-115913569D01*
X176744866Y-115944890D01*
X176722339Y-115972339D01*
X176694890Y-115994866D01*
X176663569Y-116011607D01*
X176629591Y-116021915D01*
X176588110Y-116026000D01*
X175986890Y-116026000D01*
X175945409Y-116021915D01*
X175911431Y-116011607D01*
X175880110Y-115994866D01*
X175852661Y-115972339D01*
X175830134Y-115944890D01*
X175813393Y-115913569D01*
X175803085Y-115879591D01*
X175799000Y-115838110D01*
X175799000Y-115161890D01*
X175803085Y-115120409D01*
X175813393Y-115086431D01*
X175830134Y-115055110D01*
X175852661Y-115027661D01*
X175880110Y-115005134D01*
X175911431Y-114988393D01*
X175945409Y-114978085D01*
X175986890Y-114974000D01*
X176588110Y-114974000D01*
X176629591Y-114978085D01*
G37*
G36*
X172629591Y-114978085D02*
G01*
X172663569Y-114988393D01*
X172694890Y-115005134D01*
X172722339Y-115027661D01*
X172744866Y-115055110D01*
X172761607Y-115086431D01*
X172771915Y-115120409D01*
X172776000Y-115161890D01*
X172776000Y-115838110D01*
X172771915Y-115879591D01*
X172761607Y-115913569D01*
X172744866Y-115944890D01*
X172722339Y-115972339D01*
X172694890Y-115994866D01*
X172663569Y-116011607D01*
X172629591Y-116021915D01*
X172588110Y-116026000D01*
X171986890Y-116026000D01*
X171945409Y-116021915D01*
X171911431Y-116011607D01*
X171880110Y-115994866D01*
X171852661Y-115972339D01*
X171830134Y-115944890D01*
X171813393Y-115913569D01*
X171803085Y-115879591D01*
X171799000Y-115838110D01*
X171799000Y-115161890D01*
X171803085Y-115120409D01*
X171813393Y-115086431D01*
X171830134Y-115055110D01*
X171852661Y-115027661D01*
X171880110Y-115005134D01*
X171911431Y-114988393D01*
X171945409Y-114978085D01*
X171986890Y-114974000D01*
X172588110Y-114974000D01*
X172629591Y-114978085D01*
G37*
G36*
X171054591Y-114978085D02*
G01*
X171088569Y-114988393D01*
X171119890Y-115005134D01*
X171147339Y-115027661D01*
X171169866Y-115055110D01*
X171186607Y-115086431D01*
X171196915Y-115120409D01*
X171201000Y-115161890D01*
X171201000Y-115838110D01*
X171196915Y-115879591D01*
X171186607Y-115913569D01*
X171169866Y-115944890D01*
X171147339Y-115972339D01*
X171119890Y-115994866D01*
X171088569Y-116011607D01*
X171054591Y-116021915D01*
X171013110Y-116026000D01*
X170411890Y-116026000D01*
X170370409Y-116021915D01*
X170336431Y-116011607D01*
X170305110Y-115994866D01*
X170277661Y-115972339D01*
X170255134Y-115944890D01*
X170238393Y-115913569D01*
X170228085Y-115879591D01*
X170224000Y-115838110D01*
X170224000Y-115161890D01*
X170228085Y-115120409D01*
X170238393Y-115086431D01*
X170255134Y-115055110D01*
X170277661Y-115027661D01*
X170305110Y-115005134D01*
X170336431Y-114988393D01*
X170370409Y-114978085D01*
X170411890Y-114974000D01*
X171013110Y-114974000D01*
X171054591Y-114978085D01*
G37*
G36*
X133054591Y-112978085D02*
G01*
X133088569Y-112988393D01*
X133119890Y-113005134D01*
X133147339Y-113027661D01*
X133169866Y-113055110D01*
X133186607Y-113086431D01*
X133196915Y-113120409D01*
X133201000Y-113161890D01*
X133201000Y-113838110D01*
X133196915Y-113879591D01*
X133186607Y-113913569D01*
X133169866Y-113944890D01*
X133147339Y-113972339D01*
X133119890Y-113994866D01*
X133088569Y-114011607D01*
X133054591Y-114021915D01*
X133013110Y-114026000D01*
X132411890Y-114026000D01*
X132370409Y-114021915D01*
X132336431Y-114011607D01*
X132305110Y-113994866D01*
X132277661Y-113972339D01*
X132255134Y-113944890D01*
X132238393Y-113913569D01*
X132228085Y-113879591D01*
X132224000Y-113838110D01*
X132224000Y-113161890D01*
X132228085Y-113120409D01*
X132238393Y-113086431D01*
X132255134Y-113055110D01*
X132277661Y-113027661D01*
X132305110Y-113005134D01*
X132336431Y-112988393D01*
X132370409Y-112978085D01*
X132411890Y-112974000D01*
X133013110Y-112974000D01*
X133054591Y-112978085D01*
G37*
G36*
X134629591Y-112978085D02*
G01*
X134663569Y-112988393D01*
X134694890Y-113005134D01*
X134722339Y-113027661D01*
X134744866Y-113055110D01*
X134761607Y-113086431D01*
X134771915Y-113120409D01*
X134776000Y-113161890D01*
X134776000Y-113838110D01*
X134771915Y-113879591D01*
X134761607Y-113913569D01*
X134744866Y-113944890D01*
X134722339Y-113972339D01*
X134694890Y-113994866D01*
X134663569Y-114011607D01*
X134629591Y-114021915D01*
X134588110Y-114026000D01*
X133986890Y-114026000D01*
X133945409Y-114021915D01*
X133911431Y-114011607D01*
X133880110Y-113994866D01*
X133852661Y-113972339D01*
X133830134Y-113944890D01*
X133813393Y-113913569D01*
X133803085Y-113879591D01*
X133799000Y-113838110D01*
X133799000Y-113161890D01*
X133803085Y-113120409D01*
X133813393Y-113086431D01*
X133830134Y-113055110D01*
X133852661Y-113027661D01*
X133880110Y-113005134D01*
X133911431Y-112988393D01*
X133945409Y-112978085D01*
X133986890Y-112974000D01*
X134588110Y-112974000D01*
X134629591Y-112978085D01*
G37*
G36*
X148129591Y-112978085D02*
G01*
X148163569Y-112988393D01*
X148194890Y-113005134D01*
X148222339Y-113027661D01*
X148244866Y-113055110D01*
X148261607Y-113086431D01*
X148271915Y-113120409D01*
X148276000Y-113161890D01*
X148276000Y-113838110D01*
X148271915Y-113879591D01*
X148261607Y-113913569D01*
X148244866Y-113944890D01*
X148222339Y-113972339D01*
X148194890Y-113994866D01*
X148163569Y-114011607D01*
X148129591Y-114021915D01*
X148088110Y-114026000D01*
X147486890Y-114026000D01*
X147445409Y-114021915D01*
X147411431Y-114011607D01*
X147380110Y-113994866D01*
X147352661Y-113972339D01*
X147330134Y-113944890D01*
X147313393Y-113913569D01*
X147303085Y-113879591D01*
X147299000Y-113838110D01*
X147299000Y-113161890D01*
X147303085Y-113120409D01*
X147313393Y-113086431D01*
X147330134Y-113055110D01*
X147352661Y-113027661D01*
X147380110Y-113005134D01*
X147411431Y-112988393D01*
X147445409Y-112978085D01*
X147486890Y-112974000D01*
X148088110Y-112974000D01*
X148129591Y-112978085D01*
G37*
G36*
X146554591Y-112978085D02*
G01*
X146588569Y-112988393D01*
X146619890Y-113005134D01*
X146647339Y-113027661D01*
X146669866Y-113055110D01*
X146686607Y-113086431D01*
X146696915Y-113120409D01*
X146701000Y-113161890D01*
X146701000Y-113838110D01*
X146696915Y-113879591D01*
X146686607Y-113913569D01*
X146669866Y-113944890D01*
X146647339Y-113972339D01*
X146619890Y-113994866D01*
X146588569Y-114011607D01*
X146554591Y-114021915D01*
X146513110Y-114026000D01*
X145911890Y-114026000D01*
X145870409Y-114021915D01*
X145836431Y-114011607D01*
X145805110Y-113994866D01*
X145777661Y-113972339D01*
X145755134Y-113944890D01*
X145738393Y-113913569D01*
X145728085Y-113879591D01*
X145724000Y-113838110D01*
X145724000Y-113161890D01*
X145728085Y-113120409D01*
X145738393Y-113086431D01*
X145755134Y-113055110D01*
X145777661Y-113027661D01*
X145805110Y-113005134D01*
X145836431Y-112988393D01*
X145870409Y-112978085D01*
X145911890Y-112974000D01*
X146513110Y-112974000D01*
X146554591Y-112978085D01*
G37*
G36*
X174733512Y-109603927D02*
G01*
X174882812Y-109633624D01*
X175046784Y-109701544D01*
X175194354Y-109800147D01*
X175319853Y-109925646D01*
X175418456Y-110073216D01*
X175486376Y-110237188D01*
X175521000Y-110411259D01*
X175521000Y-110588741D01*
X175486376Y-110762812D01*
X175418456Y-110926784D01*
X175319853Y-111074354D01*
X175194354Y-111199853D01*
X175046784Y-111298456D01*
X174882812Y-111366376D01*
X174733512Y-111396073D01*
X174708742Y-111401000D01*
X174531258Y-111401000D01*
X174506488Y-111396073D01*
X174357188Y-111366376D01*
X174193216Y-111298456D01*
X174045646Y-111199853D01*
X173920147Y-111074354D01*
X173821544Y-110926784D01*
X173753624Y-110762812D01*
X173719000Y-110588741D01*
X173719000Y-110411259D01*
X173753624Y-110237188D01*
X173821544Y-110073216D01*
X173920147Y-109925646D01*
X174045646Y-109800147D01*
X174193216Y-109701544D01*
X174357188Y-109633624D01*
X174506488Y-109603927D01*
X174531258Y-109599000D01*
X174708742Y-109599000D01*
X174733512Y-109603927D01*
G37*
G36*
X128533512Y-109603927D02*
G01*
X128682812Y-109633624D01*
X128846784Y-109701544D01*
X128994354Y-109800147D01*
X129119853Y-109925646D01*
X129218456Y-110073216D01*
X129286376Y-110237188D01*
X129321000Y-110411259D01*
X129321000Y-110588741D01*
X129286376Y-110762812D01*
X129218456Y-110926784D01*
X129119853Y-111074354D01*
X128994354Y-111199853D01*
X128846784Y-111298456D01*
X128682812Y-111366376D01*
X128533512Y-111396073D01*
X128508742Y-111401000D01*
X128331258Y-111401000D01*
X128306488Y-111396073D01*
X128157188Y-111366376D01*
X127993216Y-111298456D01*
X127845646Y-111199853D01*
X127720147Y-111074354D01*
X127621544Y-110926784D01*
X127553624Y-110762812D01*
X127519000Y-110588741D01*
X127519000Y-110411259D01*
X127553624Y-110237188D01*
X127621544Y-110073216D01*
X127720147Y-109925646D01*
X127845646Y-109800147D01*
X127993216Y-109701544D01*
X128157188Y-109633624D01*
X128306488Y-109603927D01*
X128331258Y-109599000D01*
X128508742Y-109599000D01*
X128533512Y-109603927D01*
G37*
G36*
X177273512Y-109603927D02*
G01*
X177422812Y-109633624D01*
X177586784Y-109701544D01*
X177734354Y-109800147D01*
X177859853Y-109925646D01*
X177958456Y-110073216D01*
X178026376Y-110237188D01*
X178061000Y-110411259D01*
X178061000Y-110588741D01*
X178026376Y-110762812D01*
X177958456Y-110926784D01*
X177859853Y-111074354D01*
X177734354Y-111199853D01*
X177586784Y-111298456D01*
X177422812Y-111366376D01*
X177273512Y-111396073D01*
X177248742Y-111401000D01*
X177071258Y-111401000D01*
X177046488Y-111396073D01*
X176897188Y-111366376D01*
X176733216Y-111298456D01*
X176585646Y-111199853D01*
X176460147Y-111074354D01*
X176361544Y-110926784D01*
X176293624Y-110762812D01*
X176259000Y-110588741D01*
X176259000Y-110411259D01*
X176293624Y-110237188D01*
X176361544Y-110073216D01*
X176460147Y-109925646D01*
X176585646Y-109800147D01*
X176733216Y-109701544D01*
X176897188Y-109633624D01*
X177046488Y-109603927D01*
X177071258Y-109599000D01*
X177248742Y-109599000D01*
X177273512Y-109603927D01*
G37*
G36*
X141321000Y-111401000D02*
G01*
X139519000Y-111401000D01*
X139519000Y-109599000D01*
X141321000Y-109599000D01*
X141321000Y-111401000D01*
G37*
G36*
X119161000Y-111401000D02*
G01*
X117359000Y-111401000D01*
X117359000Y-109599000D01*
X119161000Y-109599000D01*
X119161000Y-111401000D01*
G37*
G36*
X120913512Y-109603927D02*
G01*
X121062812Y-109633624D01*
X121226784Y-109701544D01*
X121374354Y-109800147D01*
X121499853Y-109925646D01*
X121598456Y-110073216D01*
X121666376Y-110237188D01*
X121701000Y-110411259D01*
X121701000Y-110588741D01*
X121666376Y-110762812D01*
X121598456Y-110926784D01*
X121499853Y-111074354D01*
X121374354Y-111199853D01*
X121226784Y-111298456D01*
X121062812Y-111366376D01*
X120913512Y-111396073D01*
X120888742Y-111401000D01*
X120711258Y-111401000D01*
X120686488Y-111396073D01*
X120537188Y-111366376D01*
X120373216Y-111298456D01*
X120225646Y-111199853D01*
X120100147Y-111074354D01*
X120001544Y-110926784D01*
X119933624Y-110762812D01*
X119899000Y-110588741D01*
X119899000Y-110411259D01*
X119933624Y-110237188D01*
X120001544Y-110073216D01*
X120100147Y-109925646D01*
X120225646Y-109800147D01*
X120373216Y-109701544D01*
X120537188Y-109633624D01*
X120686488Y-109603927D01*
X120711258Y-109599000D01*
X120888742Y-109599000D01*
X120913512Y-109603927D01*
G37*
G36*
X123453512Y-109603927D02*
G01*
X123602812Y-109633624D01*
X123766784Y-109701544D01*
X123914354Y-109800147D01*
X124039853Y-109925646D01*
X124138456Y-110073216D01*
X124206376Y-110237188D01*
X124241000Y-110411259D01*
X124241000Y-110588741D01*
X124206376Y-110762812D01*
X124138456Y-110926784D01*
X124039853Y-111074354D01*
X123914354Y-111199853D01*
X123766784Y-111298456D01*
X123602812Y-111366376D01*
X123453512Y-111396073D01*
X123428742Y-111401000D01*
X123251258Y-111401000D01*
X123226488Y-111396073D01*
X123077188Y-111366376D01*
X122913216Y-111298456D01*
X122765646Y-111199853D01*
X122640147Y-111074354D01*
X122541544Y-110926784D01*
X122473624Y-110762812D01*
X122439000Y-110588741D01*
X122439000Y-110411259D01*
X122473624Y-110237188D01*
X122541544Y-110073216D01*
X122640147Y-109925646D01*
X122765646Y-109800147D01*
X122913216Y-109701544D01*
X123077188Y-109633624D01*
X123226488Y-109603927D01*
X123251258Y-109599000D01*
X123428742Y-109599000D01*
X123453512Y-109603927D01*
G37*
G36*
X136153512Y-109603927D02*
G01*
X136302812Y-109633624D01*
X136466784Y-109701544D01*
X136614354Y-109800147D01*
X136739853Y-109925646D01*
X136838456Y-110073216D01*
X136906376Y-110237188D01*
X136941000Y-110411259D01*
X136941000Y-110588741D01*
X136906376Y-110762812D01*
X136838456Y-110926784D01*
X136739853Y-111074354D01*
X136614354Y-111199853D01*
X136466784Y-111298456D01*
X136302812Y-111366376D01*
X136153512Y-111396073D01*
X136128742Y-111401000D01*
X135951258Y-111401000D01*
X135926488Y-111396073D01*
X135777188Y-111366376D01*
X135613216Y-111298456D01*
X135465646Y-111199853D01*
X135340147Y-111074354D01*
X135241544Y-110926784D01*
X135173624Y-110762812D01*
X135139000Y-110588741D01*
X135139000Y-110411259D01*
X135173624Y-110237188D01*
X135241544Y-110073216D01*
X135340147Y-109925646D01*
X135465646Y-109800147D01*
X135613216Y-109701544D01*
X135777188Y-109633624D01*
X135926488Y-109603927D01*
X135951258Y-109599000D01*
X136128742Y-109599000D01*
X136153512Y-109603927D01*
G37*
G36*
X131073512Y-109603927D02*
G01*
X131222812Y-109633624D01*
X131386784Y-109701544D01*
X131534354Y-109800147D01*
X131659853Y-109925646D01*
X131758456Y-110073216D01*
X131826376Y-110237188D01*
X131861000Y-110411259D01*
X131861000Y-110588741D01*
X131826376Y-110762812D01*
X131758456Y-110926784D01*
X131659853Y-111074354D01*
X131534354Y-111199853D01*
X131386784Y-111298456D01*
X131222812Y-111366376D01*
X131073512Y-111396073D01*
X131048742Y-111401000D01*
X130871258Y-111401000D01*
X130846488Y-111396073D01*
X130697188Y-111366376D01*
X130533216Y-111298456D01*
X130385646Y-111199853D01*
X130260147Y-111074354D01*
X130161544Y-110926784D01*
X130093624Y-110762812D01*
X130059000Y-110588741D01*
X130059000Y-110411259D01*
X130093624Y-110237188D01*
X130161544Y-110073216D01*
X130260147Y-109925646D01*
X130385646Y-109800147D01*
X130533216Y-109701544D01*
X130697188Y-109633624D01*
X130846488Y-109603927D01*
X130871258Y-109599000D01*
X131048742Y-109599000D01*
X131073512Y-109603927D01*
G37*
G36*
X125993512Y-109603927D02*
G01*
X126142812Y-109633624D01*
X126306784Y-109701544D01*
X126454354Y-109800147D01*
X126579853Y-109925646D01*
X126678456Y-110073216D01*
X126746376Y-110237188D01*
X126781000Y-110411259D01*
X126781000Y-110588741D01*
X126746376Y-110762812D01*
X126678456Y-110926784D01*
X126579853Y-111074354D01*
X126454354Y-111199853D01*
X126306784Y-111298456D01*
X126142812Y-111366376D01*
X125993512Y-111396073D01*
X125968742Y-111401000D01*
X125791258Y-111401000D01*
X125766488Y-111396073D01*
X125617188Y-111366376D01*
X125453216Y-111298456D01*
X125305646Y-111199853D01*
X125180147Y-111074354D01*
X125081544Y-110926784D01*
X125013624Y-110762812D01*
X124979000Y-110588741D01*
X124979000Y-110411259D01*
X125013624Y-110237188D01*
X125081544Y-110073216D01*
X125180147Y-109925646D01*
X125305646Y-109800147D01*
X125453216Y-109701544D01*
X125617188Y-109633624D01*
X125766488Y-109603927D01*
X125791258Y-109599000D01*
X125968742Y-109599000D01*
X125993512Y-109603927D01*
G37*
G36*
X133613512Y-109603927D02*
G01*
X133762812Y-109633624D01*
X133926784Y-109701544D01*
X134074354Y-109800147D01*
X134199853Y-109925646D01*
X134298456Y-110073216D01*
X134366376Y-110237188D01*
X134401000Y-110411259D01*
X134401000Y-110588741D01*
X134366376Y-110762812D01*
X134298456Y-110926784D01*
X134199853Y-111074354D01*
X134074354Y-111199853D01*
X133926784Y-111298456D01*
X133762812Y-111366376D01*
X133613512Y-111396073D01*
X133588742Y-111401000D01*
X133411258Y-111401000D01*
X133386488Y-111396073D01*
X133237188Y-111366376D01*
X133073216Y-111298456D01*
X132925646Y-111199853D01*
X132800147Y-111074354D01*
X132701544Y-110926784D01*
X132633624Y-110762812D01*
X132599000Y-110588741D01*
X132599000Y-110411259D01*
X132633624Y-110237188D01*
X132701544Y-110073216D01*
X132800147Y-109925646D01*
X132925646Y-109800147D01*
X133073216Y-109701544D01*
X133237188Y-109633624D01*
X133386488Y-109603927D01*
X133411258Y-109599000D01*
X133588742Y-109599000D01*
X133613512Y-109603927D01*
G37*
G36*
X172193512Y-109603927D02*
G01*
X172342812Y-109633624D01*
X172506784Y-109701544D01*
X172654354Y-109800147D01*
X172779853Y-109925646D01*
X172878456Y-110073216D01*
X172946376Y-110237188D01*
X172981000Y-110411259D01*
X172981000Y-110588741D01*
X172946376Y-110762812D01*
X172878456Y-110926784D01*
X172779853Y-111074354D01*
X172654354Y-111199853D01*
X172506784Y-111298456D01*
X172342812Y-111366376D01*
X172193512Y-111396073D01*
X172168742Y-111401000D01*
X171991258Y-111401000D01*
X171966488Y-111396073D01*
X171817188Y-111366376D01*
X171653216Y-111298456D01*
X171505646Y-111199853D01*
X171380147Y-111074354D01*
X171281544Y-110926784D01*
X171213624Y-110762812D01*
X171179000Y-110588741D01*
X171179000Y-110411259D01*
X171213624Y-110237188D01*
X171281544Y-110073216D01*
X171380147Y-109925646D01*
X171505646Y-109800147D01*
X171653216Y-109701544D01*
X171817188Y-109633624D01*
X171966488Y-109603927D01*
X171991258Y-109599000D01*
X172168742Y-109599000D01*
X172193512Y-109603927D01*
G37*
G36*
X143073512Y-109603927D02*
G01*
X143222812Y-109633624D01*
X143386784Y-109701544D01*
X143534354Y-109800147D01*
X143659853Y-109925646D01*
X143758456Y-110073216D01*
X143826376Y-110237188D01*
X143861000Y-110411259D01*
X143861000Y-110588741D01*
X143826376Y-110762812D01*
X143758456Y-110926784D01*
X143659853Y-111074354D01*
X143534354Y-111199853D01*
X143386784Y-111298456D01*
X143222812Y-111366376D01*
X143073512Y-111396073D01*
X143048742Y-111401000D01*
X142871258Y-111401000D01*
X142846488Y-111396073D01*
X142697188Y-111366376D01*
X142533216Y-111298456D01*
X142385646Y-111199853D01*
X142260147Y-111074354D01*
X142161544Y-110926784D01*
X142093624Y-110762812D01*
X142059000Y-110588741D01*
X142059000Y-110411259D01*
X142093624Y-110237188D01*
X142161544Y-110073216D01*
X142260147Y-109925646D01*
X142385646Y-109800147D01*
X142533216Y-109701544D01*
X142697188Y-109633624D01*
X142846488Y-109603927D01*
X142871258Y-109599000D01*
X143048742Y-109599000D01*
X143073512Y-109603927D01*
G37*
G36*
X167113512Y-109603927D02*
G01*
X167262812Y-109633624D01*
X167426784Y-109701544D01*
X167574354Y-109800147D01*
X167699853Y-109925646D01*
X167798456Y-110073216D01*
X167866376Y-110237188D01*
X167901000Y-110411259D01*
X167901000Y-110588741D01*
X167866376Y-110762812D01*
X167798456Y-110926784D01*
X167699853Y-111074354D01*
X167574354Y-111199853D01*
X167426784Y-111298456D01*
X167262812Y-111366376D01*
X167113512Y-111396073D01*
X167088742Y-111401000D01*
X166911258Y-111401000D01*
X166886488Y-111396073D01*
X166737188Y-111366376D01*
X166573216Y-111298456D01*
X166425646Y-111199853D01*
X166300147Y-111074354D01*
X166201544Y-110926784D01*
X166133624Y-110762812D01*
X166099000Y-110588741D01*
X166099000Y-110411259D01*
X166133624Y-110237188D01*
X166201544Y-110073216D01*
X166300147Y-109925646D01*
X166425646Y-109800147D01*
X166573216Y-109701544D01*
X166737188Y-109633624D01*
X166886488Y-109603927D01*
X166911258Y-109599000D01*
X167088742Y-109599000D01*
X167113512Y-109603927D01*
G37*
G36*
X165361000Y-111401000D02*
G01*
X163559000Y-111401000D01*
X163559000Y-109599000D01*
X165361000Y-109599000D01*
X165361000Y-111401000D01*
G37*
G36*
X160193512Y-109603927D02*
G01*
X160342812Y-109633624D01*
X160506784Y-109701544D01*
X160654354Y-109800147D01*
X160779853Y-109925646D01*
X160878456Y-110073216D01*
X160946376Y-110237188D01*
X160981000Y-110411259D01*
X160981000Y-110588741D01*
X160946376Y-110762812D01*
X160878456Y-110926784D01*
X160779853Y-111074354D01*
X160654354Y-111199853D01*
X160506784Y-111298456D01*
X160342812Y-111366376D01*
X160193512Y-111396073D01*
X160168742Y-111401000D01*
X159991258Y-111401000D01*
X159966488Y-111396073D01*
X159817188Y-111366376D01*
X159653216Y-111298456D01*
X159505646Y-111199853D01*
X159380147Y-111074354D01*
X159281544Y-110926784D01*
X159213624Y-110762812D01*
X159179000Y-110588741D01*
X159179000Y-110411259D01*
X159213624Y-110237188D01*
X159281544Y-110073216D01*
X159380147Y-109925646D01*
X159505646Y-109800147D01*
X159653216Y-109701544D01*
X159817188Y-109633624D01*
X159966488Y-109603927D01*
X159991258Y-109599000D01*
X160168742Y-109599000D01*
X160193512Y-109603927D01*
G37*
G36*
X157653512Y-109603927D02*
G01*
X157802812Y-109633624D01*
X157966784Y-109701544D01*
X158114354Y-109800147D01*
X158239853Y-109925646D01*
X158338456Y-110073216D01*
X158406376Y-110237188D01*
X158441000Y-110411259D01*
X158441000Y-110588741D01*
X158406376Y-110762812D01*
X158338456Y-110926784D01*
X158239853Y-111074354D01*
X158114354Y-111199853D01*
X157966784Y-111298456D01*
X157802812Y-111366376D01*
X157653512Y-111396073D01*
X157628742Y-111401000D01*
X157451258Y-111401000D01*
X157426488Y-111396073D01*
X157277188Y-111366376D01*
X157113216Y-111298456D01*
X156965646Y-111199853D01*
X156840147Y-111074354D01*
X156741544Y-110926784D01*
X156673624Y-110762812D01*
X156639000Y-110588741D01*
X156639000Y-110411259D01*
X156673624Y-110237188D01*
X156741544Y-110073216D01*
X156840147Y-109925646D01*
X156965646Y-109800147D01*
X157113216Y-109701544D01*
X157277188Y-109633624D01*
X157426488Y-109603927D01*
X157451258Y-109599000D01*
X157628742Y-109599000D01*
X157653512Y-109603927D01*
G37*
G36*
X155113512Y-109603927D02*
G01*
X155262812Y-109633624D01*
X155426784Y-109701544D01*
X155574354Y-109800147D01*
X155699853Y-109925646D01*
X155798456Y-110073216D01*
X155866376Y-110237188D01*
X155901000Y-110411259D01*
X155901000Y-110588741D01*
X155866376Y-110762812D01*
X155798456Y-110926784D01*
X155699853Y-111074354D01*
X155574354Y-111199853D01*
X155426784Y-111298456D01*
X155262812Y-111366376D01*
X155113512Y-111396073D01*
X155088742Y-111401000D01*
X154911258Y-111401000D01*
X154886488Y-111396073D01*
X154737188Y-111366376D01*
X154573216Y-111298456D01*
X154425646Y-111199853D01*
X154300147Y-111074354D01*
X154201544Y-110926784D01*
X154133624Y-110762812D01*
X154099000Y-110588741D01*
X154099000Y-110411259D01*
X154133624Y-110237188D01*
X154201544Y-110073216D01*
X154300147Y-109925646D01*
X154425646Y-109800147D01*
X154573216Y-109701544D01*
X154737188Y-109633624D01*
X154886488Y-109603927D01*
X154911258Y-109599000D01*
X155088742Y-109599000D01*
X155113512Y-109603927D01*
G37*
G36*
X153361000Y-111401000D02*
G01*
X151559000Y-111401000D01*
X151559000Y-109599000D01*
X153361000Y-109599000D01*
X153361000Y-111401000D01*
G37*
G36*
X148153512Y-109603927D02*
G01*
X148302812Y-109633624D01*
X148466784Y-109701544D01*
X148614354Y-109800147D01*
X148739853Y-109925646D01*
X148838456Y-110073216D01*
X148906376Y-110237188D01*
X148941000Y-110411259D01*
X148941000Y-110588741D01*
X148906376Y-110762812D01*
X148838456Y-110926784D01*
X148739853Y-111074354D01*
X148614354Y-111199853D01*
X148466784Y-111298456D01*
X148302812Y-111366376D01*
X148153512Y-111396073D01*
X148128742Y-111401000D01*
X147951258Y-111401000D01*
X147926488Y-111396073D01*
X147777188Y-111366376D01*
X147613216Y-111298456D01*
X147465646Y-111199853D01*
X147340147Y-111074354D01*
X147241544Y-110926784D01*
X147173624Y-110762812D01*
X147139000Y-110588741D01*
X147139000Y-110411259D01*
X147173624Y-110237188D01*
X147241544Y-110073216D01*
X147340147Y-109925646D01*
X147465646Y-109800147D01*
X147613216Y-109701544D01*
X147777188Y-109633624D01*
X147926488Y-109603927D01*
X147951258Y-109599000D01*
X148128742Y-109599000D01*
X148153512Y-109603927D01*
G37*
G36*
X145613512Y-109603927D02*
G01*
X145762812Y-109633624D01*
X145926784Y-109701544D01*
X146074354Y-109800147D01*
X146199853Y-109925646D01*
X146298456Y-110073216D01*
X146366376Y-110237188D01*
X146401000Y-110411259D01*
X146401000Y-110588741D01*
X146366376Y-110762812D01*
X146298456Y-110926784D01*
X146199853Y-111074354D01*
X146074354Y-111199853D01*
X145926784Y-111298456D01*
X145762812Y-111366376D01*
X145613512Y-111396073D01*
X145588742Y-111401000D01*
X145411258Y-111401000D01*
X145386488Y-111396073D01*
X145237188Y-111366376D01*
X145073216Y-111298456D01*
X144925646Y-111199853D01*
X144800147Y-111074354D01*
X144701544Y-110926784D01*
X144633624Y-110762812D01*
X144599000Y-110588741D01*
X144599000Y-110411259D01*
X144633624Y-110237188D01*
X144701544Y-110073216D01*
X144800147Y-109925646D01*
X144925646Y-109800147D01*
X145073216Y-109701544D01*
X145237188Y-109633624D01*
X145386488Y-109603927D01*
X145411258Y-109599000D01*
X145588742Y-109599000D01*
X145613512Y-109603927D01*
G37*
G36*
X169653512Y-109603927D02*
G01*
X169802812Y-109633624D01*
X169966784Y-109701544D01*
X170114354Y-109800147D01*
X170239853Y-109925646D01*
X170338456Y-110073216D01*
X170406376Y-110237188D01*
X170441000Y-110411259D01*
X170441000Y-110588741D01*
X170406376Y-110762812D01*
X170338456Y-110926784D01*
X170239853Y-111074354D01*
X170114354Y-111199853D01*
X169966784Y-111298456D01*
X169802812Y-111366376D01*
X169653512Y-111396073D01*
X169628742Y-111401000D01*
X169451258Y-111401000D01*
X169426488Y-111396073D01*
X169277188Y-111366376D01*
X169113216Y-111298456D01*
X168965646Y-111199853D01*
X168840147Y-111074354D01*
X168741544Y-110926784D01*
X168673624Y-110762812D01*
X168639000Y-110588741D01*
X168639000Y-110411259D01*
X168673624Y-110237188D01*
X168741544Y-110073216D01*
X168840147Y-109925646D01*
X168965646Y-109800147D01*
X169113216Y-109701544D01*
X169277188Y-109633624D01*
X169426488Y-109603927D01*
X169451258Y-109599000D01*
X169628742Y-109599000D01*
X169653512Y-109603927D01*
G37*
M02*
